<?xml version="1.0" standalone="no"?>
<!DOCTYPE svg PUBLIC "-//W3C//DTD SVG 20010904//EN"
 "http://www.w3.org/TR/2001/REC-SVG-20010904/DTD/svg10.dtd">
<svg version="1.0" xmlns="http://www.w3.org/2000/svg"
 width="512.000000pt" height="512.000000pt" viewBox="0 0 512.000000 512.000000"
 preserveAspectRatio="xMidYMid meet">
<metadata>
Created by potrace 1.14, written by Peter Selinger 2001-2017
</metadata>
<g transform="translate(0.000000,512.000000) scale(0.100000,-0.100000)"
fill="#000000" stroke="none">
<path d="M0 2560 l0 -2560 2560 0 2560 0 0 2560 0 2560 -2560 0 -2560 0 0
-2560z m813 1055 c83 -22 133 -50 199 -113 59 -56 112 -145 124 -208 l6 -34
283 0 c277 0 283 0 316 -23 70 -46 69 -38 69 -564 l0 -473 -725 0 -725 0 0
355 0 355 -29 47 c-49 83 -64 143 -59 253 3 88 7 104 41 172 93 189 300 285
500 233z m1832 -689 c59 -25 75 -65 75 -184 0 -116 -11 -146 -63 -177 -39 -23
-105 -23 -140 0 -49 32 -61 69 -61 182 0 116 12 143 75 175 41 22 69 22 114 4z
m656 3 c52 -18 62 -30 44 -56 -14 -20 -16 -20 -59 -5 -53 19 -94 9 -107 -25
-13 -35 17 -61 81 -73 74 -13 110 -51 110 -115 0 -102 -114 -143 -232 -83 -43
21 -44 24 -22 49 15 17 19 17 47 3 36 -19 111 -22 132 -4 21 17 19 67 -2 78
-10 5 -40 13 -67 17 -69 10 -106 47 -106 108 0 93 80 139 181 106z m326 -9
c18 -10 40 -31 49 -45 19 -30 30 -141 20 -209 -18 -119 -149 -162 -231 -76
-29 30 -30 35 -33 138 -3 124 10 163 68 194 45 23 87 23 127 -2z m908 6 c19
-8 44 -30 55 -48 18 -29 21 -46 18 -145 -3 -108 -4 -113 -32 -142 -56 -59
-133 -61 -191 -7 -27 26 -34 42 -40 90 -10 79 1 175 23 206 22 29 77 60 110
60 12 0 38 -6 57 -14z m-2174 -188 l66 -188 -32 0 c-29 0 -33 4 -44 40 l-12
40 -73 0 -73 0 -12 -40 c-10 -35 -15 -40 -43 -40 -24 0 -29 3 -25 18 4 13 72
209 122 350 3 8 16 12 32 10 26 -3 31 -14 94 -190z m650 182 c10 -6 26 -24 34
-40 27 -53 16 -105 -32 -146 l-24 -21 40 -74 c23 -41 41 -77 41 -81 0 -5 -15
-8 -33 -8 -31 0 -35 4 -72 80 -37 76 -41 80 -72 80 l-33 0 0 -80 0 -80 -30 0
-30 0 0 190 0 190 96 0 c52 0 104 -5 115 -10z m990 -19 c24 -24 29 -38 29 -77
0 -40 -5 -51 -34 -78 l-33 -32 38 -75 c21 -40 38 -77 39 -81 0 -5 -14 -8 -31
-8 -28 0 -33 5 -67 80 -37 79 -37 80 -74 80 l-38 0 0 -80 0 -80 -30 0 -30 0 0
190 0 190 101 0 c98 0 101 -1 130 -29z m319 4 c0 -24 -3 -25 -55 -25 l-55 0 0
-165 0 -165 -25 0 -25 0 0 165 0 165 -50 0 c-47 0 -50 2 -50 25 l0 25 130 0
130 0 0 -25z m586 7 c60 -48 59 -126 -3 -178 l-25 -21 41 -82 41 -81 -33 0
c-31 0 -35 4 -72 80 -37 76 -41 80 -72 80 l-33 0 0 -80 0 -80 -30 0 -30 0 0
190 0 190 98 0 c77 0 101 -4 118 -18z m-1986 -653 c0 -162 1 -171 20 -176 14
-4 20 -14 20 -35 0 -28 -2 -29 -32 -23 -58 13 -58 12 -58 216 l0 189 25 0 25
0 0 -171z m150 141 c0 -27 -3 -30 -30 -30 -27 0 -30 3 -30 30 0 27 3 30 30 30
27 0 30 -3 30 -30z m-646 -94 c53 -22 66 -49 66 -138 0 -72 -2 -80 -29 -110
-26 -29 -36 -33 -79 -33 -40 0 -56 5 -76 24 -33 31 -50 92 -41 150 8 58 28 89
68 106 41 18 50 18 91 1z m333 -21 c26 -30 35 -84 31 -185 -3 -74 -4 -75 -30
-78 l-28 -3 0 100 c0 88 -3 104 -20 121 -24 24 -38 25 -68 4 -20 -14 -22 -23
-22 -120 l0 -104 -30 0 -30 0 0 145 0 145 30 0 c17 0 30 -4 30 -9 0 -6 12 -3
28 5 35 19 81 11 109 -21z m558 20 c47 -19 55 -45 55 -176 l0 -109 -30 0 -30
0 0 104 c0 110 -9 136 -49 136 -38 0 -50 -31 -53 -135 l-3 -100 -27 -3 -28 -3
0 145 0 146 30 0 c17 0 30 -4 30 -9 0 -6 12 -3 28 5 34 17 35 17 77 -1z m319
-25 c22 -22 30 -40 34 -79 l5 -51 -87 0 c-78 0 -86 -2 -86 -19 0 -11 7 -27 16
-35 18 -18 75 -21 91 -5 12 12 53 -4 53 -21 0 -17 -63 -50 -95 -50 -97 1 -156
118 -111 223 34 80 118 97 180 37z m-564 -115 l0 -145 -30 0 -30 0 0 145 0
145 30 0 30 0 0 -145z m-2270 -20 c11 -13 55 -15 285 -15 230 0 274 2 285 15
11 13 60 15 326 15 l314 0 0 -45 c0 -32 -6 -51 -20 -65 -20 -20 -33 -20 -907
-20 -1004 0 -923 -7 -923 82 l0 48 314 0 c266 0 315 -2 326 -15z m1400 -96 c0
-27 -3 -30 -27 -27 -22 2 -29 9 -31 31 -3 24 0 27 27 27 28 0 31 -3 31 -31z"/>
<path d="M616 3561 c-24 -5 -32 -15 -46 -56 -35 -103 -34 -105 2 -105 18 0 50
3 71 6 l37 7 0 78 c0 86 1 85 -64 70z"/>
<path d="M740 3492 l0 -79 31 -7 c44 -9 99 -8 99 2 0 13 -42 136 -49 143 -3 4
-23 10 -43 13 l-38 7 0 -79z"/>
<path d="M462 3483 c-42 -35 -102 -112 -102 -132 0 -5 25 -1 58 10 l58 19 18
66 c9 37 16 68 14 69 -2 2 -22 -12 -46 -32z"/>
<path d="M903 3504 c4 -10 11 -40 18 -66 6 -26 16 -51 23 -56 9 -8 102 -42
113 -42 2 0 -4 14 -12 31 -20 38 -78 103 -118 131 -28 20 -29 20 -24 2z"/>
<path d="M580 3343 c-49 -6 -58 -17 -62 -73 l-3 -50 83 0 82 0 0 65 0 65 -32
-2 c-18 0 -49 -3 -68 -5z"/>
<path d="M740 3286 l0 -66 81 0 82 0 -7 38 c-3 20 -6 45 -6 54 0 19 -14 24
-92 34 l-58 6 0 -66z"/>
<path d="M395 3293 c-33 -15 -61 -27 -61 -27 -1 -1 -5 -11 -8 -23 -7 -22 -5
-23 63 -23 l71 0 0 34 c0 19 3 41 6 50 8 21 0 20 -71 -11z"/>
<path d="M950 3269 l0 -49 70 0 c49 0 70 4 70 13 0 24 -17 37 -78 61 l-62 25
0 -50z"/>
<path d="M324 3144 c3 -9 6 -19 6 -23 0 -9 129 -66 134 -60 1 2 1 25 -2 52
l-4 47 -70 0 c-60 0 -69 -2 -64 -16z"/>
<path d="M520 3103 c6 -65 13 -70 108 -72 l52 -1 0 65 0 65 -83 0 -82 0 5 -57z"/>
<path d="M740 3092 l0 -69 68 9 c37 5 70 12 74 16 4 4 10 31 14 60 l7 52 -82
0 -81 0 0 -68z"/>
<path d="M950 3109 c0 -37 3 -50 13 -46 6 3 32 13 57 22 57 23 70 33 70 56 0
17 -8 19 -70 19 l-70 0 0 -51z"/>
<path d="M1145 3133 c-30 -145 -78 -226 -179 -300 -124 -91 -301 -110 -439
-46 l-67 32 0 -260 0 -259 620 0 620 0 0 418 c0 312 -3 421 -12 430 -9 9 -84
12 -275 12 l-263 0 -5 -27z m408 -193 c3 -11 19 -28 37 -37 l32 -18 -5 -120
c-7 -187 -44 -257 -175 -334 l-67 -39 -50 28 c-79 45 -131 96 -162 157 -25 51
-28 70 -31 183 l-4 125 32 18 c18 9 34 26 37 37 5 19 14 20 178 20 164 0 173
-1 178 -20z"/>
<path d="M1340 2790 l0 -50 -50 0 c-49 0 -50 -1 -50 -29 0 -28 2 -30 48 -33
l47 -3 3 -53 3 -53 32 3 c31 3 32 5 35 56 l3 52 50 0 c48 0 49 1 49 30 0 29
-1 30 -50 30 l-50 0 0 50 0 50 -35 0 -35 0 0 -50z"/>
<path d="M372 2999 c25 -45 130 -149 135 -134 1 6 -5 37 -15 70 l-18 60 -63
22 -62 23 23 -41z"/>
<path d="M981 3012 c-44 -17 -45 -19 -62 -84 -18 -72 -17 -72 37 -32 30 22 94
108 94 126 0 12 -19 9 -69 -10z"/>
<path d="M546 2953 c4 -15 15 -50 24 -78 16 -47 20 -51 61 -61 l44 -11 3 80
c2 44 2 81 0 82 -2 1 -33 5 -71 9 l-68 7 7 -28z"/>
<path d="M783 2973 l-43 -4 0 -84 0 -84 43 13 c39 11 43 16 64 71 12 33 22 68
22 78 1 18 1 18 -86 10z"/>
<path d="M2540 2860 c-27 -27 -33 -58 -28 -140 4 -82 26 -113 79 -113 54 0 69
29 69 138 0 89 -1 95 -26 114 -34 26 -68 27 -94 1z"/>
<path d="M3515 2855 c-23 -22 -25 -32 -25 -109 0 -100 4 -112 41 -131 34 -18
69 -8 93 27 21 30 22 158 1 197 -24 48 -72 55 -110 16z"/>
<path d="M4429 2861 c-21 -17 -24 -29 -27 -108 -4 -83 -2 -92 20 -118 32 -36
82 -39 110 -6 15 19 18 41 18 116 0 89 -1 95 -26 114 -33 26 -65 27 -95 2z"/>
<path d="M2241 2778 c-11 -40 -21 -76 -21 -80 0 -5 22 -8 49 -8 l49 0 -23 76
c-13 42 -25 78 -28 80 -2 2 -14 -28 -26 -68z"/>
<path d="M2860 2825 l0 -55 58 0 c66 0 82 11 82 55 0 44 -16 55 -82 55 l-58 0
0 -55z"/>
<path d="M3830 2825 l0 -55 59 0 c51 0 62 3 75 22 38 54 9 88 -75 88 l-59 0 0
-55z"/>
<path d="M4750 2825 l0 -55 60 0 c64 0 80 12 80 62 0 37 -19 48 -82 48 l-58 0
0 -55z"/>
<path d="M2340 2240 c-25 -25 -27 -105 -4 -138 17 -25 51 -29 80 -8 28 21 28
131 0 152 -27 19 -52 18 -76 -6z"/>
<path d="M3516 2244 c-31 -31 -20 -44 39 -44 60 0 70 13 37 43 -23 21 -56 22
-76 1z"/>
</g>
</svg>
