<svg xmlns="http://www.w3.org/2000/svg" width="160" height="160" viewBox="0 0 160 160">
  <g id="Group_162418" data-name="Group 162418" transform="translate(2065 -6726)">
    <circle id="Ellipse_49" data-name="Ellipse 49" cx="80" cy="80" r="80" transform="translate(-2065 6726)" fill="none"/>
    <g id="noun_online_learning_4364608" data-name="noun_online learning_4364608" transform="translate(-2038.333 6755.334)">
      <path id="Path_83128" data-name="Path 83128" d="M18,3H92.667a16,16,0,0,1,16,16V72.333a16,16,0,0,1-16,16H66V99H84.667a2.667,2.667,0,1,1,0,5.333H26A2.667,2.667,0,1,1,26,99H44.667V88.333H18a16,16,0,0,1-16-16V19A16,16,0,0,1,18,3ZM50,99H60.667V88.333H50ZM92.667,83H18A10.667,10.667,0,0,1,7.333,72.333V19A10.667,10.667,0,0,1,18,8.333H92.667A10.667,10.667,0,0,1,103.333,19V72.333A10.666,10.666,0,0,1,92.667,83Z" transform="translate(-2 -3)" fill="#0076ff" fill-rule="evenodd"/>
      <path id="Path_83129" data-name="Path 83129" d="M36.314,12.715,12.746,20.571a2.066,2.066,0,0,0,0,3.92l23.567,7.856a5.334,5.334,0,0,0,3.373,0l23.567-7.856a2.066,2.066,0,0,0,0-3.92L39.686,12.715A5.333,5.333,0,0,0,36.314,12.715Zm-25.254,2.8a7.4,7.4,0,0,0,0,14.04l23.567,7.856a10.671,10.671,0,0,0,6.747,0L64.94,29.551a7.4,7.4,0,0,0,0-14.04L41.373,7.656a10.668,10.668,0,0,0-6.747,0Z" transform="translate(15.333 14.802)" fill="#0076ff" fill-rule="evenodd"/>
      <path id="Path_83130" data-name="Path 83130" d="M7.5,20.637V11h5.333v9.637a2.667,2.667,0,0,0,1.73,2.5l16,6a2.671,2.671,0,0,0,1.873,0l16-6a2.667,2.667,0,0,0,1.73-2.5V11H55.5v9.637a8,8,0,0,1-5.191,7.491l-16,6a8,8,0,0,1-5.618,0l-16-6A8,8,0,0,1,7.5,20.637Z" transform="translate(21.833 31.667)" fill="#0076ff" fill-rule="evenodd"/>
      <path id="Path_83131" data-name="Path 83131" d="M12.638,11.324A2.666,2.666,0,0,1,16.01,9.637l17.823,5.941V41.5a2.667,2.667,0,0,1-5.333,0V19.423L14.324,14.7A2.666,2.666,0,0,1,12.638,11.324Z" transform="translate(43.499 25.166)" fill="#0076ff" fill-rule="evenodd"/>
    </g>
  </g>
</svg>
