<svg xmlns="http://www.w3.org/2000/svg" width="160" height="160" viewBox="0 0 160 160">
  <g id="Group_162414" data-name="Group 162414" transform="translate(-503 -2779)">
    <circle id="Ellipse_48" data-name="Ellipse 48" cx="80" cy="80" r="80" transform="translate(503 2779)" fill="none"/>
    <g id="noun_group_1893243" transform="translate(529.667 2806.724)">
      <g id="Group_162376" data-name="Group 162376" transform="translate(0 0)">
        <path id="Path_83119" data-name="Path 83119" d="M52.189,69.74A13.723,13.723,0,1,0,38.466,56.018,13.738,13.738,0,0,0,52.189,69.74Zm0-22.7a8.982,8.982,0,1,1-8.982,8.982A8.992,8.992,0,0,1,52.189,47.036Z" transform="translate(1.196 0.849)" fill="#0076ff"/>
        <path id="Path_83120" data-name="Path 83120" d="M85.562,69.74A13.723,13.723,0,1,0,71.839,56.018,13.738,13.738,0,0,0,85.562,69.74Zm0-22.7a8.982,8.982,0,1,1-8.982,8.982A8.992,8.992,0,0,1,85.562,47.036Z" transform="translate(7.374 0.849)" fill="#0076ff"/>
        <path id="Path_83121" data-name="Path 83121" d="M93.37,87.375A2.371,2.371,0,0,0,91,89.745v3.239a2.37,2.37,0,0,0,4.741,0V89.745A2.371,2.371,0,0,0,93.37,87.375Z" transform="translate(10.921 9.194)" fill="#0076ff"/>
        <path id="Path_83122" data-name="Path 83122" d="M103.553,67.044l-7.521,0a11.682,11.682,0,0,0-8.795,3.993l-6.208,7.1A4.959,4.959,0,0,1,77.8,79.788v-3.6a9.154,9.154,0,0,0-9.155-9.134h-1.48c-.837,0-.885,0-8.372,6.425l-7.748-5.946a2.348,2.348,0,0,0-1.6-.485c-.3.007-1.345.006-1.349.006a9.143,9.143,0,0,0-9.133,9.134V79.8a4.96,4.96,0,0,1-3.341-1.663l-6.207-7.1a11.678,11.678,0,0,0-8.795-3.993l-7.52,0A8.113,8.113,0,0,0,5,75.142v2.12a2.37,2.37,0,1,0,4.741,0v-2.12a3.366,3.366,0,0,1,3.369-3.357l7.52,0a6.936,6.936,0,0,1,5.225,2.373l6.207,7.1a9.725,9.725,0,0,0,7.325,3.329h5.83a1.807,1.807,0,1,1,0,3.613h-10a2.69,2.69,0,0,1-1.8-.693l-6.963-6.282a2.37,2.37,0,1,0-3.176,3.519L25.333,86.6V96.749a2.37,2.37,0,1,0,4.741,0V90.885l.159.143a7.415,7.415,0,0,0,2.61,1.5V96.75a2.37,2.37,0,1,0,4.741,0V92.942h7.633c.132,0,.26-.012.389-.02.1.006.191.019.3.019h10.75a2.37,2.37,0,1,0,0-4.741H51.506a6.53,6.53,0,0,0-6.288-8.353h-1.5V76.189A4.4,4.4,0,0,1,48.107,71.8c.225,0,.462,0,.7-.006l8.631,6.623a2.374,2.374,0,0,0,2.987-.082S66.1,73.462,68.046,71.8h.607a4.409,4.409,0,0,1,4.415,4.393v3.657H71.45A6.53,6.53,0,0,0,65.162,88.2H63.273a2.37,2.37,0,1,0,0,4.741h7.6c.1,0,.2-.008.3-.013s.181.014.274.014h7.633v3.808a2.37,2.37,0,1,0,4.741,0V92.531a7.411,7.411,0,0,0,2.61-1.505l.159-.143v5.866a2.37,2.37,0,1,0,4.741,0V86.6L93.4,84.743a2.37,2.37,0,1,0-3.176-3.519l-6.963,6.281a2.685,2.685,0,0,1-1.8.694h-10a1.807,1.807,0,1,1,0-3.613h5.83A9.72,9.72,0,0,0,84.6,81.259l6.207-7.1a6.94,6.94,0,0,1,5.225-2.373l7.521,0a3.368,3.368,0,0,1,3.369,3.357v11.9a2.37,2.37,0,0,0,4.741,0v-11.9A8.12,8.12,0,0,0,103.553,67.044Z" transform="translate(-5 5.43)" fill="#0076ff"/>
        <path id="Path_83123" data-name="Path 83123" d="M5,56.018A13.723,13.723,0,1,0,18.726,42.3,13.738,13.738,0,0,0,5,56.018Zm13.723-8.982a8.982,8.982,0,1,1-8.982,8.982A8.992,8.992,0,0,1,18.726,47.036Z" transform="translate(-4.999 0.849)" fill="#0076ff"/>
        <path id="Path_83124" data-name="Path 83124" d="M7.37,78.75A2.371,2.371,0,0,0,5,81.12V94.581a2.37,2.37,0,0,0,4.741,0V81.12A2.371,2.371,0,0,0,7.37,78.75Z" transform="translate(-5 7.598)" fill="#0076ff"/>
        <path id="Path_83125" data-name="Path 83125" d="M27.9,49.119a2.366,2.366,0,0,0,2.574.283L43,43.069h4.188a18.589,18.589,0,0,0,0-37.178H36.163a18.59,18.59,0,0,0-7.582,35.56l-1.455,5.2A2.369,2.369,0,0,0,27.9,49.119ZM22.321,24.474A13.858,13.858,0,0,1,36.163,10.632H47.185a13.848,13.848,0,0,1,0,27.7H42.432c-.026,0-.051.007-.076.008a3.426,3.426,0,0,0-.474.063c-.07.017-.137.04-.206.064a2.463,2.463,0,0,0-.247.095c-.023.011-.045.015-.068.026l-8.22,4.157.585-2.092a1.942,1.942,0,0,0,.034-.2c.015-.083.037-.166.044-.249s0-.147,0-.22a2.39,2.39,0,0,0-.007-.244,1.978,1.978,0,0,0-.045-.218c-.017-.077-.028-.154-.052-.229s-.057-.139-.087-.207-.056-.142-.092-.21-.082-.126-.124-.188-.082-.128-.13-.187a2.126,2.126,0,0,0-.162-.165c-.053-.053-.1-.109-.162-.158s-.132-.09-.2-.135a2.246,2.246,0,0,0-.19-.122,2.27,2.27,0,0,0-.226-.095c-.065-.026-.124-.06-.193-.081A13.959,13.959,0,0,1,22.321,24.474Z" transform="translate(-2.671 -5.891)" fill="#0076ff"/>
        <path id="Path_83126" data-name="Path 83126" d="M36.892,30.579a2.367,2.367,0,0,0,1.676.694c.065,0,.13,0,.2-.008A2.371,2.371,0,0,0,40.5,30.28L49.09,18.247a2.37,2.37,0,0,0-3.858-2.754l-6.969,9.755-4.79-4.789a2.37,2.37,0,0,0-3.352,3.352Z" transform="translate(-0.478 -4.297)" fill="#0076ff"/>
      </g>
    </g>
  </g>
</svg>
