<svg xmlns="http://www.w3.org/2000/svg" xmlns:xlink="http://www.w3.org/1999/xlink" width="240" height="60" viewBox="0 0 240 60">
  <defs>
    <clipPath id="clip-path">
      <rect id="Rectangle_147771" data-name="Rectangle 147771" width="240" height="60" fill="#1f76fb"/>
    </clipPath>
  </defs>
  <g id="Group_162580" data-name="Group 162580" transform="translate(-618.199 -248)">
    <path id="Path_83203" data-name="Path 83203" d="M221.706,133.958l-2.921,5.616h-.035l-2.955-5.616h-2.783v11.988h2.471v-7.986h.052l.916,1.89,2.3,4.224,2.35-4.242.881-1.752h.052v7.866h2.472V133.958Z" transform="translate(480.77 161.277)" fill="#1f76fb"/>
    <path id="Path_83204" data-name="Path 83204" d="M262.563,133.958v4.758h-4.6v-4.758h-2.627v11.988h2.627v-4.912h4.6v4.912h2.627V133.958Z" transform="translate(453.462 161.277)" fill="#1f76fb"/>
    <path id="Path_83205" data-name="Path 83205" d="M298.145,133.958l-1.8,5.754-.916,3.761h-.052l-.95-3.761-1.8-5.754H289.97l3.889,11.988H296.8l3.923-11.988Z" transform="translate(431.12 161.277)" fill="#1f76fb"/>
    <g id="Group_162550" data-name="Group 162550" transform="translate(618.199 248)">
      <g id="Group_162549" data-name="Group 162549" clip-path="url(#clip-path)">
        <path id="Path_83206" data-name="Path 83206" d="M328.353,145.774a6.1,6.1,0,0,1-2.7-.542,6.171,6.171,0,0,1-1.884-1.4l1.728-1.737a3.911,3.911,0,0,0,3.024,1.362,2.2,2.2,0,0,0,1.435-.391,1.287,1.287,0,0,0,.467-1.038,1.246,1.246,0,0,0-.277-.825,1.78,1.78,0,0,0-1.123-.451l-1.193-.153a4.629,4.629,0,0,1-2.808-1.152,3.321,3.321,0,0,1-.89-2.425,3.467,3.467,0,0,1,.311-1.479,3.267,3.267,0,0,1,.89-1.152,4.162,4.162,0,0,1,1.417-.748,6.3,6.3,0,0,1,1.91-.266,6.233,6.233,0,0,1,2.4.43,4.879,4.879,0,0,1,1.781,1.255l-1.746,1.755a3.505,3.505,0,0,0-1.046-.807,3.377,3.377,0,0,0-1.547-.315A2.285,2.285,0,0,0,327.2,136a.984.984,0,0,0-.432.85,1.069,1.069,0,0,0,.337.884,2.35,2.35,0,0,0,1.1.391l1.192.189a5.1,5.1,0,0,1,2.765,1.143,3.168,3.168,0,0,1,.9,2.416,3.952,3.952,0,0,1-.311,1.581,3.388,3.388,0,0,1-.907,1.238,4.185,4.185,0,0,1-1.478.8,6.545,6.545,0,0,1-2,.284" transform="translate(-208.889 -86.345)" fill="#1f76fb"/>
        <rect id="Rectangle_147769" data-name="Rectangle 147769" width="5.133" height="2.473" transform="translate(127.051 52.749)" fill="#1f76fb"/>
        <path id="Path_83207" data-name="Path 83207" d="M386.018,145.774a5.8,5.8,0,0,1-2.177-.4,4.379,4.379,0,0,1-1.677-1.176,5.446,5.446,0,0,1-1.072-1.941,9.7,9.7,0,0,1,0-5.376,5.455,5.455,0,0,1,1.072-1.941,4.391,4.391,0,0,1,1.677-1.176,6.2,6.2,0,0,1,4.355,0,4.388,4.388,0,0,1,1.676,1.176,5.458,5.458,0,0,1,1.072,1.941,9.692,9.692,0,0,1,0,5.376,5.449,5.449,0,0,1-1.072,1.941,4.376,4.376,0,0,1-1.676,1.176,5.8,5.8,0,0,1-2.178.4m0-2.319a2.321,2.321,0,0,0,1.858-.773,3.3,3.3,0,0,0,.665-2.216v-1.786a3.3,3.3,0,0,0-.665-2.216,2.619,2.619,0,0,0-3.716,0,3.3,3.3,0,0,0-.665,2.216v1.786a3.3,3.3,0,0,0,.665,2.216,2.32,2.32,0,0,0,1.858.773" transform="translate(-245.624 -86.345)" fill="#1f76fb"/>
        <path id="Path_83208" data-name="Path 83208" d="M422.921,140.278l-1.158-2.4h-.051v8.072H419.24V133.958h2.869l3.3,5.668,1.158,2.4h.052v-8.072h2.471v11.988h-2.869Z" transform="translate(-270.481 -86.723)" fill="#1f76fb"/>
        <path id="Path_83209" data-name="Path 83209" d="M456.939,145.946V133.958h2.627v9.67h4.6v2.318Z" transform="translate(-294.803 -86.723)" fill="#1f76fb"/>
        <path id="Path_83210" data-name="Path 83210" d="M483.875,145.946v-2.078h1.555v-7.832h-1.555v-2.078h5.738v2.078h-1.556v7.832h1.556v2.078Z" transform="translate(-312.182 -86.723)" fill="#1f76fb"/>
        <path id="Path_83211" data-name="Path 83211" d="M512.348,140.278l-1.158-2.4h-.052v8.072h-2.471V133.958h2.869l3.3,5.668,1.158,2.4h.052v-8.072h2.471v11.988h-2.869Z" transform="translate(-328.177 -86.723)" fill="#1f76fb"/>
        <path id="Path_83212" data-name="Path 83212" d="M546.366,145.946V133.958h8.209v2.318h-5.583v2.439h4.788v2.318h-4.788v2.594h5.583v2.318Z" transform="translate(-352.499 -86.723)" fill="#1f76fb"/>
        <path id="Path_83213" data-name="Path 83213" d="M212.073,36.047h2.14V38.26l1.836-.244a.9.9,0,0,0,.6-.28,1.453,1.453,0,0,0,.238-.74l.1-.948H219.2l-.1,1.02a1.879,1.879,0,0,1-.521,1.128,1.943,1.943,0,0,1-1.287.539v.072a1.729,1.729,0,0,1,.882.374,2.215,2.215,0,0,1,.528.668,2.969,2.969,0,0,1,.275.8q.079.417.108.747l.246,2.615h-2.2l-.217-2.758a1.975,1.975,0,0,0-.39-1.142.976.976,0,0,0-.925-.323l-1.388.172v4.052h-2.14Z" transform="translate(-136.823 -23.336)" fill="#1f76fb"/>
        <path id="Path_83214" data-name="Path 83214" d="M238.7,43.833a2.8,2.8,0,0,1-1.843-.567,2.171,2.171,0,0,1-.687-1.775,2.282,2.282,0,0,1,.65-1.738,2.627,2.627,0,0,1,1.879-.618h2.386v-.417a1.483,1.483,0,0,0-.383-1.1,1.725,1.725,0,0,0-1.25-.381,2.345,2.345,0,0,0-1.316.366,2.541,2.541,0,0,0-.463.373,3.463,3.463,0,0,0-.362.439l-1.359-1.178a4.017,4.017,0,0,1,1.388-1.229,4.768,4.768,0,0,1,2.255-.452,4.075,4.075,0,0,1,2.718.783,2.875,2.875,0,0,1,.911,2.306V43.69h-2.14v-3.2h-1.619q-1.128,0-1.128.919v.244a1.045,1.045,0,0,0,.231.711.851.851,0,0,0,.679.266h.174a.542.542,0,0,0,.173-.029l.145,1.135a1.032,1.032,0,0,1-.2.05,2.219,2.219,0,0,1-.275.029l-.3.014c-.1,0-.191.007-.268.007" transform="translate(-152.228 -23.02)" fill="#1f76fb"/>
        <path id="Path_83215" data-name="Path 83215" d="M247.484,27.414A2,2,0,0,1,246.118,27a1.548,1.548,0,0,1-.47-1.221V24.6h1.691v1.264h3.875v1.551Z" transform="translate(-158.485 -15.924)" fill="#1f76fb"/>
        <path id="Path_83216" data-name="Path 83216" d="M261.451,39.51l-1.258-.5a3.712,3.712,0,0,1,.383-1.429,3.4,3.4,0,0,1,.86-1.085,3.886,3.886,0,0,1,1.265-.69,5.008,5.008,0,0,1,1.6-.244,4.931,4.931,0,0,1,1.583.237,3.411,3.411,0,0,1,1.193.675,2.988,2.988,0,0,1,.759,1.063,3.494,3.494,0,0,1,.268,1.386v4.77h-2.14v-4.5a2.06,2.06,0,0,0-.47-1.437,1.772,1.772,0,0,0-1.381-.517,2.351,2.351,0,0,0-1.193.287,1.841,1.841,0,0,0-.73.718l.506.187a1.559,1.559,0,0,1,.709.46,1.319,1.319,0,0,1,.188.776v4.023h-2.14Z" transform="translate(-167.869 -23.02)" fill="#1f76fb"/>
        <path id="Path_83217" data-name="Path 83217" d="M289.141,43.385a2.8,2.8,0,0,1-1.843-.567,2.171,2.171,0,0,1-.687-1.775,2.281,2.281,0,0,1,.651-1.738,2.627,2.627,0,0,1,1.88-.618h2.385V38.27a1.485,1.485,0,0,0-.383-1.1,1.726,1.726,0,0,0-1.251-.381,2.345,2.345,0,0,0-1.316.366,2.542,2.542,0,0,0-.463.373,3.413,3.413,0,0,0-.361.439l-1.359-1.178a4.012,4.012,0,0,1,1.388-1.229,4.767,4.767,0,0,1,2.255-.452,4.479,4.479,0,0,1,2.415.575,1.028,1.028,0,0,1,.426-.618,1.424,1.424,0,0,1,.788-.2h1.591v1.753h-1.909v.057a3.3,3.3,0,0,1,.318,1.523v5.043h-2.14v-3.2h-1.619q-1.127,0-1.128.919V41.2a1.043,1.043,0,0,0,.232.711.85.85,0,0,0,.679.266h.173a.542.542,0,0,0,.174-.029l.145,1.135a1.024,1.024,0,0,1-.2.05,2.218,2.218,0,0,1-.275.029l-.3.014c-.1,0-.191.007-.268.007" transform="translate(-184.773 -22.571)" fill="#1f76fb"/>
        <path id="Path_83218" data-name="Path 83218" d="M294.23,66.507a3.478,3.478,0,0,1-1.048-.136,1.741,1.741,0,0,1-.687-.388,1.481,1.481,0,0,1-.376-.589,2.323,2.323,0,0,1-.115-.754v-.417h-.926V62.857h1.143a1.558,1.558,0,0,1,1.034.273.925.925,0,0,1,.311.733v.474q0,.8.679.8a.657.657,0,0,0,.535-.194.957.957,0,0,0,.159-.61v-1.48h1.749v1.307a2.183,2.183,0,0,1-2.458,2.342" transform="translate(-187.795 -40.693)" fill="#1f76fb"/>
        <path id="Path_83219" data-name="Path 83219" d="M316.419,43.862a3.6,3.6,0,0,1-2.776-1.042,4.469,4.469,0,0,1-.969-3.139,5.949,5.949,0,0,1,.644-3.075,2.1,2.1,0,0,1,1.915-1.049,1.595,1.595,0,0,1,1.706,1.437h.1a1.59,1.59,0,0,1,.622-1.063,2.111,2.111,0,0,1,1.287-.373,1.891,1.891,0,0,1,1.468.611,2.436,2.436,0,0,1,.556,1.7V43.69h-2.14V38.173a1.084,1.084,0,0,0-.159-.646.51.51,0,0,0-.434-.215.494.494,0,0,0-.477.287,2.314,2.314,0,0,0-.2.748h-1.272a2.645,2.645,0,0,0-.188-.748.466.466,0,0,0-.463-.287.571.571,0,0,0-.557.388,3.006,3.006,0,0,0-.166,1.135V40.4a2.663,2.663,0,0,0,.087.7,1.253,1.253,0,0,0,.3.538,1.37,1.37,0,0,0,.556.345,2.705,2.705,0,0,0,.882.122,2.149,2.149,0,0,0,.492-.057l.246,1.7a2.062,2.062,0,0,1-.477.086q-.318.029-.578.029" transform="translate(-201.728 -23.02)" fill="#1f76fb"/>
        <path id="Path_83220" data-name="Path 83220" d="M343.628,43.862a4.621,4.621,0,0,1-1.959-.374,4.344,4.344,0,0,1-1.409-1.049l1.287-1.236a3.42,3.42,0,0,0,.962.74,2.622,2.622,0,0,0,1.221.28,1.7,1.7,0,0,0,.969-.215.658.658,0,0,0,.3-.56.6.6,0,0,0-.246-.538,1.572,1.572,0,0,0-.665-.223l-.824-.1a3.712,3.712,0,0,1-2.016-.762,2.1,2.1,0,0,1-.7-1.681,2.486,2.486,0,0,1,.224-1.077,2.32,2.32,0,0,1,.636-.812,2.91,2.91,0,0,1,.983-.517,4.205,4.205,0,0,1,1.265-.179,6.24,6.24,0,0,1,1.041.079,3.951,3.951,0,0,1,.846.237,3.436,3.436,0,0,1,.7.388,5.227,5.227,0,0,1,.622.532l-1.258,1.236a2.636,2.636,0,0,0-.853-.6,2.528,2.528,0,0,0-1.056-.23,1.406,1.406,0,0,0-.868.215.68.68,0,0,0-.275.56.718.718,0,0,0,.224.553,1.409,1.409,0,0,0,.774.28l.824.115a5.611,5.611,0,0,1,1.106.259,2.72,2.72,0,0,1,.824.452,1.868,1.868,0,0,1,.52.683,2.338,2.338,0,0,1,.181.962,2.215,2.215,0,0,1-.245,1.035,2.493,2.493,0,0,1-.687.819,3.3,3.3,0,0,1-1.069.538,4.667,4.667,0,0,1-1.381.194" transform="translate(-219.526 -23.02)" fill="#1f76fb"/>
        <path id="Path_83221" data-name="Path 83221" d="M366.218,43.862a4.619,4.619,0,0,1-1.416-.208,3.564,3.564,0,0,1-1.121-.575,2.712,2.712,0,0,1-.738-.869,2.321,2.321,0,0,1-.267-1.106v-.7a1.305,1.305,0,0,1,.325-.934,1.281,1.281,0,0,1,.976-.344h1.735v1.566H364.6v.23a1.173,1.173,0,0,0,.434.984,2.017,2.017,0,0,0,1.258.338,1.37,1.37,0,0,0,1.135-.5,2.11,2.11,0,0,0,.4-1.357V39.064a1.861,1.861,0,0,0-.462-1.343,1.721,1.721,0,0,0-1.3-.481,2.783,2.783,0,0,0-.759.1,2.965,2.965,0,0,0-.636.258,2.591,2.591,0,0,0-.491.352,2.15,2.15,0,0,0-.325.366l-1.3-1.149a3.5,3.5,0,0,1,1.352-1.142,4.867,4.867,0,0,1,2.248-.467,4.554,4.554,0,0,1,1.641.28,3.285,3.285,0,0,1,1.236.819,3.632,3.632,0,0,1,.773,1.307,5.3,5.3,0,0,1,.268,1.746,5.416,5.416,0,0,1-.26,1.745,3.592,3.592,0,0,1-.759,1.307,3.236,3.236,0,0,1-1.214.819,4.4,4.4,0,0,1-1.612.28" transform="translate(-233.904 -23.02)" fill="#1f76fb"/>
        <path id="Path_83222" data-name="Path 83222" d="M391.476,44.179a4.591,4.591,0,0,1-1.5-.23,3.246,3.246,0,0,1-1.128-.646,2.748,2.748,0,0,1-.708-1.02,3.507,3.507,0,0,1-.246-1.336v-4.9h2.14v4.8a1.777,1.777,0,0,0,.383,1.221,1.348,1.348,0,0,0,1.063.431,1.327,1.327,0,0,0,1.056-.431,1.8,1.8,0,0,0,.376-1.221v-4.8h2.14v4.9a3.509,3.509,0,0,1-.246,1.336,2.748,2.748,0,0,1-.708,1.02,3.249,3.249,0,0,1-1.128.646,4.543,4.543,0,0,1-1.489.23" transform="translate(-250.256 -23.336)" fill="#1f76fb"/>
        <path id="Path_83223" data-name="Path 83223" d="M415.625,43.862a4.621,4.621,0,0,1-1.959-.374,4.344,4.344,0,0,1-1.409-1.049l1.287-1.236a3.421,3.421,0,0,0,.962.74,2.622,2.622,0,0,0,1.221.28,1.7,1.7,0,0,0,.969-.215.658.658,0,0,0,.3-.56.6.6,0,0,0-.245-.538,1.571,1.571,0,0,0-.665-.223l-.824-.1a3.713,3.713,0,0,1-2.016-.762,2.1,2.1,0,0,1-.7-1.681,2.484,2.484,0,0,1,.224-1.077,2.318,2.318,0,0,1,.636-.812,2.91,2.91,0,0,1,.983-.517,4.205,4.205,0,0,1,1.265-.179,6.24,6.24,0,0,1,1.041.079,3.949,3.949,0,0,1,.845.237,3.436,3.436,0,0,1,.7.388,5.247,5.247,0,0,1,.622.532l-1.258,1.236a2.637,2.637,0,0,0-.853-.6,2.529,2.529,0,0,0-1.056-.23,1.407,1.407,0,0,0-.868.215.68.68,0,0,0-.275.56.718.718,0,0,0,.224.553,1.41,1.41,0,0,0,.774.28l.824.115a5.608,5.608,0,0,1,1.106.259,2.72,2.72,0,0,1,.824.452,1.867,1.867,0,0,1,.52.683,2.34,2.34,0,0,1,.181.962,2.215,2.215,0,0,1-.246,1.035,2.492,2.492,0,0,1-.687.819,3.3,3.3,0,0,1-1.07.538,4.667,4.667,0,0,1-1.381.194" transform="translate(-265.976 -23.02)" fill="#1f76fb"/>
        <path id="Path_83224" data-name="Path 83224" d="M440.372,44.179a2.824,2.824,0,0,1-.9-.129,2.4,2.4,0,0,1-.665-.337,1.917,1.917,0,0,1-.463-.481,2.554,2.554,0,0,1-.282-.56h-.072v1.336h-2.14v-7.96h2.14v5.172a1.056,1.056,0,0,0,.13.531,1.248,1.248,0,0,0,.34.388,1.471,1.471,0,0,0,.477.237,1.846,1.846,0,0,0,.528.079,1.54,1.54,0,0,0,.672-.129.987.987,0,0,0,.412-.352,1.449,1.449,0,0,0,.2-.51,3.072,3.072,0,0,0,.058-.6V36.047h2.14v5a3.627,3.627,0,0,1-.651,2.32,2.316,2.316,0,0,1-1.923.812" transform="translate(-281.196 -23.336)" fill="#1f76fb"/>
        <path id="Path_83225" data-name="Path 83225" d="M463.152,43.862a4.618,4.618,0,0,1-1.416-.208,3.564,3.564,0,0,1-1.121-.575,2.709,2.709,0,0,1-.738-.869,2.321,2.321,0,0,1-.267-1.106v-.7a1.306,1.306,0,0,1,.325-.934,1.281,1.281,0,0,1,.976-.344h1.735v1.566h-1.113v.23a1.173,1.173,0,0,0,.434.984,2.017,2.017,0,0,0,1.258.338,1.369,1.369,0,0,0,1.135-.5,2.109,2.109,0,0,0,.4-1.357V39.064a1.861,1.861,0,0,0-.462-1.343,1.721,1.721,0,0,0-1.3-.481,2.782,2.782,0,0,0-.759.1,2.967,2.967,0,0,0-.636.258,2.6,2.6,0,0,0-.491.352,2.15,2.15,0,0,0-.325.366l-1.3-1.149a3.5,3.5,0,0,1,1.352-1.142,4.867,4.867,0,0,1,2.248-.467,4.554,4.554,0,0,1,1.641.28,3.285,3.285,0,0,1,1.236.819,3.632,3.632,0,0,1,.773,1.307A5.3,5.3,0,0,1,467,39.71a5.419,5.419,0,0,1-.26,1.745,3.593,3.593,0,0,1-.759,1.307,3.237,3.237,0,0,1-1.214.819,4.4,4.4,0,0,1-1.612.28" transform="translate(-296.443 -23.02)" fill="#1f76fb"/>
        <path id="Path_83226" data-name="Path 83226" d="M486.986,38.418a1.248,1.248,0,0,0-.282-.862,1.2,1.2,0,0,0-.932-.316,1.626,1.626,0,0,0-.983.266,2.707,2.707,0,0,0-.607.611L482.909,37a3.347,3.347,0,0,1,1.149-1.056,3.881,3.881,0,0,1,1.872-.38,3.543,3.543,0,0,1,2.385.7,2.574,2.574,0,0,1,.81,2.054v5.373h-2.14Z" transform="translate(-311.559 -23.02)" fill="#1f76fb"/>
        <path id="Path_83227" data-name="Path 83227" d="M507.088,43.385a2.8,2.8,0,0,1-1.843-.567,2.172,2.172,0,0,1-.687-1.775,2.281,2.281,0,0,1,.651-1.738,2.626,2.626,0,0,1,1.879-.618h2.386V38.27a1.485,1.485,0,0,0-.383-1.1,1.727,1.727,0,0,0-1.251-.381,2.345,2.345,0,0,0-1.316.366,2.545,2.545,0,0,0-.463.373,3.443,3.443,0,0,0-.361.439l-1.359-1.178a4.013,4.013,0,0,1,1.388-1.229,4.766,4.766,0,0,1,2.255-.452,4.476,4.476,0,0,1,2.415.575,1.03,1.03,0,0,1,.426-.618,1.425,1.425,0,0,1,.788-.2h1.59v1.753h-1.909v.057a3.3,3.3,0,0,1,.318,1.523v5.043h-2.14v-3.2h-1.619q-1.127,0-1.128.919V41.2a1.043,1.043,0,0,0,.232.711.85.85,0,0,0,.679.266h.174a.542.542,0,0,0,.174-.029l.145,1.135a1.022,1.022,0,0,1-.2.05,2.215,2.215,0,0,1-.275.029l-.3.014c-.1,0-.191.007-.268.007" transform="translate(-325.386 -22.571)" fill="#1f76fb"/>
        <path id="Path_83228" data-name="Path 83228" d="M534.129,38.418a1.248,1.248,0,0,0-.282-.862,1.2,1.2,0,0,0-.933-.316,1.626,1.626,0,0,0-.983.266,2.707,2.707,0,0,0-.607.611L530.052,37a3.348,3.348,0,0,1,1.149-1.056,3.882,3.882,0,0,1,1.872-.38,3.544,3.544,0,0,1,2.385.7,2.574,2.574,0,0,1,.81,2.054v5.373h-2.14Z" transform="translate(-341.974 -23.02)" fill="#1f76fb"/>
        <path id="Path_83229" data-name="Path 83229" d="M554.23,43.385a2.8,2.8,0,0,1-1.843-.567,2.171,2.171,0,0,1-.687-1.775,2.281,2.281,0,0,1,.651-1.738,2.626,2.626,0,0,1,1.879-.618h2.385V38.27a1.485,1.485,0,0,0-.383-1.1,1.726,1.726,0,0,0-1.251-.381,2.345,2.345,0,0,0-1.316.366,2.543,2.543,0,0,0-.463.373,3.432,3.432,0,0,0-.361.439l-1.359-1.178a4.013,4.013,0,0,1,1.388-1.229,4.767,4.767,0,0,1,2.255-.452,4.475,4.475,0,0,1,2.414.575,1.03,1.03,0,0,1,.426-.618,1.425,1.425,0,0,1,.788-.2h1.59v1.753h-1.909v.057a3.3,3.3,0,0,1,.318,1.523v5.043h-2.14v-3.2H555q-1.127,0-1.128.919V41.2a1.044,1.044,0,0,0,.232.711.85.85,0,0,0,.679.266h.173a.543.543,0,0,0,.174-.029l.145,1.135a1.025,1.025,0,0,1-.2.05,2.215,2.215,0,0,1-.275.029l-.3.014c-.1,0-.19.007-.267.007" transform="translate(-355.8 -22.571)" fill="#1f76fb"/>
        <path id="Path_83230" data-name="Path 83230" d="M583.47,44.179a2.823,2.823,0,0,1-.9-.129,2.4,2.4,0,0,1-.665-.337,1.918,1.918,0,0,1-.463-.481,2.571,2.571,0,0,1-.282-.56h-.072v1.336h-2.14v-7.96h2.14v5.172a1.055,1.055,0,0,0,.13.531,1.25,1.25,0,0,0,.34.388,1.473,1.473,0,0,0,.477.237,1.846,1.846,0,0,0,.528.079,1.54,1.54,0,0,0,.672-.129.987.987,0,0,0,.412-.352,1.451,1.451,0,0,0,.2-.51,3.067,3.067,0,0,0,.058-.6V36.047h2.14v5a3.628,3.628,0,0,1-.651,2.32,2.316,2.316,0,0,1-1.923.812" transform="translate(-373.518 -23.336)" fill="#1f76fb"/>
        <path id="Path_83231" data-name="Path 83231" d="M589.989,27.414A2,2,0,0,1,588.623,27a1.549,1.549,0,0,1-.47-1.221V24.6h1.692v1.264h3.875v1.551Z" transform="translate(-379.459 -15.924)" fill="#1f76fb"/>
        <path id="Path_83232" data-name="Path 83232" d="M604.045,38.935a3.407,3.407,0,0,1,.274-1.394,3.053,3.053,0,0,1,.781-1.063,3.463,3.463,0,0,1,1.236-.682,5.8,5.8,0,0,1,3.282,0,3.466,3.466,0,0,1,1.236.682,3.05,3.05,0,0,1,.781,1.063,3.4,3.4,0,0,1,.275,1.394v4.755h-2.14V39.036a1.775,1.775,0,0,0-.477-1.329,2.086,2.086,0,0,0-2.631,0,1.777,1.777,0,0,0-.477,1.329v1.71h.072a2.345,2.345,0,0,1,.2-.611,1.874,1.874,0,0,1,.383-.524,1.79,1.79,0,0,1,.571-.366,2.047,2.047,0,0,1,.781-.137h.376V41.09h-.535a3.068,3.068,0,0,0-1.4.244.934.934,0,0,0-.455.905v1.451h-2.14Z" transform="translate(-389.712 -23.02)" fill="#1f76fb"/>
        <path id="Path_83233" data-name="Path 83233" d="M633.775,43.862a4.62,4.62,0,0,1-1.959-.374,4.343,4.343,0,0,1-1.41-1.049l1.287-1.236a3.42,3.42,0,0,0,.961.74,2.624,2.624,0,0,0,1.222.28,1.7,1.7,0,0,0,.969-.215.658.658,0,0,0,.3-.56.6.6,0,0,0-.245-.538,1.573,1.573,0,0,0-.665-.223l-.824-.1a3.713,3.713,0,0,1-2.016-.762,2.1,2.1,0,0,1-.7-1.681,2.485,2.485,0,0,1,.224-1.077,2.317,2.317,0,0,1,.636-.812,2.91,2.91,0,0,1,.983-.517,4.206,4.206,0,0,1,1.265-.179,6.237,6.237,0,0,1,1.041.079,3.95,3.95,0,0,1,.846.237,3.441,3.441,0,0,1,.7.388,5.251,5.251,0,0,1,.622.532l-1.258,1.236a2.636,2.636,0,0,0-.853-.6,2.53,2.53,0,0,0-1.056-.23,1.405,1.405,0,0,0-.867.215.679.679,0,0,0-.275.56.718.718,0,0,0,.224.553,1.409,1.409,0,0,0,.774.28l.824.115a5.611,5.611,0,0,1,1.106.259,2.719,2.719,0,0,1,.824.452,1.868,1.868,0,0,1,.52.683,2.339,2.339,0,0,1,.18.962,2.216,2.216,0,0,1-.245,1.035,2.492,2.492,0,0,1-.687.819,3.3,3.3,0,0,1-1.07.538,4.668,4.668,0,0,1-1.381.194" transform="translate(-406.72 -23.02)" fill="#1f76fb"/>
        <path id="Path_83234" data-name="Path 83234" d="M213.394,92.28a2.8,2.8,0,0,1-1.843-.567,2.171,2.171,0,0,1-.687-1.775,2.282,2.282,0,0,1,.65-1.738,2.627,2.627,0,0,1,1.879-.618h2.386v-.417a1.482,1.482,0,0,0-.383-1.1,1.725,1.725,0,0,0-1.25-.381,2.346,2.346,0,0,0-1.316.366,2.54,2.54,0,0,0-.463.373,3.457,3.457,0,0,0-.362.439l-1.359-1.178a4.017,4.017,0,0,1,1.388-1.228A4.768,4.768,0,0,1,214.29,84a4.475,4.475,0,0,1,2.415.575,1.029,1.029,0,0,1,.427-.618,1.425,1.425,0,0,1,.788-.2h1.59v1.753H217.6v.057a3.306,3.306,0,0,1,.318,1.523v5.043h-2.14v-3.2h-1.619q-1.128,0-1.128.919V90.1a1.045,1.045,0,0,0,.231.711.851.851,0,0,0,.68.266h.174a.542.542,0,0,0,.173-.029l.145,1.135a1.033,1.033,0,0,1-.2.05,2.215,2.215,0,0,1-.275.029l-.3.014c-.1,0-.19.007-.268.007" transform="translate(-135.903 -54.225)" fill="#1f76fb"/>
        <path id="Path_83235" data-name="Path 83235" d="M240.435,87.312a1.248,1.248,0,0,0-.282-.862,1.2,1.2,0,0,0-.933-.316,1.626,1.626,0,0,0-.983.266,2.709,2.709,0,0,0-.608.611l-1.272-1.121a3.344,3.344,0,0,1,1.149-1.056,3.881,3.881,0,0,1,1.872-.38,3.545,3.545,0,0,1,2.386.7,2.575,2.575,0,0,1,.809,2.054v5.373h-2.14Z" transform="translate(-152.491 -54.674)" fill="#1f76fb"/>
        <path id="Path_83236" data-name="Path 83236" d="M258.545,89.568h1.908V91h2.762V89.912a.968.968,0,0,0-.282-.79,1.794,1.794,0,0,0-.961-.287l-3.571-.287V87.384a2.684,2.684,0,0,1,.9-2.162,3.971,3.971,0,0,1,2.638-.769,5.539,5.539,0,0,1,1.945.3,4.492,4.492,0,0,1,1.381.8l-1.012,1.365a2.724,2.724,0,0,0-1.019-.6,4.251,4.251,0,0,0-1.439-.23,1.853,1.853,0,0,0-1.113.287.9.9,0,0,0-.39.761l1.952.173a9.5,9.5,0,0,1,1.3.208,2.641,2.641,0,0,1,.947.417,1.766,1.766,0,0,1,.578.718,2.71,2.71,0,0,1,.2,1.1v.761a1.848,1.848,0,0,1-2.111,2.069h-4.612Z" transform="translate(-166.713 -54.674)" fill="#1f76fb"/>
        <path id="Path_83237" data-name="Path 83237" d="M284.359,87.312a1.248,1.248,0,0,0-.282-.862,1.2,1.2,0,0,0-.933-.316,1.627,1.627,0,0,0-.983.266,2.707,2.707,0,0,0-.607.611l-1.272-1.121a3.347,3.347,0,0,1,1.149-1.056,3.881,3.881,0,0,1,1.872-.38,3.543,3.543,0,0,1,2.385.7,2.574,2.574,0,0,1,.81,2.054v5.373h-2.14Z" transform="translate(-180.83 -54.674)" fill="#1f76fb"/>
        <path id="Path_83238" data-name="Path 83238" d="M305.368,92.757a4.622,4.622,0,0,1-1.959-.374A4.344,4.344,0,0,1,302,91.335l1.287-1.236a3.42,3.42,0,0,0,.961.74,2.623,2.623,0,0,0,1.221.28,1.7,1.7,0,0,0,.969-.215.658.658,0,0,0,.3-.56.6.6,0,0,0-.246-.538,1.573,1.573,0,0,0-.665-.223l-.824-.1a3.713,3.713,0,0,1-2.016-.762,2.1,2.1,0,0,1-.7-1.681,2.486,2.486,0,0,1,.224-1.077,2.319,2.319,0,0,1,.636-.812,2.909,2.909,0,0,1,.983-.517,4.205,4.205,0,0,1,1.265-.179,6.239,6.239,0,0,1,1.041.079,3.948,3.948,0,0,1,.846.237,3.437,3.437,0,0,1,.7.388,5.245,5.245,0,0,1,.622.532l-1.258,1.236a2.636,2.636,0,0,0-.853-.6,2.529,2.529,0,0,0-1.056-.23,1.406,1.406,0,0,0-.868.215.68.68,0,0,0-.275.56.718.718,0,0,0,.224.553,1.41,1.41,0,0,0,.774.28l.824.115a5.609,5.609,0,0,1,1.106.259,2.721,2.721,0,0,1,.824.452,1.868,1.868,0,0,1,.52.683,2.338,2.338,0,0,1,.181.962,2.214,2.214,0,0,1-.246,1.035,2.492,2.492,0,0,1-.687.819,3.3,3.3,0,0,1-1.069.538,4.667,4.667,0,0,1-1.381.194" transform="translate(-194.841 -54.674)" fill="#1f76fb"/>
        <path id="Path_83239" data-name="Path 83239" d="M331.795,92.757a2.054,2.054,0,0,1-1.742-.79,3.8,3.8,0,0,1-.629-2.256V88.088a2.328,2.328,0,0,0-.39-1.451,1.547,1.547,0,0,0-1.3-.5,2,2,0,0,0-1.1.287,1.744,1.744,0,0,0-.65.7l.521.2a1.559,1.559,0,0,1,.708.459,1.319,1.319,0,0,1,.188.776v2.371h.708v1.652h-.723a2.153,2.153,0,0,1-1.612-.532,2.125,2.125,0,0,1-.513-1.537V88.4L324,87.9a3.974,3.974,0,0,1,.362-1.429,3.42,3.42,0,0,1,.8-1.085,3.5,3.5,0,0,1,1.156-.69,4.2,4.2,0,0,1,1.46-.244,4.743,4.743,0,0,1,1.634.259,3.378,3.378,0,0,1,1.186.711,3,3,0,0,1,.723,1.063,3.533,3.533,0,0,1,.246,1.329v1.624a3.574,3.574,0,0,0,.05.618,1.554,1.554,0,0,0,.174.5.916.916,0,0,0,.347.344,1.129,1.129,0,0,0,.571.129,1.393,1.393,0,0,0,.889-.316,1.105,1.105,0,0,0,.4-.92V84.625h2.14v6.307h.708v1.652h-1.287q-1.287,0-1.33-1.48h-.1a3.27,3.27,0,0,1-.3.625,2.067,2.067,0,0,1-.463.524,2.193,2.193,0,0,1-.673.366,2.709,2.709,0,0,1-.9.137" transform="translate(-209.036 -54.674)" fill="#1f76fb"/>
        <path id="Path_83240" data-name="Path 83240" d="M365.7,92.28a2.8,2.8,0,0,1-1.843-.567,2.171,2.171,0,0,1-.687-1.775,2.281,2.281,0,0,1,.651-1.738,2.627,2.627,0,0,1,1.88-.618h2.385v-.417a1.485,1.485,0,0,0-.383-1.1,1.726,1.726,0,0,0-1.251-.381,2.346,2.346,0,0,0-1.316.366,2.544,2.544,0,0,0-.463.373,3.422,3.422,0,0,0-.361.439l-1.359-1.178a4.013,4.013,0,0,1,1.388-1.228A4.767,4.767,0,0,1,366.6,84a4.476,4.476,0,0,1,2.415.575,1.029,1.029,0,0,1,.426-.618,1.425,1.425,0,0,1,.788-.2h1.59v1.753h-1.909v.057a3.3,3.3,0,0,1,.318,1.523v5.043h-2.14v-3.2h-1.619q-1.127,0-1.128.919V90.1a1.044,1.044,0,0,0,.232.711.85.85,0,0,0,.679.266h.173a.541.541,0,0,0,.173-.029l.145,1.135a1.024,1.024,0,0,1-.2.05,2.218,2.218,0,0,1-.275.029l-.3.014c-.1,0-.19.007-.268.007" transform="translate(-234.168 -54.225)" fill="#1f76fb"/>
        <path id="Path_83241" data-name="Path 83241" d="M376.651,113.117h-1.026v-1.365h1.432a1.455,1.455,0,0,1,1.034.3,1.09,1.09,0,0,1,.311.819v2.413h-1.75Z" transform="translate(-242.342 -72.347)" fill="#1f76fb"/>
        <path id="Path_83242" data-name="Path 83242" d="M393.2,93.074a5.354,5.354,0,0,1-1.4-.172,2.935,2.935,0,0,1-1.084-.532,2.433,2.433,0,0,1-.694-.891,2.988,2.988,0,0,1-.246-1.264,3.728,3.728,0,0,1,.058-.7,3.149,3.149,0,0,1,.152-.546,2.577,2.577,0,0,1,.209-.431q.115-.187.217-.345a4.352,4.352,0,0,0,.354-.682,1.885,1.885,0,0,0,.152-.726v-.1h-1.229V84.942h1.6a1.9,1.9,0,0,1,1.258.366,1.224,1.224,0,0,1,.434.984v.057a3.262,3.262,0,0,1-.116.848,5.25,5.25,0,0,1-.39.977q-.2.4-.34.74a2.327,2.327,0,0,0-.138.869v.388a1.164,1.164,0,0,0,.3.854,1.14,1.14,0,0,0,.853.309,1.2,1.2,0,0,0,.861-.294,1.1,1.1,0,0,0,.311-.84V84.942h2.1v4.942a3.17,3.17,0,0,1-.846,2.342,3.211,3.211,0,0,1-2.378.848" transform="translate(-251.413 -54.99)" fill="#1f76fb"/>
        <path id="Path_83243" data-name="Path 83243" d="M416.572,92.757a3.6,3.6,0,0,1-2.776-1.042,4.469,4.469,0,0,1-.969-3.139,5.949,5.949,0,0,1,.644-3.075,2.1,2.1,0,0,1,1.915-1.049,1.595,1.595,0,0,1,1.706,1.437h.1a1.59,1.59,0,0,1,.622-1.063,2.111,2.111,0,0,1,1.287-.373,1.891,1.891,0,0,1,1.468.611,2.436,2.436,0,0,1,.556,1.7v5.819h-2.14V87.068a1.084,1.084,0,0,0-.159-.646.509.509,0,0,0-.434-.215.494.494,0,0,0-.477.287,2.314,2.314,0,0,0-.2.748h-1.272a2.649,2.649,0,0,0-.188-.748.466.466,0,0,0-.463-.287.571.571,0,0,0-.557.388,3.009,3.009,0,0,0-.166,1.135v1.566a2.66,2.66,0,0,0,.087.7,1.252,1.252,0,0,0,.3.538,1.368,1.368,0,0,0,.556.345,2.705,2.705,0,0,0,.882.122,2.149,2.149,0,0,0,.492-.057l.246,1.7a2.064,2.064,0,0,1-.477.086q-.318.029-.578.029" transform="translate(-266.344 -54.674)" fill="#1f76fb"/>
        <rect id="Rectangle_147770" data-name="Rectangle 147770" width="1.937" height="2.974" transform="translate(152.757 25.756)" fill="#1f76fb"/>
        <path id="Path_83244" data-name="Path 83244" d="M443.469,87.312a1.248,1.248,0,0,0-.282-.862,1.2,1.2,0,0,0-.932-.316,1.628,1.628,0,0,0-.983.266,2.709,2.709,0,0,0-.607.611l-1.272-1.121a3.349,3.349,0,0,1,1.15-1.056,3.879,3.879,0,0,1,1.872-.38,3.543,3.543,0,0,1,2.385.7,2.574,2.574,0,0,1,.81,2.054v5.373h-2.14Z" transform="translate(-283.483 -54.674)" fill="#1f76fb"/>
        <path id="Path_83245" data-name="Path 83245" d="M459.928,87.212h2.082l1.735,4.008h.072a.909.909,0,0,0,.8-.431,2.155,2.155,0,0,0,.289-1.207V88.261a2.071,2.071,0,0,0-.3-1.207.969.969,0,0,0-.839-.431h-.535V84.942h.578a3.4,3.4,0,0,1,1.4.273,2.85,2.85,0,0,1,1.041.783,3.6,3.6,0,0,1,.658,1.25,5.605,5.605,0,0,1,.232,1.674A5.771,5.771,0,0,1,466.9,90.6a3.508,3.508,0,0,1-.65,1.25,2.845,2.845,0,0,1-1.041.783,3.365,3.365,0,0,1-1.381.273h-1.4Z" transform="translate(-296.732 -54.99)" fill="#1f76fb"/>
        <path id="Path_83246" data-name="Path 83246" d="M487.024,92.757a3.756,3.756,0,0,1-1.5-.287,3.105,3.105,0,0,1-1.128-.819,3.64,3.64,0,0,1-.709-1.3,5.724,5.724,0,0,1-.246-1.745,5.07,5.07,0,0,1,.275-1.717,3.643,3.643,0,0,1,.788-1.307,3.513,3.513,0,0,1,1.236-.833,4.261,4.261,0,0,1,1.619-.294,4.766,4.766,0,0,1,1.547.237,3.282,3.282,0,0,1,1.178.683,3.069,3.069,0,0,1,.751,1.077,3.616,3.616,0,0,1,.268,1.422v4.713h-2.14V87.973a1.979,1.979,0,0,0-.427-1.358,1.51,1.51,0,0,0-1.193-.481,1.529,1.529,0,0,0-1.221.51,2.1,2.1,0,0,0-.441,1.415v1.063q0,1.954,1.59,1.954c.1,0,.181,0,.253-.007a1.238,1.238,0,0,0,.224-.036l.246,1.638a2.472,2.472,0,0,1-.506.072c-.193.009-.347.014-.463.014" transform="translate(-311.901 -54.674)" fill="#1f76fb"/>
        <path id="Path_83247" data-name="Path 83247" d="M496.435,72.646h.911v-.489a.482.482,0,0,0-.108-.352.645.645,0,0,0-.441-.108h-.362V70.232h1.2a1.732,1.732,0,0,1,1.1.309,1.015,1.015,0,0,1,.39.841,1.113,1.113,0,0,1-.224.668,1.473,1.473,0,0,1-.614.481v.115h2.689v1.465h-4.54Z" transform="translate(-320.285 -45.467)" fill="#1f76fb"/>
        <path id="Path_83248" data-name="Path 83248" d="M512.289,87.312a1.248,1.248,0,0,0-.282-.862,1.2,1.2,0,0,0-.933-.316,1.626,1.626,0,0,0-.983.266,2.708,2.708,0,0,0-.608.611l-1.272-1.121a3.348,3.348,0,0,1,1.149-1.056,3.881,3.881,0,0,1,1.872-.38,3.543,3.543,0,0,1,2.386.7,2.574,2.574,0,0,1,.81,2.054v5.373h-2.14Z" transform="translate(-327.883 -54.674)" fill="#1f76fb"/>
        <path id="Path_83249" data-name="Path 83249" d="M532.206,92.757a4.873,4.873,0,0,1-1.258-.158,3.23,3.23,0,0,1-1.056-.489l.8-1.494a4.491,4.491,0,0,0,.578.309,2,2,0,0,0,.824.151,1.233,1.233,0,0,0,1.048-.467,2.031,2.031,0,0,0,.354-1.257v-1.48a2.091,2.091,0,0,0-.347-1.264,1.2,1.2,0,0,0-1.041-.474,1.4,1.4,0,0,0-.983.33,1.574,1.574,0,0,0-.477.8l-1.735-.747A3,3,0,0,1,530.117,85a3.776,3.776,0,0,1,2.089-.546,3.669,3.669,0,0,1,1.511.294,3.028,3.028,0,0,1,1.106.833,3.683,3.683,0,0,1,.679,1.3,5.867,5.867,0,0,1,.231,1.71,6.013,6.013,0,0,1-.231,1.724,3.667,3.667,0,0,1-.679,1.315,3.024,3.024,0,0,1-1.106.833,3.664,3.664,0,0,1-1.511.295" transform="translate(-341.237 -54.674)" fill="#1f76fb"/>
        <path id="Path_83250" data-name="Path 83250" d="M560.854,82.985a10.045,10.045,0,0,1,.2-2,10.257,10.257,0,0,1,.528-1.789,7.776,7.776,0,0,1,.8-1.5,5.947,5.947,0,0,1,1.012-1.15h2.01a7.747,7.747,0,0,0-1.844,2.593,8.186,8.186,0,0,0-.672,3.355V83.5a8.139,8.139,0,0,0,.679,3.405,7.678,7.678,0,0,0,1.836,2.543H563.37a5.693,5.693,0,0,1-.984-1.121,7.9,7.9,0,0,1-.8-1.516,10.262,10.262,0,0,1-.73-3.829" transform="translate(-361.846 -49.556)" fill="#1f76fb"/>
        <path id="Path_83251" data-name="Path 83251" d="M578.257,92.757a4.619,4.619,0,0,1-1.417-.208,3.562,3.562,0,0,1-1.12-.575,2.71,2.71,0,0,1-.738-.869A2.321,2.321,0,0,1,574.715,90v-.7a1.306,1.306,0,0,1,.325-.934,1.281,1.281,0,0,1,.976-.344h1.735v1.566h-1.113v.23a1.172,1.172,0,0,0,.434.984,2.017,2.017,0,0,0,1.258.338,1.369,1.369,0,0,0,1.135-.5,2.109,2.109,0,0,0,.4-1.357V87.959a1.861,1.861,0,0,0-.462-1.343,1.722,1.722,0,0,0-1.3-.481,2.782,2.782,0,0,0-.759.1,2.968,2.968,0,0,0-.636.258,2.588,2.588,0,0,0-.491.352,2.143,2.143,0,0,0-.325.366l-1.3-1.149a3.5,3.5,0,0,1,1.352-1.142,4.868,4.868,0,0,1,2.248-.467,4.556,4.556,0,0,1,1.641.28,3.286,3.286,0,0,1,1.236.819,3.625,3.625,0,0,1,.773,1.307,5.3,5.3,0,0,1,.268,1.746,5.415,5.415,0,0,1-.261,1.745,3.589,3.589,0,0,1-.759,1.308,3.236,3.236,0,0,1-1.214.819,4.4,4.4,0,0,1-1.612.28" transform="translate(-370.705 -54.674)" fill="#1f76fb"/>
        <path id="Path_83252" data-name="Path 83252" d="M601.495,92.28a2.8,2.8,0,0,1-1.843-.567,2.171,2.171,0,0,1-.687-1.775,2.281,2.281,0,0,1,.651-1.738,2.626,2.626,0,0,1,1.88-.618h2.385v-.417a1.486,1.486,0,0,0-.383-1.1,1.727,1.727,0,0,0-1.251-.381,2.345,2.345,0,0,0-1.316.366,2.542,2.542,0,0,0-.463.373,3.432,3.432,0,0,0-.361.439l-1.359-1.178a4.011,4.011,0,0,1,1.388-1.228A4.768,4.768,0,0,1,602.391,84a4.475,4.475,0,0,1,2.414.575,1.029,1.029,0,0,1,.426-.618,1.425,1.425,0,0,1,.788-.2h1.59v1.753H605.7v.057a3.3,3.3,0,0,1,.318,1.523v5.043h-2.14v-3.2h-1.619q-1.127,0-1.128.919V90.1a1.044,1.044,0,0,0,.232.711.85.85,0,0,0,.679.266h.173a.543.543,0,0,0,.174-.029l.145,1.135a1.023,1.023,0,0,1-.2.05,2.213,2.213,0,0,1-.275.029l-.3.014c-.1,0-.191.007-.268.007" transform="translate(-386.294 -54.225)" fill="#1f76fb"/>
        <path id="Path_83253" data-name="Path 83253" d="M628.772,92.757A3.6,3.6,0,0,1,626,91.716a4.469,4.469,0,0,1-.969-3.139,5.95,5.95,0,0,1,.644-3.075,2.1,2.1,0,0,1,1.915-1.049,1.595,1.595,0,0,1,1.706,1.437h.1a1.59,1.59,0,0,1,.622-1.063,2.111,2.111,0,0,1,1.287-.373,1.891,1.891,0,0,1,1.468.611,2.436,2.436,0,0,1,.556,1.7v5.819h-2.14V87.068a1.085,1.085,0,0,0-.159-.646.51.51,0,0,0-.434-.215.494.494,0,0,0-.477.287,2.321,2.321,0,0,0-.2.748h-1.272a2.643,2.643,0,0,0-.188-.748.466.466,0,0,0-.463-.287.571.571,0,0,0-.557.388,3,3,0,0,0-.166,1.135v1.566a2.665,2.665,0,0,0,.087.7,1.253,1.253,0,0,0,.3.538,1.37,1.37,0,0,0,.556.345,2.7,2.7,0,0,0,.882.122,2.15,2.15,0,0,0,.492-.057l.246,1.7a2.066,2.066,0,0,1-.477.086q-.318.029-.578.029" transform="translate(-403.249 -54.674)" fill="#1f76fb"/>
        <path id="Path_83254" data-name="Path 83254" d="M654.944,103.215a1.278,1.278,0,0,1-.962-.323,1.143,1.143,0,0,1-.311-.826v-.287a1.142,1.142,0,0,1,.311-.826,1.591,1.591,0,0,1,1.923,0,1.142,1.142,0,0,1,.311.826v.287a1.143,1.143,0,0,1-.311.826,1.279,1.279,0,0,1-.961.323" transform="translate(-421.729 -65.146)" fill="#1f76fb"/>
        <path id="Path_83255" data-name="Path 83255" d="M667.543,82.985a10.284,10.284,0,0,1-.73,3.829,7.936,7.936,0,0,1-.8,1.516,5.7,5.7,0,0,1-.983,1.121H663a7.676,7.676,0,0,0,1.836-2.543,8.137,8.137,0,0,0,.68-3.405V82.5a8.182,8.182,0,0,0-.672-3.355A7.74,7.74,0,0,0,663,76.548h2.009a5.961,5.961,0,0,1,1.012,1.15,7.823,7.823,0,0,1,.8,1.5,10.246,10.246,0,0,1,.527,1.789,10.027,10.027,0,0,1,.2,2" transform="translate(-427.75 -49.556)" fill="#1f76fb"/>
        <path id="Path_83256" data-name="Path 83256" d="M35.668,14.559l-.042-.735H56.764a5.163,5.163,0,0,1,5.165,5.132V53.382H7.58V26.471c1.272.184,2.546,1.554,3.82,1.644V49.586H58.11V18.956a1.355,1.355,0,0,0-1.346-1.337H35.709l-.083-3.795M45.888,54.833a2.058,2.058,0,0,1-1.813,1.218H25.434a2.059,2.059,0,0,1-1.814-1.218H0V57.2a2.246,2.246,0,0,0,2.078,2.372H67.432A2.246,2.246,0,0,0,69.509,57.2V54.833ZM37.14,16.474A16.549,16.549,0,1,1,20.643,0a16.509,16.509,0,0,1,16.5,16.473m-23.8-1.095H19.5V10.21c-1.844.259-3.615.5-5.382.766a.506.506,0,0,0-.35.313c-.157,1.345-.283,2.692-.422,4.091m8.314,7.268c1.537-.185,2.995-.338,4.445-.541,1.3-.182,1.325-.2,1.469-1.487.115-1.024.159-2.056.236-3.091h-6.15Zm-8.314-5.137c.137,1.4.253,2.728.418,4.053.019.151.3.348.488.387.768.159,1.544.293,2.323.384.97.113,1.946.174,2.938.26V17.511Zm8.326-2.133H27.8c-.065-.935-.115-1.828-.192-2.719-.142-1.632-.148-1.632-1.786-1.925-.02,0-.039-.011-.059-.013l-4.093-.455ZM21.68,24.7v6.171c1.09-.233,2.112-.433,3.121-.687a.815.815,0,0,0,.435-.495c.539-1.61,1.053-3.229,1.566-4.849a6.575,6.575,0,0,0,.147-.706L21.68,24.7m-7.5-15.923,5.327-.58V2.066c-.883.158-1.708.313-2.536.452a1.341,1.341,0,0,0-1.2,1.064c-.187.694-.5,1.354-.708,2.043-.313,1.029-.584,2.07-.886,3.15m.079,15.354a1.281,1.281,0,0,0,.024.287q.856,2.72,1.726,5.436c.038.119.149.279.254.3,1.064.248,2.134.472,3.235.709V24.7l-5.238-.572M21.658,8.2l5.234.561a.867.867,0,0,0,0-.244q-.879-2.746-1.772-5.487c-.039-.118-.148-.278-.252-.3-1.046-.242-2.1-.46-3.208-.7Zm6.156-4.208c.452,1.75.877,3.433,1.333,5.108.039.145.258.287.424.345,1.349.471,2.7.922,4.059,1.377a2.24,2.24,0,0,0,.306.051,14.62,14.62,0,0,0-6.122-6.881m-14.4,24.935c-.094-.319-.152-.5-.2-.69-.334-1.214-.74-2.415-.975-3.648a1.392,1.392,0,0,0-1.293-1.338,9.17,9.17,0,0,1-1.607-.51C8.665,22.5,8,22.253,7.225,21.972a14.663,14.663,0,0,0,6.189,6.952M7.251,10.869c1.4-.461,2.723-.932,4.066-1.317a.948.948,0,0,0,.821-.918,8.061,8.061,0,0,1,.3-1.284c.3-1.089.611-2.174.948-3.369a14.615,14.615,0,0,0-6.135,6.887M33.87,22.047c-1.41.465-2.776.945-4.164,1.356a.792.792,0,0,0-.62.677c-.36,1.415-.749,2.824-1.126,4.235-.043.16-.085.321-.142.534a13.851,13.851,0,0,0,6.051-6.8m1.084-6.666A.928.928,0,0,0,35,15.223a1.931,1.931,0,0,0-1.473-2.237c-1.316-.386-2.578-.956-3.941-1.476.11,1.383.207,2.611.307,3.872Zm-23.372-3.9c-1.713.7-3.344,1.36-4.968,2.036a.47.47,0,0,0-.235.306c-.092.5-.152,1.012-.234,1.592,1.692,0,3.3.005,4.9-.013a.418.418,0,0,0,.282-.29c.1-1.15.165-2.3.254-3.63m-5.437,6c.083.588.144,1.1.236,1.6a.47.47,0,0,0,.235.307c1.625.675,3.256,1.336,4.985,2.04-.086-1.1-.17-2.009-.225-2.922-.072-1.192.094-1.014-1.055-1.023-1.363-.01-2.727,0-4.175,0m28.89.04H29.893c-.1,1.266-.189,2.5-.3,3.916,1.743-.716,3.377-1.383,5-2.066a.477.477,0,0,0,.213-.323c.087-.488.145-.981.221-1.526" transform="translate(0 0)" fill="#1f76fb"/>
        <path id="Path_83257" data-name="Path 83257" d="M121.208,73.193a2.614,2.614,0,0,1-2.624-2.6l-12.914.01a2.615,2.615,0,0,1-2.621,2.608l.005,6.743a11.5,11.5,0,0,0,5.847,9.991l3.278,1.857,3.237-1.855a11.5,11.5,0,0,0,5.8-9.98ZM117.228,81.3H113.4v3.8h-2.547V81.3h-3.824V78.769h3.824v-3.8H113.4v3.8h3.824Z" transform="translate(-66.484 -45.698)" fill="#1f76fb"/>
      </g>
    </g>
  </g>
</svg>
