<svg id="Group_162549" data-name="Group 162549" xmlns="http://www.w3.org/2000/svg" xmlns:xlink="http://www.w3.org/1999/xlink" width="190.8" height="48" viewBox="0 0 190.8 48">
  <defs>
    <clipPath id="clip-path">
      <rect id="Rectangle_147771" data-name="Rectangle 147771" width="190.8" height="48" fill="#fff"/>
    </clipPath>
  </defs>
  <path id="Path_83203" data-name="Path 83203" d="M219.924,133.958l-2.322,4.493h-.028l-2.349-4.493h-2.212v9.59h1.965v-6.389h.041l.728,1.512,1.827,3.379,1.869-3.394.7-1.4h.041v6.293h1.965v-9.59Z" transform="translate(-152.924 -96.17)" fill="#fff"/>
  <path id="Path_83204" data-name="Path 83204" d="M261.082,133.958v3.806h-3.655v-3.806h-2.089v9.59h2.089v-3.93h3.655v3.93h2.088v-9.59Z" transform="translate(-183.31 -96.17)" fill="#fff"/>
  <path id="Path_83205" data-name="Path 83205" d="M296.469,133.958l-1.428,4.6-.728,3.009h-.041l-.755-3.009-1.429-4.6H289.97l3.091,9.59H295.4l3.119-9.59Z" transform="translate(-208.173 -96.17)" fill="#fff"/>
  <g id="Group_162550" data-name="Group 162550">
    <g id="Group_162549-2" data-name="Group 162549" clip-path="url(#clip-path)">
      <path id="Path_83206" data-name="Path 83206" d="M327.414,143.294a4.82,4.82,0,0,1-2.144-.433,4.909,4.909,0,0,1-1.5-1.122l1.374-1.39a3.1,3.1,0,0,0,2.4,1.089,1.741,1.741,0,0,0,1.14-.313,1.033,1.033,0,0,0,.371-.831,1,1,0,0,0-.22-.66,1.411,1.411,0,0,0-.893-.361l-.948-.123a3.668,3.668,0,0,1-2.233-.921,2.666,2.666,0,0,1-.708-1.94,2.789,2.789,0,0,1,.247-1.183,2.612,2.612,0,0,1,.707-.922,3.3,3.3,0,0,1,1.127-.6,4.983,4.983,0,0,1,1.518-.213,4.928,4.928,0,0,1,1.91.344,3.88,3.88,0,0,1,1.416,1l-1.388,1.4a2.789,2.789,0,0,0-.831-.646,2.67,2.67,0,0,0-1.23-.252,1.808,1.808,0,0,0-1.044.245.789.789,0,0,0-.343.68.858.858,0,0,0,.268.707,1.862,1.862,0,0,0,.873.313l.948.151a4.045,4.045,0,0,1,2.2.915,2.543,2.543,0,0,1,.715,1.933,3.179,3.179,0,0,1-.247,1.265,2.709,2.709,0,0,1-.721.99,3.32,3.32,0,0,1-1.175.639,5.174,5.174,0,0,1-1.593.227" transform="translate(-232.44 -95.751)" fill="#fff"/>
      <rect id="Rectangle_147769" data-name="Rectangle 147769" width="4.081" height="1.979" transform="translate(101.006 42.199)" fill="#fff"/>
      <path id="Path_83207" data-name="Path 83207" d="M384.93,143.294a4.586,4.586,0,0,1-1.731-.316,3.481,3.481,0,0,1-1.333-.941,4.365,4.365,0,0,1-.852-1.553,7.805,7.805,0,0,1,0-4.3,4.372,4.372,0,0,1,.852-1.553,3.491,3.491,0,0,1,1.333-.941,4.9,4.9,0,0,1,3.462,0,3.488,3.488,0,0,1,1.333.941,4.374,4.374,0,0,1,.852,1.553,7.8,7.8,0,0,1,0,4.3,4.367,4.367,0,0,1-.852,1.553,3.479,3.479,0,0,1-1.333.941,4.587,4.587,0,0,1-1.731.316m0-1.855a1.84,1.84,0,0,0,1.477-.618,2.653,2.653,0,0,0,.529-1.773v-1.429a2.652,2.652,0,0,0-.529-1.772,2.073,2.073,0,0,0-2.954,0,2.651,2.651,0,0,0-.529,1.772v1.429a2.652,2.652,0,0,0,.529,1.773,1.839,1.839,0,0,0,1.477.618" transform="translate(-273.317 -95.751)" fill="#fff"/>
      <path id="Path_83208" data-name="Path 83208" d="M422.166,139.014l-.921-1.924H421.2v6.458H419.24v-9.59h2.281l2.624,4.534.92,1.924h.041v-6.458h1.965v9.59h-2.281Z" transform="translate(-300.977 -96.17)" fill="#fff"/>
      <path id="Path_83209" data-name="Path 83209" d="M456.939,143.548v-9.59h2.088v7.736h3.655v1.855Z" transform="translate(-328.041 -96.17)" fill="#fff"/>
      <path id="Path_83210" data-name="Path 83210" d="M483.875,143.548v-1.663h1.237v-6.265h-1.237v-1.663h4.562v1.663H487.2v6.265h1.237v1.663Z" transform="translate(-347.379 -96.17)" fill="#fff"/>
      <path id="Path_83211" data-name="Path 83211" d="M511.593,139.014l-.921-1.924h-.041v6.458h-1.965v-9.59h2.281l2.624,4.534.92,1.924h.041v-6.458H516.5v9.59h-2.281Z" transform="translate(-365.177 -96.17)" fill="#fff"/>
      <path id="Path_83212" data-name="Path 83212" d="M546.366,143.548v-9.59h6.526v1.855h-4.438v1.951h3.806v1.855h-3.806v2.075h4.438v1.855Z" transform="translate(-392.242 -96.17)" fill="#fff"/>
      <path id="Path_83213" data-name="Path 83213" d="M212.073,36.047h1.7v1.77l1.46-.2a.71.71,0,0,0,.477-.224,1.167,1.167,0,0,0,.19-.592l.081-.759h1.758l-.08.816a1.507,1.507,0,0,1-.414.9,1.54,1.54,0,0,1-1.023.431v.057a1.37,1.37,0,0,1,.7.3,1.771,1.771,0,0,1,.42.534,2.387,2.387,0,0,1,.218.638q.063.333.086.6l.2,2.092H216.1l-.173-2.207a1.586,1.586,0,0,0-.31-.914.773.773,0,0,0-.735-.259l-1.1.138v3.241h-1.7Z" transform="translate(-152.249 -25.879)" fill="#fff"/>
      <path id="Path_83214" data-name="Path 83214" d="M238.134,42.178a2.22,2.22,0,0,1-1.465-.454,1.743,1.743,0,0,1-.546-1.42,1.832,1.832,0,0,1,.517-1.39,2.08,2.08,0,0,1,1.494-.494h1.9v-.333a1.19,1.19,0,0,0-.3-.879,1.366,1.366,0,0,0-.994-.3,1.856,1.856,0,0,0-1.046.293,2.023,2.023,0,0,0-.368.3,2.766,2.766,0,0,0-.287.351l-1.08-.943a3.2,3.2,0,0,1,1.1-.983,3.77,3.77,0,0,1,1.793-.362,3.225,3.225,0,0,1,2.161.627,2.307,2.307,0,0,1,.724,1.845v4.034h-1.7V39.5h-1.287q-.9,0-.9.735v.2a.839.839,0,0,0,.184.569.675.675,0,0,0,.54.212h.138a.428.428,0,0,0,.138-.023l.115.908a.816.816,0,0,1-.155.04,1.753,1.753,0,0,1-.219.023l-.241.011c-.08,0-.151.006-.213.006" transform="translate(-169.391 -25.527)" fill="#fff"/>
      <path id="Path_83215" data-name="Path 83215" d="M247.108,26.851a1.581,1.581,0,0,1-1.086-.333,1.242,1.242,0,0,1-.374-.977V24.6h1.345V25.61h3.08v1.241Z" transform="translate(-176.353 -17.659)" fill="#fff"/>
      <path id="Path_83216" data-name="Path 83216" d="M261.193,38.72l-1-.4a2.984,2.984,0,0,1,.3-1.143,2.718,2.718,0,0,1,.684-.868,3.084,3.084,0,0,1,1.006-.552,3.959,3.959,0,0,1,1.27-.2,3.9,3.9,0,0,1,1.259.19,2.708,2.708,0,0,1,.948.54,2.39,2.39,0,0,1,.6.851,2.811,2.811,0,0,1,.213,1.109v3.816h-1.7v-3.6a1.655,1.655,0,0,0-.373-1.15,1.4,1.4,0,0,0-1.1-.414,1.859,1.859,0,0,0-.948.23,1.468,1.468,0,0,0-.581.575l.4.149a1.239,1.239,0,0,1,.563.368,1.06,1.06,0,0,1,.149.621v3.218h-1.7Z" transform="translate(-186.795 -25.528)" fill="#fff"/>
      <path id="Path_83217" data-name="Path 83217" d="M288.578,41.681a2.219,2.219,0,0,1-1.465-.454,1.743,1.743,0,0,1-.546-1.42,1.831,1.831,0,0,1,.517-1.39,2.08,2.08,0,0,1,1.494-.494h1.9v-.333a1.193,1.193,0,0,0-.3-.879,1.367,1.367,0,0,0-.994-.3,1.856,1.856,0,0,0-1.046.293,2.023,2.023,0,0,0-.368.3,2.73,2.73,0,0,0-.287.351l-1.08-.943a3.2,3.2,0,0,1,1.1-.983,3.77,3.77,0,0,1,1.793-.362,3.543,3.543,0,0,1,1.92.46.822.822,0,0,1,.339-.495,1.127,1.127,0,0,1,.626-.161h1.265v1.4h-1.517v.046a2.653,2.653,0,0,1,.253,1.218v4.034h-1.7V39h-1.287q-.9,0-.9.735v.2a.838.838,0,0,0,.184.569.674.674,0,0,0,.54.212h.138a.429.429,0,0,0,.138-.023l.115.908a.811.811,0,0,1-.155.04,1.753,1.753,0,0,1-.219.023l-.241.011c-.08,0-.152.006-.213.006" transform="translate(-205.605 -25.03)" fill="#fff"/>
      <path id="Path_83218" data-name="Path 83218" d="M293.584,65.777a2.749,2.749,0,0,1-.833-.109,1.382,1.382,0,0,1-.546-.31,1.185,1.185,0,0,1-.3-.471,1.869,1.869,0,0,1-.092-.6v-.333h-.736V62.857h.908a1.233,1.233,0,0,1,.822.219.742.742,0,0,1,.247.586v.379q0,.643.54.643a.521.521,0,0,0,.425-.155.769.769,0,0,0,.126-.488V62.857h1.391V63.9a1.926,1.926,0,0,1-.477,1.351,1.9,1.9,0,0,1-1.477.523" transform="translate(-208.968 -45.126)" fill="#fff"/>
      <path id="Path_83219" data-name="Path 83219" d="M315.651,42.2a2.855,2.855,0,0,1-2.207-.833,3.59,3.59,0,0,1-.77-2.511,4.784,4.784,0,0,1,.512-2.46,1.67,1.67,0,0,1,1.523-.839,1.27,1.27,0,0,1,1.356,1.149h.08a1.273,1.273,0,0,1,.494-.851,1.671,1.671,0,0,1,1.023-.3,1.5,1.5,0,0,1,1.167.489,1.957,1.957,0,0,1,.442,1.362v4.655h-1.7V37.65a.872.872,0,0,0-.127-.517.4.4,0,0,0-.345-.172.393.393,0,0,0-.379.23,1.861,1.861,0,0,0-.161.6h-1.011a2.128,2.128,0,0,0-.15-.6.371.371,0,0,0-.368-.23.454.454,0,0,0-.443.31,2.419,2.419,0,0,0-.132.908v1.253a2.142,2.142,0,0,0,.069.563,1,1,0,0,0,.236.431,1.087,1.087,0,0,0,.442.276,2.138,2.138,0,0,0,.7.1,1.7,1.7,0,0,0,.391-.046l.2,1.356a1.631,1.631,0,0,1-.379.069q-.253.023-.46.023" transform="translate(-224.472 -25.527)" fill="#fff"/>
      <path id="Path_83220" data-name="Path 83220" d="M342.938,42.2a3.654,3.654,0,0,1-1.557-.3,3.455,3.455,0,0,1-1.12-.839l1.023-.988a2.721,2.721,0,0,0,.764.592,2.074,2.074,0,0,0,.971.224,1.347,1.347,0,0,0,.77-.172.528.528,0,0,0,.241-.448.482.482,0,0,0-.2-.431,1.244,1.244,0,0,0-.529-.178l-.655-.08a2.941,2.941,0,0,1-1.6-.609,1.683,1.683,0,0,1-.558-1.345,2,2,0,0,1,.178-.862,1.854,1.854,0,0,1,.506-.65,2.309,2.309,0,0,1,.782-.414,3.324,3.324,0,0,1,1.006-.144,4.93,4.93,0,0,1,.828.063,3.126,3.126,0,0,1,.672.19,2.727,2.727,0,0,1,.557.31,4.163,4.163,0,0,1,.494.425l-1,.988a2.1,2.1,0,0,0-.678-.483,2,2,0,0,0-.839-.184,1.113,1.113,0,0,0-.69.172.545.545,0,0,0-.218.448.576.576,0,0,0,.178.442,1.116,1.116,0,0,0,.615.224l.655.092a4.437,4.437,0,0,1,.879.207,2.158,2.158,0,0,1,.655.362,1.493,1.493,0,0,1,.414.546,1.88,1.88,0,0,1,.144.77,1.781,1.781,0,0,1-.2.828,1.992,1.992,0,0,1-.546.655,2.615,2.615,0,0,1-.85.431,3.689,3.689,0,0,1-1.1.155" transform="translate(-244.276 -25.527)" fill="#fff"/>
      <path id="Path_83221" data-name="Path 83221" d="M365.465,42.2a3.651,3.651,0,0,1-1.126-.167,2.827,2.827,0,0,1-.891-.46,2.166,2.166,0,0,1-.586-.7,1.866,1.866,0,0,1-.212-.885v-.563a1.048,1.048,0,0,1,.259-.747,1.015,1.015,0,0,1,.776-.276h1.379v1.253h-.885v.184a.941.941,0,0,0,.345.788,1.6,1.6,0,0,0,1,.27,1.086,1.086,0,0,0,.9-.4,1.7,1.7,0,0,0,.316-1.086V38.363a1.494,1.494,0,0,0-.368-1.075,1.364,1.364,0,0,0-1.034-.385,2.2,2.2,0,0,0-.6.08,2.349,2.349,0,0,0-.506.207,2.06,2.06,0,0,0-.391.282,1.715,1.715,0,0,0-.259.293l-1.034-.919a2.789,2.789,0,0,1,1.075-.914,3.849,3.849,0,0,1,1.787-.373,3.6,3.6,0,0,1,1.3.224,2.61,2.61,0,0,1,.983.655,2.909,2.909,0,0,1,.615,1.046,4.266,4.266,0,0,1,.213,1.4,4.358,4.358,0,0,1-.207,1.4,2.878,2.878,0,0,1-.6,1.046,2.572,2.572,0,0,1-.965.655,3.477,3.477,0,0,1-1.282.224" transform="translate(-260.276 -25.527)" fill="#fff"/>
      <path id="Path_83222" data-name="Path 83222" d="M390.741,42.553a3.629,3.629,0,0,1-1.2-.184,2.576,2.576,0,0,1-.9-.517,2.2,2.2,0,0,1-.563-.816,2.821,2.821,0,0,1-.2-1.069V36.047h1.7v3.839a1.427,1.427,0,0,0,.3.977,1.068,1.068,0,0,0,.845.345,1.052,1.052,0,0,0,.839-.345,1.446,1.446,0,0,0,.3-.977V36.047h1.7v3.919a2.822,2.822,0,0,1-.2,1.069,2.2,2.2,0,0,1-.563.816,2.579,2.579,0,0,1-.9.517,3.591,3.591,0,0,1-1.184.184" transform="translate(-278.471 -25.879)" fill="#fff"/>
      <path id="Path_83223" data-name="Path 83223" d="M414.935,42.2a3.654,3.654,0,0,1-1.557-.3,3.456,3.456,0,0,1-1.121-.839l1.023-.988a2.722,2.722,0,0,0,.764.592,2.074,2.074,0,0,0,.971.224,1.347,1.347,0,0,0,.77-.172.527.527,0,0,0,.241-.448.482.482,0,0,0-.2-.431,1.244,1.244,0,0,0-.529-.178l-.655-.08a2.941,2.941,0,0,1-1.6-.609,1.683,1.683,0,0,1-.558-1.345,2,2,0,0,1,.178-.862,1.853,1.853,0,0,1,.506-.65,2.309,2.309,0,0,1,.782-.414,3.324,3.324,0,0,1,1.006-.144,4.93,4.93,0,0,1,.828.063,3.124,3.124,0,0,1,.672.19,2.727,2.727,0,0,1,.557.31,4.178,4.178,0,0,1,.494.425l-1,.988a2.1,2.1,0,0,0-.678-.483,2,2,0,0,0-.839-.184,1.113,1.113,0,0,0-.69.172.545.545,0,0,0-.218.448.576.576,0,0,0,.178.442,1.117,1.117,0,0,0,.615.224l.655.092a4.435,4.435,0,0,1,.879.207,2.158,2.158,0,0,1,.655.362,1.492,1.492,0,0,1,.414.546,1.881,1.881,0,0,1,.144.77,1.782,1.782,0,0,1-.2.828,1.991,1.991,0,0,1-.546.655,2.615,2.615,0,0,1-.85.431,3.689,3.689,0,0,1-1.1.155" transform="translate(-295.964 -25.527)" fill="#fff"/>
      <path id="Path_83224" data-name="Path 83224" d="M439.444,42.553a2.232,2.232,0,0,1-.718-.1,1.908,1.908,0,0,1-.529-.27,1.529,1.529,0,0,1-.368-.385,2.047,2.047,0,0,1-.224-.448h-.058v1.069h-1.7V36.047h1.7v4.138a.849.849,0,0,0,.1.425,1,1,0,0,0,.27.311,1.166,1.166,0,0,0,.379.19,1.459,1.459,0,0,0,.42.063,1.218,1.218,0,0,0,.534-.1.787.787,0,0,0,.328-.282,1.164,1.164,0,0,0,.161-.408,2.47,2.47,0,0,0,.046-.483V36.047h1.7v4a2.915,2.915,0,0,1-.517,1.856,1.836,1.836,0,0,1-1.529.65" transform="translate(-312.899 -25.879)" fill="#fff"/>
      <path id="Path_83225" data-name="Path 83225" d="M462.4,42.2a3.65,3.65,0,0,1-1.126-.167,2.827,2.827,0,0,1-.891-.46,2.164,2.164,0,0,1-.586-.7,1.866,1.866,0,0,1-.212-.885v-.563a1.049,1.049,0,0,1,.259-.747,1.015,1.015,0,0,1,.776-.276H462v1.253h-.885v.184a.941.941,0,0,0,.345.788,1.6,1.6,0,0,0,1,.27,1.086,1.086,0,0,0,.9-.4,1.7,1.7,0,0,0,.316-1.086V38.363a1.494,1.494,0,0,0-.368-1.075,1.363,1.363,0,0,0-1.034-.385,2.2,2.2,0,0,0-.6.08,2.351,2.351,0,0,0-.506.207,2.064,2.064,0,0,0-.391.282,1.718,1.718,0,0,0-.259.293l-1.034-.919a2.788,2.788,0,0,1,1.075-.914,3.849,3.849,0,0,1,1.787-.373,3.6,3.6,0,0,1,1.3.224,2.611,2.611,0,0,1,.983.655,2.91,2.91,0,0,1,.615,1.046,4.268,4.268,0,0,1,.213,1.4,4.36,4.36,0,0,1-.207,1.4,2.879,2.879,0,0,1-.6,1.046,2.573,2.573,0,0,1-.965.655,3.477,3.477,0,0,1-1.282.224" transform="translate(-329.865 -25.527)" fill="#fff"/>
      <path id="Path_83226" data-name="Path 83226" d="M486.15,37.846a1,1,0,0,0-.224-.69.947.947,0,0,0-.741-.253,1.287,1.287,0,0,0-.781.213,2.159,2.159,0,0,0-.483.489l-1.011-.9a2.667,2.667,0,0,1,.914-.845,3.069,3.069,0,0,1,1.488-.3,2.8,2.8,0,0,1,1.9.563,2.066,2.066,0,0,1,.644,1.643v4.3h-1.7Z" transform="translate(-346.685 -25.528)" fill="#fff"/>
      <path id="Path_83227" data-name="Path 83227" d="M506.525,41.681a2.219,2.219,0,0,1-1.465-.454,1.743,1.743,0,0,1-.546-1.42,1.831,1.831,0,0,1,.517-1.39,2.08,2.08,0,0,1,1.494-.494h1.9v-.333a1.193,1.193,0,0,0-.3-.879,1.367,1.367,0,0,0-.994-.3,1.856,1.856,0,0,0-1.046.293,2.025,2.025,0,0,0-.368.3,2.745,2.745,0,0,0-.287.351l-1.08-.943a3.2,3.2,0,0,1,1.1-.983,3.769,3.769,0,0,1,1.793-.362,3.54,3.54,0,0,1,1.92.46.824.824,0,0,1,.339-.495,1.127,1.127,0,0,1,.626-.161h1.264v1.4h-1.517v.046a2.654,2.654,0,0,1,.253,1.218v4.034h-1.7V39h-1.287q-.9,0-.9.735v.2a.838.838,0,0,0,.184.569.673.673,0,0,0,.54.212h.138a.429.429,0,0,0,.138-.023l.115.908a.809.809,0,0,1-.155.04,1.752,1.752,0,0,1-.219.023l-.241.011c-.08,0-.151.006-.213.006" transform="translate(-362.072 -25.03)" fill="#fff"/>
      <path id="Path_83228" data-name="Path 83228" d="M533.293,37.846a1,1,0,0,0-.224-.69.948.948,0,0,0-.741-.253,1.287,1.287,0,0,0-.781.213,2.159,2.159,0,0,0-.483.489l-1.011-.9a2.667,2.667,0,0,1,.914-.845,3.07,3.07,0,0,1,1.488-.3,2.805,2.805,0,0,1,1.9.563,2.066,2.066,0,0,1,.644,1.643v4.3h-1.7Z" transform="translate(-380.53 -25.528)" fill="#fff"/>
      <path id="Path_83229" data-name="Path 83229" d="M553.667,41.681a2.219,2.219,0,0,1-1.465-.454,1.743,1.743,0,0,1-.546-1.42,1.831,1.831,0,0,1,.517-1.39,2.08,2.08,0,0,1,1.494-.494h1.9v-.333a1.192,1.192,0,0,0-.3-.879,1.367,1.367,0,0,0-.994-.3,1.855,1.855,0,0,0-1.046.293,2.025,2.025,0,0,0-.368.3,2.745,2.745,0,0,0-.287.351l-1.08-.943a3.2,3.2,0,0,1,1.1-.983,3.77,3.77,0,0,1,1.793-.362,3.54,3.54,0,0,1,1.919.46.824.824,0,0,1,.339-.495,1.128,1.128,0,0,1,.627-.161h1.264v1.4h-1.517v.046a2.653,2.653,0,0,1,.253,1.218v4.034h-1.7V39h-1.287q-.9,0-.9.735v.2a.838.838,0,0,0,.184.569.673.673,0,0,0,.54.212h.138a.429.429,0,0,0,.138-.023l.115.908a.811.811,0,0,1-.155.04,1.749,1.749,0,0,1-.219.023l-.241.011c-.08,0-.151.006-.213.006" transform="translate(-395.915 -25.03)" fill="#fff"/>
      <path id="Path_83230" data-name="Path 83230" d="M582.543,42.553a2.231,2.231,0,0,1-.718-.1,1.907,1.907,0,0,1-.529-.27,1.531,1.531,0,0,1-.368-.385,2.061,2.061,0,0,1-.224-.448h-.057v1.069h-1.7V36.047h1.7v4.138a.848.848,0,0,0,.1.425,1,1,0,0,0,.27.311,1.168,1.168,0,0,0,.379.19,1.459,1.459,0,0,0,.42.063,1.218,1.218,0,0,0,.534-.1.786.786,0,0,0,.328-.282,1.165,1.165,0,0,0,.161-.408,2.47,2.47,0,0,0,.046-.483V36.047h1.7v4a2.916,2.916,0,0,1-.517,1.856,1.836,1.836,0,0,1-1.529.65" transform="translate(-415.631 -25.879)" fill="#fff"/>
      <path id="Path_83231" data-name="Path 83231" d="M589.613,26.851a1.583,1.583,0,0,1-1.086-.333,1.244,1.244,0,0,1-.373-.977V24.6H589.5V25.61h3.08v1.241Z" transform="translate(-422.241 -17.659)" fill="#fff"/>
      <path id="Path_83232" data-name="Path 83232" d="M604.045,38.26a2.74,2.74,0,0,1,.218-1.115,2.441,2.441,0,0,1,.621-.85,2.748,2.748,0,0,1,.983-.546,4.584,4.584,0,0,1,2.609,0,2.75,2.75,0,0,1,.982.546,2.439,2.439,0,0,1,.621.85,2.737,2.737,0,0,1,.218,1.115v3.8h-1.7V38.34a1.428,1.428,0,1,0-2.85,0v1.368h.057a1.885,1.885,0,0,1,.161-.489,1.5,1.5,0,0,1,.3-.419,1.422,1.422,0,0,1,.454-.293,1.618,1.618,0,0,1,.62-.109h.3v1.586h-.426a2.425,2.425,0,0,0-1.109.2.749.749,0,0,0-.362.724v1.161h-1.7Z" transform="translate(-433.65 -25.528)" fill="#fff"/>
      <path id="Path_83233" data-name="Path 83233" d="M633.085,42.2a3.654,3.654,0,0,1-1.557-.3,3.455,3.455,0,0,1-1.121-.839l1.023-.988a2.721,2.721,0,0,0,.764.592,2.075,2.075,0,0,0,.971.224,1.346,1.346,0,0,0,.77-.172.527.527,0,0,0,.241-.448.482.482,0,0,0-.2-.431,1.245,1.245,0,0,0-.529-.178l-.655-.08a2.941,2.941,0,0,1-1.6-.609,1.683,1.683,0,0,1-.558-1.345,2,2,0,0,1,.178-.862,1.853,1.853,0,0,1,.506-.65,2.308,2.308,0,0,1,.782-.414,3.324,3.324,0,0,1,1.006-.144,4.928,4.928,0,0,1,.828.063,3.127,3.127,0,0,1,.672.19,2.728,2.728,0,0,1,.557.31,4.178,4.178,0,0,1,.494.425l-1,.988a2.1,2.1,0,0,0-.678-.483,2,2,0,0,0-.839-.184,1.112,1.112,0,0,0-.69.172.545.545,0,0,0-.218.448.576.576,0,0,0,.178.442,1.116,1.116,0,0,0,.615.224l.655.092a4.436,4.436,0,0,1,.879.207,2.157,2.157,0,0,1,.655.362,1.493,1.493,0,0,1,.414.546,1.881,1.881,0,0,1,.143.77,1.782,1.782,0,0,1-.2.828,1.99,1.99,0,0,1-.546.655,2.614,2.614,0,0,1-.85.431,3.689,3.689,0,0,1-1.1.155" transform="translate(-452.576 -25.527)" fill="#fff"/>
      <path id="Path_83234" data-name="Path 83234" d="M212.831,90.576a2.22,2.22,0,0,1-1.465-.454,1.743,1.743,0,0,1-.546-1.42,1.832,1.832,0,0,1,.517-1.39,2.08,2.08,0,0,1,1.494-.494h1.9v-.333a1.19,1.19,0,0,0-.3-.879,1.366,1.366,0,0,0-.994-.3,1.856,1.856,0,0,0-1.046.293,2.023,2.023,0,0,0-.368.3,2.764,2.764,0,0,0-.287.351l-1.08-.943a3.2,3.2,0,0,1,1.1-.983,3.77,3.77,0,0,1,1.793-.362,3.54,3.54,0,0,1,1.92.46.823.823,0,0,1,.339-.495,1.127,1.127,0,0,1,.626-.161h1.264v1.4h-1.517v.046a2.659,2.659,0,0,1,.253,1.218v4.034h-1.7V87.9H213.44q-.9,0-.9.735v.2a.839.839,0,0,0,.184.569.675.675,0,0,0,.54.212h.138a.428.428,0,0,0,.138-.023l.115.908a.817.817,0,0,1-.155.04,1.753,1.753,0,0,1-.219.023l-.241.011c-.08,0-.151.006-.213.006" transform="translate(-151.226 -60.132)" fill="#fff"/>
      <path id="Path_83235" data-name="Path 83235" d="M239.6,86.74a1,1,0,0,0-.224-.69.948.948,0,0,0-.741-.253,1.287,1.287,0,0,0-.781.213,2.161,2.161,0,0,0-.483.489l-1.011-.9a2.665,2.665,0,0,1,.914-.845,3.069,3.069,0,0,1,1.488-.3,2.806,2.806,0,0,1,1.9.563,2.067,2.067,0,0,1,.643,1.643v4.3h-1.7Z" transform="translate(-169.684 -60.63)" fill="#fff"/>
      <path id="Path_83236" data-name="Path 83236" d="M258.516,88.545h1.517v1.149h2.2v-.873a.777.777,0,0,0-.224-.632,1.42,1.42,0,0,0-.764-.23l-2.839-.23V86.8a2.153,2.153,0,0,1,.718-1.73,3.144,3.144,0,0,1,2.1-.615,4.379,4.379,0,0,1,1.546.241,3.566,3.566,0,0,1,1.1.643l-.8,1.092a2.163,2.163,0,0,0-.81-.483,3.36,3.36,0,0,0-1.144-.184,1.466,1.466,0,0,0-.885.23.722.722,0,0,0-.31.609l1.552.138a7.508,7.508,0,0,1,1.034.166,2.093,2.093,0,0,1,.753.333,1.411,1.411,0,0,1,.46.575,2.179,2.179,0,0,1,.155.879V89.3a1.708,1.708,0,0,1-.408,1.23,1.687,1.687,0,0,1-1.27.425h-3.667Z" transform="translate(-185.509 -60.63)" fill="#fff"/>
      <path id="Path_83237" data-name="Path 83237" d="M283.523,86.74a1,1,0,0,0-.224-.69.947.947,0,0,0-.741-.253,1.287,1.287,0,0,0-.781.213,2.159,2.159,0,0,0-.483.489l-1.011-.9a2.667,2.667,0,0,1,.914-.845,3.069,3.069,0,0,1,1.488-.3,2.8,2.8,0,0,1,1.9.563,2.066,2.066,0,0,1,.644,1.643v4.3h-1.7Z" transform="translate(-201.217 -60.63)" fill="#fff"/>
      <path id="Path_83238" data-name="Path 83238" d="M304.678,91.1a3.654,3.654,0,0,1-1.557-.3,3.455,3.455,0,0,1-1.12-.839l1.023-.988a2.721,2.721,0,0,0,.764.592,2.074,2.074,0,0,0,.971.224,1.347,1.347,0,0,0,.77-.172.527.527,0,0,0,.241-.448.482.482,0,0,0-.2-.431,1.245,1.245,0,0,0-.529-.178l-.655-.08a2.941,2.941,0,0,1-1.6-.609,1.683,1.683,0,0,1-.558-1.345,2,2,0,0,1,.178-.862,1.853,1.853,0,0,1,.506-.65,2.308,2.308,0,0,1,.782-.414,3.324,3.324,0,0,1,1.006-.144,4.93,4.93,0,0,1,.828.063,3.124,3.124,0,0,1,.672.19,2.728,2.728,0,0,1,.557.31,4.178,4.178,0,0,1,.494.425l-1,.988a2.1,2.1,0,0,0-.678-.483,2,2,0,0,0-.839-.184,1.113,1.113,0,0,0-.69.172.545.545,0,0,0-.218.448.576.576,0,0,0,.178.442,1.117,1.117,0,0,0,.615.224l.655.092a4.436,4.436,0,0,1,.879.207,2.159,2.159,0,0,1,.655.362,1.493,1.493,0,0,1,.414.546,1.881,1.881,0,0,1,.144.77,1.78,1.78,0,0,1-.2.828,1.991,1.991,0,0,1-.546.655,2.613,2.613,0,0,1-.85.431,3.689,3.689,0,0,1-1.1.155" transform="translate(-216.809 -60.63)" fill="#fff"/>
      <path id="Path_83239" data-name="Path 83239" d="M330.2,91.1a1.629,1.629,0,0,1-1.385-.632,3.052,3.052,0,0,1-.5-1.8v-1.3A1.871,1.871,0,0,0,328,86.2a1.226,1.226,0,0,0-1.034-.4,1.58,1.58,0,0,0-.874.23,1.392,1.392,0,0,0-.517.563l.414.161a1.239,1.239,0,0,1,.563.368,1.061,1.061,0,0,1,.149.621v1.9h.563v1.322h-.575A1.475,1.475,0,0,1,325,89.3v-1.69l-1-.4a3.194,3.194,0,0,1,.287-1.144,2.735,2.735,0,0,1,.632-.868,2.778,2.778,0,0,1,.919-.552,3.323,3.323,0,0,1,1.161-.2,3.749,3.749,0,0,1,1.3.207,2.682,2.682,0,0,1,.943.569,2.4,2.4,0,0,1,.575.851,2.842,2.842,0,0,1,.2,1.063v1.3a2.877,2.877,0,0,0,.04.494,1.247,1.247,0,0,0,.138.4.731.731,0,0,0,.276.276.893.893,0,0,0,.454.1,1.1,1.1,0,0,0,.707-.253.887.887,0,0,0,.316-.736V84.591h1.7v5.046h.563v1.322h-1.023q-1.023,0-1.058-1.184h-.08a2.624,2.624,0,0,1-.235.5,1.651,1.651,0,0,1-.368.419,1.74,1.74,0,0,1-.535.293,2.141,2.141,0,0,1-.712.109" transform="translate(-232.604 -60.63)" fill="#fff"/>
      <path id="Path_83240" data-name="Path 83240" d="M365.139,90.576a2.219,2.219,0,0,1-1.465-.454,1.743,1.743,0,0,1-.546-1.42,1.831,1.831,0,0,1,.517-1.39,2.08,2.08,0,0,1,1.494-.494h1.9v-.333a1.192,1.192,0,0,0-.3-.879,1.367,1.367,0,0,0-.994-.3,1.856,1.856,0,0,0-1.046.293,2.024,2.024,0,0,0-.368.3,2.735,2.735,0,0,0-.287.351l-1.081-.943a3.2,3.2,0,0,1,1.1-.983,3.769,3.769,0,0,1,1.793-.362,3.541,3.541,0,0,1,1.92.46.823.823,0,0,1,.339-.495,1.128,1.128,0,0,1,.627-.161H370v1.4h-1.517v.046a2.654,2.654,0,0,1,.253,1.218v4.034h-1.7V87.9h-1.287q-.9,0-.9.735v.2a.838.838,0,0,0,.184.569.674.674,0,0,0,.54.212h.138a.428.428,0,0,0,.138-.023l.115.908a.81.81,0,0,1-.155.04,1.756,1.756,0,0,1-.219.023l-.241.011c-.08,0-.151.006-.213.006" transform="translate(-260.569 -60.132)" fill="#fff"/>
      <path id="Path_83241" data-name="Path 83241" d="M376.441,112.844h-.816v-1.092h1.138a1.152,1.152,0,0,1,.822.241.875.875,0,0,1,.247.656v1.931h-1.391Z" transform="translate(-269.665 -80.228)" fill="#fff"/>
      <path id="Path_83242" data-name="Path 83242" d="M392.477,91.448a4.232,4.232,0,0,1-1.115-.138,2.328,2.328,0,0,1-.862-.425,1.945,1.945,0,0,1-.552-.713,2.4,2.4,0,0,1-.2-1.011,3,3,0,0,1,.046-.563,2.531,2.531,0,0,1,.121-.437,2.067,2.067,0,0,1,.166-.345q.092-.149.173-.276a3.489,3.489,0,0,0,.282-.546,1.516,1.516,0,0,0,.121-.581v-.08h-.977V84.942h1.276a1.5,1.5,0,0,1,1,.293.982.982,0,0,1,.345.787v.046a2.625,2.625,0,0,1-.092.678,4.215,4.215,0,0,1-.31.781q-.161.322-.27.592a1.872,1.872,0,0,0-.109.7v.311a.935.935,0,0,0,.242.683.9.9,0,0,0,.678.247.951.951,0,0,0,.684-.236.884.884,0,0,0,.247-.672V84.942h1.667V88.9a2.343,2.343,0,0,1-2.563,2.552" transform="translate(-279.758 -60.981)" fill="#fff"/>
      <path id="Path_83243" data-name="Path 83243" d="M415.8,91.1a2.855,2.855,0,0,1-2.207-.833,3.59,3.59,0,0,1-.77-2.511,4.784,4.784,0,0,1,.512-2.46,1.67,1.67,0,0,1,1.523-.839,1.27,1.27,0,0,1,1.356,1.149h.08a1.274,1.274,0,0,1,.494-.851,1.671,1.671,0,0,1,1.023-.3,1.5,1.5,0,0,1,1.167.489,1.956,1.956,0,0,1,.442,1.362v4.655h-1.7V86.545a.871.871,0,0,0-.127-.517.4.4,0,0,0-.345-.172.392.392,0,0,0-.379.23,1.861,1.861,0,0,0-.161.6H415.7a2.129,2.129,0,0,0-.15-.6.371.371,0,0,0-.368-.23.454.454,0,0,0-.443.31,2.42,2.42,0,0,0-.132.908v1.253a2.141,2.141,0,0,0,.069.563,1,1,0,0,0,.236.431,1.087,1.087,0,0,0,.442.276,2.138,2.138,0,0,0,.7.1,1.7,1.7,0,0,0,.391-.046l.2,1.356a1.631,1.631,0,0,1-.379.069q-.253.023-.46.023" transform="translate(-296.373 -60.63)" fill="#fff"/>
      <rect id="Rectangle_147770" data-name="Rectangle 147770" width="1.54" height="2.379" transform="translate(121.442 20.605)" fill="#fff"/>
      <path id="Path_83244" data-name="Path 83244" d="M442.633,86.74a1,1,0,0,0-.225-.69.946.946,0,0,0-.741-.253,1.288,1.288,0,0,0-.782.213,2.16,2.16,0,0,0-.483.489l-1.011-.9a2.669,2.669,0,0,1,.914-.845,3.068,3.068,0,0,1,1.488-.3,2.8,2.8,0,0,1,1.9.563,2.066,2.066,0,0,1,.644,1.643v4.3h-1.7Z" transform="translate(-315.444 -60.63)" fill="#fff"/>
      <path id="Path_83245" data-name="Path 83245" d="M459.928,86.758h1.655l1.379,3.207h.057a.721.721,0,0,0,.632-.344,1.732,1.732,0,0,0,.23-.966V87.6a1.665,1.665,0,0,0-.241-.965.769.769,0,0,0-.667-.345h-.425V84.942h.46a2.692,2.692,0,0,1,1.109.218,2.268,2.268,0,0,1,.827.627,2.884,2.884,0,0,1,.523,1,4.511,4.511,0,0,1,.184,1.339,4.645,4.645,0,0,1-.178,1.339,2.812,2.812,0,0,1-.517,1,2.263,2.263,0,0,1-.827.626,2.661,2.661,0,0,1-1.1.219h-1.115Z" transform="translate(-330.187 -60.981)" fill="#fff"/>
      <path id="Path_83246" data-name="Path 83246" d="M486.289,91.1a2.97,2.97,0,0,1-1.2-.23,2.469,2.469,0,0,1-.9-.655,2.917,2.917,0,0,1-.563-1.04,4.605,4.605,0,0,1-.2-1.4,4.078,4.078,0,0,1,.218-1.374,2.918,2.918,0,0,1,.626-1.046,2.792,2.792,0,0,1,.982-.667,3.369,3.369,0,0,1,1.287-.236,3.768,3.768,0,0,1,1.23.19,2.606,2.606,0,0,1,.937.546,2.455,2.455,0,0,1,.6.862,2.908,2.908,0,0,1,.213,1.138v3.77h-1.7V87.269a1.59,1.59,0,0,0-.339-1.086,1.2,1.2,0,0,0-.948-.385,1.212,1.212,0,0,0-.971.408,1.683,1.683,0,0,0-.351,1.132v.85q0,1.563,1.264,1.563c.076,0,.144,0,.2-.006a.978.978,0,0,0,.178-.029l.2,1.31a1.954,1.954,0,0,1-.4.058c-.153.007-.276.012-.368.012" transform="translate(-347.066 -60.63)" fill="#fff"/>
      <path id="Path_83247" data-name="Path 83247" d="M496.435,72.163h.724v-.391a.387.387,0,0,0-.086-.282.51.51,0,0,0-.351-.086h-.287V70.232h.954a1.371,1.371,0,0,1,.874.247.814.814,0,0,1,.31.673.894.894,0,0,1-.178.535,1.172,1.172,0,0,1-.488.385v.092h2.138v1.172h-3.609Z" transform="translate(-356.396 -50.42)" fill="#fff"/>
      <path id="Path_83248" data-name="Path 83248" d="M511.453,86.74a1,1,0,0,0-.224-.69.948.948,0,0,0-.741-.253,1.287,1.287,0,0,0-.781.213,2.16,2.16,0,0,0-.483.489l-1.011-.9a2.668,2.668,0,0,1,.914-.845,3.069,3.069,0,0,1,1.488-.3,2.8,2.8,0,0,1,1.9.563,2.066,2.066,0,0,1,.644,1.643v4.3h-1.7Z" transform="translate(-364.851 -60.63)" fill="#fff"/>
      <path id="Path_83249" data-name="Path 83249" d="M531.53,91.1a3.851,3.851,0,0,1-1-.126,2.561,2.561,0,0,1-.839-.391l.632-1.2a3.566,3.566,0,0,0,.459.247,1.578,1.578,0,0,0,.655.12.978.978,0,0,0,.833-.373,1.633,1.633,0,0,0,.282-1.006V87.188a1.68,1.68,0,0,0-.276-1.011.955.955,0,0,0-.827-.379,1.109,1.109,0,0,0-.782.264,1.26,1.26,0,0,0-.379.644l-1.379-.6a2.4,2.4,0,0,1,.959-1.218,2.988,2.988,0,0,1,1.661-.437,2.9,2.9,0,0,1,1.2.236,2.41,2.41,0,0,1,.879.667,2.955,2.955,0,0,1,.54,1.04,4.722,4.722,0,0,1,.184,1.368,4.839,4.839,0,0,1-.184,1.379,2.942,2.942,0,0,1-.54,1.052,2.406,2.406,0,0,1-.879.667,2.9,2.9,0,0,1-1.2.236" transform="translate(-379.71 -60.63)" fill="#fff"/>
      <path id="Path_83250" data-name="Path 83250" d="M560.854,81.7a8.084,8.084,0,0,1,.155-1.6,8.241,8.241,0,0,1,.419-1.431,6.232,6.232,0,0,1,.632-1.2,4.748,4.748,0,0,1,.8-.92h1.6A6.2,6.2,0,0,0,563,78.623a6.584,6.584,0,0,0-.534,2.684v.8a6.547,6.547,0,0,0,.54,2.724,6.141,6.141,0,0,0,1.46,2.034h-1.609a4.545,4.545,0,0,1-.782-.9,6.333,6.333,0,0,1-.638-1.212,8.256,8.256,0,0,1-.581-3.063" transform="translate(-402.643 -54.955)" fill="#fff"/>
      <path id="Path_83251" data-name="Path 83251" d="M577.5,91.1a3.651,3.651,0,0,1-1.126-.167,2.825,2.825,0,0,1-.891-.46,2.164,2.164,0,0,1-.587-.7,1.866,1.866,0,0,1-.212-.885v-.563a1.048,1.048,0,0,1,.259-.747,1.015,1.015,0,0,1,.776-.276H577.1v1.253h-.885v.184a.941.941,0,0,0,.345.788,1.6,1.6,0,0,0,1,.27,1.086,1.086,0,0,0,.9-.4,1.7,1.7,0,0,0,.316-1.086V87.258a1.5,1.5,0,0,0-.367-1.075,1.364,1.364,0,0,0-1.034-.385,2.2,2.2,0,0,0-.6.08,2.351,2.351,0,0,0-.506.207,2.058,2.058,0,0,0-.391.282,1.712,1.712,0,0,0-.259.293l-1.034-.919a2.788,2.788,0,0,1,1.075-.914,3.849,3.849,0,0,1,1.787-.373,3.6,3.6,0,0,1,1.3.224,2.611,2.611,0,0,1,.983.655,2.9,2.9,0,0,1,.615,1.046,4.261,4.261,0,0,1,.213,1.4,4.357,4.357,0,0,1-.207,1.4,2.875,2.875,0,0,1-.6,1.046,2.572,2.572,0,0,1-.965.655,3.476,3.476,0,0,1-1.282.224" transform="translate(-412.501 -60.63)" fill="#fff"/>
      <path id="Path_83252" data-name="Path 83252" d="M600.932,90.576a2.219,2.219,0,0,1-1.465-.454,1.742,1.742,0,0,1-.546-1.42,1.831,1.831,0,0,1,.517-1.39,2.08,2.08,0,0,1,1.494-.494h1.9v-.333a1.193,1.193,0,0,0-.3-.879,1.367,1.367,0,0,0-.994-.3,1.856,1.856,0,0,0-1.046.293,2.025,2.025,0,0,0-.368.3,2.745,2.745,0,0,0-.287.351l-1.08-.943a3.2,3.2,0,0,1,1.1-.983,3.77,3.77,0,0,1,1.793-.362,3.54,3.54,0,0,1,1.919.46.823.823,0,0,1,.339-.495,1.127,1.127,0,0,1,.626-.161h1.264v1.4h-1.517v.046a2.653,2.653,0,0,1,.253,1.218v4.034h-1.7V87.9h-1.287q-.9,0-.9.735v.2a.838.838,0,0,0,.184.569.673.673,0,0,0,.54.212h.138a.43.43,0,0,0,.138-.023l.115.908a.808.808,0,0,1-.155.04,1.753,1.753,0,0,1-.219.023l-.241.011c-.08,0-.151.006-.213.006" transform="translate(-429.847 -60.132)" fill="#fff"/>
      <path id="Path_83253" data-name="Path 83253" d="M628,91.1a2.855,2.855,0,0,1-2.207-.833,3.59,3.59,0,0,1-.77-2.511,4.785,4.785,0,0,1,.512-2.46,1.67,1.67,0,0,1,1.523-.839,1.27,1.27,0,0,1,1.356,1.149h.081a1.274,1.274,0,0,1,.494-.851,1.671,1.671,0,0,1,1.023-.3,1.5,1.5,0,0,1,1.167.489,1.956,1.956,0,0,1,.442,1.362v4.655h-1.7V86.545a.873.873,0,0,0-.127-.517.4.4,0,0,0-.345-.172.393.393,0,0,0-.379.23,1.866,1.866,0,0,0-.161.6H627.9a2.127,2.127,0,0,0-.149-.6.371.371,0,0,0-.368-.23.454.454,0,0,0-.443.31,2.416,2.416,0,0,0-.132.908v1.253a2.145,2.145,0,0,0,.069.563,1,1,0,0,0,.236.431,1.088,1.088,0,0,0,.442.276,2.137,2.137,0,0,0,.7.1,1.7,1.7,0,0,0,.391-.046l.2,1.356a1.633,1.633,0,0,1-.38.069q-.253.023-.46.023" transform="translate(-448.714 -60.63)" fill="#fff"/>
      <path id="Path_83254" data-name="Path 83254" d="M654.683,102.7a1.012,1.012,0,0,1-.765-.259.918.918,0,0,1-.247-.661v-.23a.917.917,0,0,1,.247-.661,1.258,1.258,0,0,1,1.529,0,.917.917,0,0,1,.247.661v.23a.918.918,0,0,1-.247.661,1.013,1.013,0,0,1-.764.259" transform="translate(-469.277 -72.243)" fill="#fff"/>
      <path id="Path_83255" data-name="Path 83255" d="M666.612,81.7a8.272,8.272,0,0,1-.581,3.063,6.354,6.354,0,0,1-.638,1.212,4.551,4.551,0,0,1-.782.9H663a6.139,6.139,0,0,0,1.459-2.034,6.546,6.546,0,0,0,.54-2.724v-.8a6.581,6.581,0,0,0-.534-2.684A6.192,6.192,0,0,0,663,76.548h1.6a4.76,4.76,0,0,1,.8.92,6.276,6.276,0,0,1,.632,1.2,8.235,8.235,0,0,1,.419,1.431,8.07,8.07,0,0,1,.155,1.6" transform="translate(-475.977 -54.955)" fill="#fff"/>
      <path id="Path_83256" data-name="Path 83256" d="M28.356,11.647l-.033-.588h16.8a4.118,4.118,0,0,1,4.106,4.106V42.706H6.026V21.177c1.011.148,2.024,1.243,3.037,1.315V39.669H46.2v-24.5a1.081,1.081,0,0,0-1.07-1.07H28.389l-.066-3.036m8.158,32.807a1.636,1.636,0,0,1-1.441.974H20.22a1.636,1.636,0,0,1-1.442-.974H0v1.9a1.793,1.793,0,0,0,1.652,1.9H53.608a1.793,1.793,0,0,0,1.651-1.9v-1.9ZM29.527,13.18A13.156,13.156,0,1,1,16.411,0,13.165,13.165,0,0,1,29.527,13.18M10.607,12.3H15.5V8.168c-1.466.207-2.874.4-4.279.613a.4.4,0,0,0-.278.25c-.125,1.076-.225,2.153-.336,3.273m6.61,5.815c1.222-.148,2.381-.27,3.534-.432,1.036-.146,1.054-.163,1.168-1.189.091-.819.127-1.645.187-2.473H17.217Zm-6.609-4.11c.109,1.118.2,2.183.333,3.242.015.121.239.278.388.309.61.127,1.227.234,1.847.307.771.09,1.547.139,2.335.208V14.009ZM17.227,12.3H22.1c-.052-.748-.091-1.462-.152-2.175-.113-1.306-.118-1.306-1.42-1.54-.016,0-.031-.008-.047-.01l-3.254-.364Zm.009,7.456V24.7c.866-.187,1.679-.346,2.481-.55a.65.65,0,0,0,.346-.4c.428-1.288.837-2.583,1.245-3.879a5.289,5.289,0,0,0,.117-.565l-4.188.453M11.277,7.02l4.235-.464v-4.9c-.7.126-1.358.25-2.016.362a1.069,1.069,0,0,0-.953.851c-.148.555-.4,1.084-.562,1.635-.249.823-.464,1.656-.7,2.52M11.34,19.3a1.031,1.031,0,0,0,.019.229q.68,2.176,1.372,4.349c.03.1.118.223.2.243.846.2,1.7.377,2.572.568V19.761L11.34,19.3M17.218,6.558l4.161.449a.7.7,0,0,0,0-.2q-.7-2.2-1.408-4.39c-.031-.095-.118-.223-.2-.242-.832-.194-1.668-.368-2.55-.558Zm4.894-3.366c.359,1.4.7,2.746,1.06,4.086.031.116.205.229.337.276,1.073.377,2.15.738,3.227,1.1a1.77,1.77,0,0,0,.243.041,11.672,11.672,0,0,0-4.867-5.5M10.664,23.139c-.075-.255-.12-.4-.161-.552-.266-.971-.588-1.932-.775-2.918A1.11,1.11,0,0,0,8.7,18.6a7.257,7.257,0,0,1-1.277-.408C6.889,18,6.359,17.8,5.744,17.578a11.707,11.707,0,0,0,4.92,5.561M5.765,8.695C6.88,8.326,7.929,7.95,9,7.641a.756.756,0,0,0,.652-.734A6.483,6.483,0,0,1,9.888,5.88c.239-.871.486-1.739.754-2.7a11.668,11.668,0,0,0-4.877,5.51m21.162,8.943c-1.121.372-2.207.756-3.31,1.085a.632.632,0,0,0-.493.541c-.286,1.132-.6,2.259-.9,3.388-.034.128-.068.257-.113.427a11.059,11.059,0,0,0,4.811-5.441m.861-5.333a.746.746,0,0,0,.036-.127,1.545,1.545,0,0,0-1.171-1.79c-1.046-.309-2.049-.765-3.133-1.181.087,1.106.164,2.089.244,3.1ZM9.207,9.183c-1.362.559-2.658,1.088-3.95,1.629a.376.376,0,0,0-.187.245c-.073.4-.121.81-.186,1.274,1.345,0,2.621,0,3.9-.01a.334.334,0,0,0,.224-.232c.076-.92.131-1.842.2-2.9m-4.323,4.8c.066.47.114.878.187,1.281a.376.376,0,0,0,.186.245c1.292.54,2.588,1.069,3.963,1.632-.068-.878-.135-1.607-.179-2.338-.057-.954.074-.811-.839-.818-1.084-.008-2.168,0-3.319,0m22.967.032H23.765c-.076,1.013-.15,2-.236,3.133,1.385-.573,2.684-1.106,3.978-1.653a.382.382,0,0,0,.169-.259c.069-.39.115-.785.176-1.221" transform="translate(0 0)" fill="#fff"/>
      <path id="Path_83257" data-name="Path 83257" d="M117.485,72.673a2.085,2.085,0,0,1-2.086-2.084l-10.266.008a2.085,2.085,0,0,1-2.084,2.086l0,5.395a9.208,9.208,0,0,0,4.648,7.993l2.606,1.485,2.574-1.484a9.209,9.209,0,0,0,4.609-7.984Zm-3.164,6.485h-3.04V82.2h-2.025v-3.04h-3.04V77.133h3.04v-3.04h2.025v3.04h3.04Z" transform="translate(-73.98 -50.677)" fill="#fff"/>
    </g>
  </g>
</svg>
