<svg xmlns="http://www.w3.org/2000/svg" width="160" height="160" viewBox="0 0 160 160">
  <g id="Group_162414" data-name="Group 162414" transform="translate(-503 -2779)">
    <circle id="Ellipse_48" data-name="Ellipse 48" cx="80" cy="80" r="80" transform="translate(503 2779)" fill="none"/>
    <g id="Layer_4" transform="translate(526 2802)">
      <g id="Group_162598" data-name="Group 162598" transform="translate(4 4)">
        <path id="Path_83261" data-name="Path 83261" d="M21.218,110H34.339a3.616,3.616,0,1,0,0-7.227H21.218c-5.524,0-9.99-4.9-9.99-10.637v-53.2h90.341v13.59c0,2.061,2.155,3.733,4.216,3.733S110,54.584,110,52.521V21.94C110,12.216,100.861,4,91.24,4H21.218C11.578,4,4,12.048,4,21.94V92.135C4,101.986,11.578,110,21.218,110Zm-9.99-88.06c0-5.678,4.56-10.713,9.99-10.713H91.24c5.573,0,10.328,5.035,10.328,10.713V31.7H11.227Z" transform="translate(-4 -4)" fill="#0076ff"/>
        <path id="Path_83262" data-name="Path 83262" d="M75.314,16H73.822c-2.061,0-3.733,2.155-3.733,4.216s1.671,4.216,3.733,4.216h1.492c2.061,0,3.733-2.155,3.733-4.216S77.375,16,75.314,16Z" transform="translate(9.518 -1.545)" fill="#0076ff"/>
        <path id="Path_83263" data-name="Path 83263" d="M64.779,16H63.287c-2.061,0-3.733,2.155-3.733,4.216s1.671,4.216,3.733,4.216h1.492c2.061,0,3.733-2.155,3.733-4.216S66.84,16,64.779,16Z" transform="translate(7.363 -1.545)" fill="#0076ff"/>
        <path id="Path_83264" data-name="Path 83264" d="M53.624,16H52.132c-2.061,0-3.733,2.155-3.733,4.216s1.671,4.216,3.733,4.216h1.492c2.061,0,3.733-2.155,3.733-4.216S55.685,16,53.624,16Z" transform="translate(5.082 -1.545)" fill="#0076ff"/>
        <path id="Path_83265" data-name="Path 83265" d="M67.337,47.135A40.433,40.433,0,0,0,30,72.712s7.836,28.854,37.337,28.225c31.171-.664,37.345-28.225,37.345-28.225A40.438,40.438,0,0,0,67.337,47.135ZM67.6,93.473A32.366,32.366,0,0,1,38.049,74.036a32.193,32.193,0,0,1,59.115,0A32.369,32.369,0,0,1,67.6,93.473Z" transform="translate(1.318 4.823)" fill="#0076ff"/>
        <path id="Path_83266" data-name="Path 83266" d="M63.68,57.445A14.482,14.482,0,1,0,78.163,71.927,14.5,14.5,0,0,0,63.68,57.445Zm0,21.5A7.018,7.018,0,1,1,70.7,71.927a7.027,7.027,0,0,1-7.018,7.018Z" transform="translate(5.245 6.932)" fill="#0076ff"/>
      </g>
    </g>
  </g>
</svg>
