<svg id="Group_77" data-name="Group 77" xmlns="http://www.w3.org/2000/svg" xmlns:xlink="http://www.w3.org/1999/xlink" width="780" height="480" viewBox="0 0 780 480">
  <defs>
    <clipPath id="clip-path">
      <rect id="Rectangle_4" data-name="Rectangle 4" width="780" height="480" fill="none"/>
    </clipPath>
  </defs>
  <g id="Group_76" data-name="Group 76" transform="translate(0)">
    <g id="Group_75" data-name="Group 75" clip-path="url(#clip-path)">
      <g id="Group_74" data-name="Group 74" transform="translate(226.42 14.197)">
        <path id="Path_1" data-name="Path 1" d="M301.57,358.594c.865,19.89,2.164,115.014,2.593,118.471s19.458.864,19.458.864L320.6,378.915Z" transform="translate(-277.767 -2.478)" fill="#ba9066"/>
        <g id="Group_1" data-name="Group 1" transform="translate(0 128.057)">
          <path id="Path_2" data-name="Path 2" d="M369.429,287.113c-31.829,11.532-70.476,29.4-79.558,37.183s-10.38,36.748-2.164,51.452,63.127,87.77,75.235,102.475,34.158,45.4,38.914,50.587,28.106,22.486,69.181,0,328.6-161.712,353.25-180.737c12.972-11.24,16-22.913-3.89-47.993s-81.723-106.8-96.422-119.768-31.128-15.564-58.8-3.457S429.1,265.494,369.429,287.113Z" transform="translate(-281.634 -168.445)" fill="#fff"/>
          <path id="Path_3" data-name="Path 3" d="M432.564,540.761h0c-19.982,0-29.976-10.273-31.049-11.444-2.264-2.471-8.38-10.625-15.46-20.066-8.01-10.682-17.09-22.79-23.476-30.544-11.64-14.138-67.013-87.745-75.3-102.565-8.335-14.92-7.048-44.19,2.3-52.2,8.888-7.616,46.9-25.39,79.745-37.291,65.392-23.693,268.633-98.4,295.709-110.242,12.091-5.291,22.254-7.862,31.067-7.862,10.528,0,19.544,3.629,28.373,11.419,11.213,9.9,50.3,60.353,76.159,93.739,8.351,10.78,15.563,20.09,20.335,26.107,20.4,25.726,16.584,37.752,3.812,48.818-15.954,12.317-139.608,73.8-238.967,123.2-53.546,26.624-99.791,49.618-114.388,57.607C457.7,536.951,444.625,540.761,432.564,540.761ZM696.1,169.745c-8.644,0-18.648,2.539-30.586,7.762-27.1,11.854-230.381,86.574-295.781,110.269-32.741,11.863-70.572,29.534-79.373,37.076-8.825,7.564-9.983,36.47-2.03,50.7,8.261,14.779,63.55,88.267,75.175,102.388,6.4,7.774,15.492,19.894,23.51,30.587,7.061,9.416,13.158,17.549,15.383,19.975,1.037,1.132,10.694,11.056,30.164,11.056,11.86,0,24.74-3.76,38.286-11.176,14.617-8,60.871-31,114.428-57.629C684.591,421.378,808.187,359.923,824.022,347.7c12.524-10.855,15.9-22.06-3.995-47.146-4.776-6.022-11.99-15.335-20.344-26.118-25.834-33.35-64.877-83.752-76.006-93.574C715.083,173.279,706.32,169.745,696.1,169.745Z" transform="translate(-281.734 -168.545)"/>
        </g>
        <g id="Group_8" data-name="Group 8" transform="translate(64.996 328.668)">
          <path id="Path_4" data-name="Path 4" d="M395.942,341.828c-11.468-4.165-17.98-8.018-21.2-5.07s-23,27.079-30.194,37.06-10.806,15.457-7.289,19.031,36.4,21.07,49.784,28.21,34.018,15.028,38.958,16.32,6.25,2.7,13.048-11.092,14.124-31.614,14.124-31.614Z" transform="translate(-335.898 -335.72)" fill="#ffa66b"/>
          <path id="Path_5" data-name="Path 5" d="M399.647,338.535c-9.389,2.675-29.514,9.557-31.082,10.168s-8.39,12.208-7.974,15.041,11.8,58.049,13.3,62.34,6.378,8.521,13.4,6.157,66.234-18.593,70.648-20.6.433-15.972-3.352-28.033S415.832,336.721,399.647,338.535Z" transform="translate(-330.963 -335.171)" fill="#ffe7b8"/>
          <g id="Group_2" data-name="Group 2" transform="translate(29.034 12.94)">
            <path id="Path_6" data-name="Path 6" d="M360.847,362.716c2.567-.468,13.715-.958,13.668-5.288-.044-4.186-4.456-6.68-5.275-10.492-.162-.757-1.319-.436-1.157.319.584,2.719,3.185,5.188,4.475,7.618a4.56,4.56,0,0,1,.715,2.768c-.2,1.2-2.968,1.906-3.833,2.176a75.918,75.918,0,0,1-8.912,1.741c-.761.139-.438,1.295.319,1.158Z" transform="translate(-360.093 -346.504)"/>
          </g>
          <g id="Group_3" data-name="Group 3" transform="translate(46.725 24.382)">
            <path id="Path_7" data-name="Path 7" d="M375.589,365.478a39.981,39.981,0,0,0,5.7-1.774c2.294-.779,4.692-1.289,7-2.053,4.757-1.577,9.509-3.466,14.432-4.441.76-.151.437-1.308-.318-1.158-4.619.917-8.956,2.758-13.45,4.11s-9.079,3.332-13.681,4.158c-.761.138-.438,1.295.319,1.158Z" transform="translate(-374.835 -356.039)"/>
          </g>
          <g id="Group_4" data-name="Group 4" transform="translate(41.884 29.061)">
            <path id="Path_8" data-name="Path 8" d="M371.671,373.1c2.722-1.944,5.944-1.457,9.048-2.023,3.884-.71,7.608-2.461,11.282-3.846,3.745-1.411,7.49-2.792,11.346-3.877,3.779-1.063,7.694-1.409,11.522-2.239.756-.164.437-1.321-.318-1.158-3.834.833-7.724,1.241-11.525,2.24a127.354,127.354,0,0,0-12.356,4.258c-3.725,1.405-7.835,3.533-11.885,3.664-2.686.085-5.477.343-7.721,1.946-.624.445-.025,1.487.606,1.036Z" transform="translate(-370.801 -359.938)"/>
          </g>
          <g id="Group_5" data-name="Group 5" transform="translate(49.298 48.653)">
            <path id="Path_9" data-name="Path 9" d="M377.862,384.948c3.847-2.5,8.516-2.756,12.842-3.937,2.316-.634,4.526-1.513,6.787-2.311,1.5-.532,3.054-.53,4.488-1.32.679-.372.074-1.409-.6-1.036-1.849,1.018-4.154,1.163-6.133,1.9a57.581,57.581,0,0,1-6.56,2.05c-3.932.953-7.96,1.366-11.425,3.622-.647.42-.046,1.458.6,1.036Z" transform="translate(-376.98 -376.264)"/>
          </g>
          <g id="Group_6" data-name="Group 6" transform="translate(49.311 49.146)">
            <path id="Path_10" data-name="Path 10" d="M377.57,391.293c8.2-.455,15.937-3.575,23.742-5.878,4.42-1.3,8.842-2.6,13.214-4.057,3.526-1.171,7.214-1.807,10.516-3.57.683-.365.078-1.4-.6-1.037-3.212,1.716-6.811,2.287-10.229,3.45-4,1.362-8.059,2.539-12.112,3.733-8.034,2.363-16.091,5.69-24.527,6.158-.77.043-.774,1.244,0,1.2Z" transform="translate(-376.99 -376.675)"/>
          </g>
          <g id="Group_7" data-name="Group 7" transform="translate(53.349 67.588)">
            <path id="Path_11" data-name="Path 11" d="M381.1,398.245c3.461-.806,6.874-1.693,10.265-2.75,1.986-.619,4.358-1.013,6.052-2.3.608-.461.012-1.5-.6-1.036-1.769,1.34-4.361,1.738-6.45,2.389-3.162.985-6.355,1.784-9.58,2.536-.754.176-.434,1.332.318,1.158Z" transform="translate(-380.355 -392.044)"/>
          </g>
        </g>
        <g id="Group_48" data-name="Group 48" transform="translate(40.591 71.103)">
          <path id="Path_12" data-name="Path 12" d="M330.72,167.717c-6.7,2.387-16.861,9.082-14.916,21.079s19.78,81.395,27.887,107.014,7.784,28.86,19.458,42.481,40.212,58.046,53.831,68.423,13.945,11.027,34.375,4.216,106.363-50.263,123.227-58.046,30.158-13.944,25.294-24.644-13.295-19.782-27.564-34.375-42.156-41.508-44.426-44.425c-2.594-19.782-11.024-53.507-12.972-66.478s-7.781-42.157-10.052-50.914-7.457-14.268-26.266-8.756S349.854,160.907,330.72,167.717Z" transform="translate(-315.56 -121.083)" fill="#d5f0fd"/>
          <g id="Group_9" data-name="Group 9" transform="translate(8.326 47.676)">
            <path id="Path_13" data-name="Path 13" d="M326.639,160.969c-5.73,5.017-4.222,12.185-3.013,18.994,1.73,9.745,4.2,19.356,6.678,28.933,5.675,21.964,11.723,43.831,17.7,65.716,1.962,7.183,3.956,14.36,5.82,21.571,1.621,6.275,3.982,12.234,7.643,17.148,11.683,15.68,23.378,31.356,35.32,46.838a235.727,235.727,0,0,0,24.706,27.823c2.154,2.032,4.366,4.583,7.06,5.927s5.91.864,8.734.244c9.762-2.146,19.086-7.112,28.141-11.266,10.133-4.648,20.221-9.388,30.3-14.143q27.608-13.027,55.085-26.33c8.4-4.079,16.771-8.206,25.178-12.266,5.6-2.706,11.515-5.4,16.294-9.452,2.38-2.018,4.108-4.832,2.508-7.849-.362-.685-1.4-.079-1.036.6,2.973,5.608-8.317,10.536-11.874,12.413-7.057,3.724-14.358,6.986-21.505,10.534-7.944,3.943-15.937,7.783-23.929,11.627q-32.515,15.638-65.225,30.875c-9.083,4.208-18.166,8.61-27.571,12.054-4,1.465-8.965,3.39-13.295,2.351-2.844-.683-5.1-3.452-7.139-5.348-17.562-16.308-31.418-36.16-45.756-55.244q-7.5-9.983-14.96-20c-3.918-5.26-6.014-11.051-7.652-17.364-4.8-18.509-10.037-36.91-15.031-55.369-3.859-14.258-7.735-28.52-11.249-42.869a195.388,195.388,0,0,1-4.627-22.974c-.6-4.928-.317-8.947,3.547-12.331.584-.51-.269-1.356-.848-.848Z" transform="translate(-322.499 -160.813)"/>
          </g>
          <g id="Group_10" data-name="Group 10" transform="translate(117.681 282.782)">
            <path id="Path_14" data-name="Path 14" d="M413.628,357.315v9.079a.6.6,0,0,0,1.2,0v-9.079a.6.6,0,0,0-1.2,0Z" transform="translate(-413.628 -356.734)"/>
          </g>
          <g id="Group_11" data-name="Group 11" transform="translate(41.49 127.718)">
            <path id="Path_15" data-name="Path 15" d="M351.24,304.659a36.208,36.208,0,0,1,3.007-4.559c1.148-1.646,2.176-1.476,4.039-1.987,3.973-1.091,7.572-3.354,11.365-4.909,8.1-3.318,16.474-5.812,24.529-9.286,17.882-7.712,35.514-15.99,53.544-23.36,19.56-8,39.066-15.95,58.28-24.778,3.374-1.549,6.74-3.116,10.055-4.788,1.229-.62,3.443-1.355,4.231-2.593.416-.654-.623-1.255-1.037-.6-.824,1.295-4.188,2.363-5.564,3.04-4.008,1.969-8.074,3.822-12.139,5.668q-14.866,6.746-29.9,13.123c-10.867,4.638-21.942,8.737-32.818,13.352-17.845,7.577-35.287,16.22-53.333,23.312-6.836,2.687-13.961,4.579-20.6,7.751-1.7.814-3.4,1.615-5.156,2.31a47.923,47.923,0,0,1-5.29,1.268c-.636.175-.941,1.387-1.24,1.876-.96,1.572-2.186,2.893-3.008,4.56-.341.691.694,1.3,1.037.6Z" transform="translate(-350.135 -227.515)"/>
          </g>
          <path id="Path_16" data-name="Path 16" d="M373.642,297.371c11.58-5.791,118.038-48.965,129.065-53.506s14.916-6.486,21.726.323,32.1,33.4,36.646,38.914,16.214,11.675.323,21.727S456.334,354.77,444.985,359.958s-19.457,12.322-29.185,1.621-34.374-45.4-41.184-53.507S369.751,299.316,373.642,297.371Z" transform="translate(-304.651 -97.35)" fill="#afd1df"/>
          <g id="Group_12" data-name="Group 12" transform="translate(130.073 206.604)">
            <path id="Path_17" data-name="Path 17" d="M434.789,334.514a5.518,5.518,0,0,1-3.958-1.441c-.592-.562-1.168-1.1-1.718-1.618-3.246-3.038-5.39-5.045-5.138-6.785a2.237,2.237,0,0,1,1.38-1.648c4.547-2.273,15.2-6.994,25.5-11.556,9.448-4.188,18.372-8.141,22.279-10.064,14.215-6.995,19.327-9.424,22.214-7.529l.116.076c4.658,3.055,7.469,4.9,7.409,7.033-.037,1.249-1.033,2.372-3.232,3.641-4.849,2.8-23.146,11.246-35.254,16.837l-4.788,2.213c-2.957,1.368-5.912,2.946-8.77,4.471C444.692,331.42,438.9,334.514,434.789,334.514Zm58.3-40.045c-3.01,0-8.731,2.747-19.428,8.009-3.93,1.936-12.864,5.894-22.324,10.086-10.289,4.559-20.928,9.272-25.45,11.533-.668.335-.714.643-.728.745-.163,1.12,2.233,3.362,4.77,5.737.553.518,1.134,1.061,1.726,1.627a4.311,4.311,0,0,0,3.131,1.108c3.808,0,9.475-3.026,15.476-6.228,2.873-1.534,5.844-3.119,8.831-4.5l4.789-2.212c12.089-5.582,30.354-14.017,35.156-16.788,1.748-1.008,2.609-1.871,2.632-2.636.042-1.464-2.856-3.365-6.868-6l-.116-.077A2.84,2.84,0,0,0,493.092,294.469Z" transform="translate(-423.954 -293.253)"/>
          </g>
          <g id="Group_13" data-name="Group 13" transform="translate(112.087 239.701)">
            <path id="Path_18" data-name="Path 18" d="M416.855,336.46c-2.758,0-4.177-1.838-5.681-3.784-1.752-2.267-2.467-4.177-2.124-5.678a3.267,3.267,0,0,1,1.844-2.2,66.549,66.549,0,0,1,9.017-3.768,4.572,4.572,0,0,1,1.3-.2c1.915,0,3.067,1.384,4.524,3.137.3.362.618.743.96,1.136l.089.1c1.261,1.44,2.566,2.928,2.19,4.679-.346,1.61-2.06,3.07-5.4,4.592C420.57,335.85,418.5,336.46,416.855,336.46Zm4.352-14.426a3.375,3.375,0,0,0-.956.151,63.457,63.457,0,0,0-8.82,3.69,2.06,2.06,0,0,0-1.211,1.39c-.256,1.118.4,2.737,1.9,4.679,1.637,2.118,2.663,3.317,4.732,3.317,1.442,0,3.42-.6,6.22-1.874,2.881-1.315,4.469-2.576,4.722-3.752s-.8-2.364-1.918-3.635l-.09-.1c-.35-.4-.673-.788-.98-1.158C423.5,323.168,422.56,322.034,421.207,322.034Z" transform="translate(-408.966 -320.834)"/>
          </g>
          <g id="Group_14" data-name="Group 14" transform="translate(102.359 226.946)">
            <path id="Path_19" data-name="Path 19" d="M408.749,325.831c-2.759,0-4.18-1.838-5.683-3.784-1.752-2.267-2.466-4.176-2.123-5.678a3.268,3.268,0,0,1,1.844-2.2,63.632,63.632,0,0,1,9.016-3.767,4.58,4.58,0,0,1,1.3-.2c1.914,0,3.065,1.384,4.523,3.134.3.362.62.745.964,1.139l.09.1c1.26,1.439,2.562,2.926,2.185,4.676-.346,1.61-2.062,3.07-5.4,4.592C412.462,325.221,410.392,325.831,408.749,325.831ZM413.1,311.4a3.369,3.369,0,0,0-.956.151,63.656,63.656,0,0,0-8.82,3.689,2.066,2.066,0,0,0-1.212,1.392c-.256,1.118.4,2.737,1.9,4.678,1.637,2.118,2.665,3.317,4.734,3.317,1.442,0,3.418-.6,6.217-1.874,2.882-1.315,4.47-2.576,4.723-3.752s-.8-2.363-1.915-3.634l-.09-.1c-.352-.4-.677-.79-.984-1.16C415.4,312.538,414.451,311.4,413.1,311.4Z" transform="translate(-400.859 -310.205)"/>
          </g>
          <g id="Group_15" data-name="Group 15" transform="translate(92.63 214.19)">
            <path id="Path_20" data-name="Path 20" d="M400.641,315.2c-2.758,0-4.176-1.838-5.68-3.784-1.753-2.267-2.468-4.178-2.125-5.68a3.265,3.265,0,0,1,1.843-2.194,63.5,63.5,0,0,1,9.017-3.77,4.572,4.572,0,0,1,1.3-.2c1.914,0,3.065,1.384,4.523,3.133.3.362.619.746.964,1.14l.094.106c1.258,1.438,2.558,2.926,2.183,4.675-.346,1.609-2.06,3.068-5.4,4.591C404.356,314.592,402.284,315.2,400.641,315.2Zm4.351-14.428a3.366,3.366,0,0,0-.956.151,63.316,63.316,0,0,0-8.819,3.692,2.056,2.056,0,0,0-1.211,1.388c-.256,1.117.4,2.736,1.9,4.679,1.637,2.119,2.663,3.317,4.73,3.317,1.442,0,3.42-.6,6.22-1.874,2.88-1.315,4.468-2.576,4.721-3.752.25-1.16-.8-2.362-1.912-3.632l-.095-.106c-.35-.4-.674-.791-.983-1.162C407.286,301.909,406.343,300.775,404.992,300.775Z" transform="translate(-392.752 -299.575)"/>
          </g>
          <g id="Group_16" data-name="Group 16" transform="translate(82.902 201.436)">
            <path id="Path_21" data-name="Path 21" d="M392.534,304.575c-2.758,0-4.178-1.838-5.681-3.785-1.753-2.267-2.467-4.177-2.124-5.68a3.269,3.269,0,0,1,1.844-2.194,66.212,66.212,0,0,1,9.018-3.77,4.552,4.552,0,0,1,1.295-.2c1.913,0,3.065,1.385,4.523,3.137.3.361.619.743.962,1.136l.091.1c1.259,1.439,2.562,2.926,2.185,4.676-.347,1.61-2.06,3.07-5.4,4.592C396.248,303.963,394.177,304.575,392.534,304.575Zm4.352-14.429a3.361,3.361,0,0,0-.956.151,63.18,63.18,0,0,0-8.82,3.692,2.063,2.063,0,0,0-1.212,1.39c-.254,1.117.4,2.736,1.9,4.678,1.638,2.119,2.663,3.318,4.732,3.318,1.442,0,3.419-.6,6.218-1.876,2.881-1.315,4.47-2.578,4.722-3.752s-.8-2.363-1.915-3.634l-.09-.1c-.352-.4-.676-.79-.982-1.159C399.181,291.28,398.237,290.146,396.886,290.146Z" transform="translate(-384.645 -288.946)"/>
          </g>
          <g id="Group_17" data-name="Group 17" transform="translate(121.6 218.407)">
            <path id="Path_22" data-name="Path 22" d="M424.782,318.715c-2.758,0-4.177-1.837-5.681-3.782-1.753-2.268-2.467-4.178-2.124-5.681a3.266,3.266,0,0,1,1.843-2.195,63.7,63.7,0,0,1,9.017-3.767,4.534,4.534,0,0,1,1.3-.2c1.914,0,3.066,1.384,4.524,3.136.3.362.618.743.961,1.135l.089.1c1.261,1.44,2.564,2.928,2.188,4.68-.347,1.61-2.062,3.068-5.4,4.592C428.495,318.106,426.424,318.715,424.782,318.715Zm4.352-14.426a3.387,3.387,0,0,0-.958.152,63.652,63.652,0,0,0-8.82,3.689,2.062,2.062,0,0,0-1.211,1.388c-.254,1.12.4,2.737,1.9,4.681,1.638,2.118,2.664,3.316,4.732,3.316,1.442,0,3.418-.6,6.216-1.873,2.884-1.315,4.472-2.579,4.724-3.752s-.8-2.365-1.916-3.637l-.089-.1c-.35-.4-.673-.79-.98-1.158C431.43,305.423,430.487,304.289,429.134,304.289Z" transform="translate(-416.893 -303.089)"/>
          </g>
          <g id="Group_18" data-name="Group 18" transform="translate(111.87 205.652)">
            <path id="Path_23" data-name="Path 23" d="M416.675,308.086c-2.759,0-4.177-1.837-5.681-3.782-1.753-2.268-2.468-4.178-2.125-5.68a3.269,3.269,0,0,1,1.844-2.2,63.524,63.524,0,0,1,9.016-3.768,4.587,4.587,0,0,1,1.3-.2c1.915,0,3.066,1.382,4.524,3.134.3.362.618.744.962,1.138l.09.1c1.26,1.44,2.563,2.928,2.186,4.679-.346,1.61-2.062,3.07-5.4,4.594C420.389,307.477,418.318,308.086,416.675,308.086Zm4.351-14.426a3.391,3.391,0,0,0-.959.151,63.861,63.861,0,0,0-8.818,3.69,2.058,2.058,0,0,0-1.211,1.39c-.256,1.118.4,2.737,1.9,4.68,1.637,2.118,2.664,3.316,4.732,3.316,1.443,0,3.419-.6,6.218-1.873,2.881-1.315,4.47-2.579,4.722-3.754s-.8-2.364-1.915-3.635l-.09-.1c-.352-.4-.676-.79-.983-1.159C423.322,294.793,422.379,293.66,421.026,293.66Z" transform="translate(-408.785 -292.46)"/>
          </g>
          <g id="Group_19" data-name="Group 19" transform="translate(102.142 192.898)">
            <path id="Path_24" data-name="Path 24" d="M408.568,297.457c-2.759,0-4.178-1.837-5.681-3.782-1.753-2.269-2.468-4.178-2.125-5.68a3.271,3.271,0,0,1,1.843-2.2,63.88,63.88,0,0,1,9.017-3.768,4.58,4.58,0,0,1,1.3-.2c1.915,0,3.067,1.384,4.525,3.137.3.362.618.744.961,1.136l.09.1c1.26,1.439,2.562,2.927,2.186,4.676-.346,1.61-2.06,3.071-5.4,4.594C412.282,296.848,410.211,297.457,408.568,297.457Zm4.351-14.426a3.39,3.39,0,0,0-.959.151,63.75,63.75,0,0,0-8.819,3.69,2.059,2.059,0,0,0-1.21,1.39c-.256,1.118.4,2.737,1.9,4.68,1.637,2.118,2.663,3.316,4.732,3.316,1.442,0,3.419-.6,6.218-1.873,2.881-1.315,4.47-2.578,4.722-3.754s-.8-2.363-1.916-3.634l-.089-.1c-.35-.4-.673-.788-.98-1.158C415.216,284.165,414.272,283.031,412.919,283.031Z" transform="translate(-400.678 -281.831)"/>
          </g>
          <g id="Group_20" data-name="Group 20" transform="translate(140.84 209.869)">
            <path id="Path_25" data-name="Path 25" d="M440.815,311.6c-2.758,0-4.177-1.836-5.68-3.781-1.753-2.269-2.467-4.181-2.124-5.682a3.269,3.269,0,0,1,1.843-2.195,63.32,63.32,0,0,1,9.017-3.767,4.525,4.525,0,0,1,1.3-.2c1.915,0,3.067,1.384,4.525,3.138.3.361.618.74.96,1.133l.092.1c1.259,1.438,2.561,2.926,2.185,4.676-.346,1.608-2.06,3.068-5.4,4.594C444.53,310.988,442.457,311.6,440.815,311.6Zm4.352-14.425a3.376,3.376,0,0,0-.958.151,62.188,62.188,0,0,0-8.819,3.69,2.057,2.057,0,0,0-1.21,1.388c-.256,1.12.4,2.737,1.9,4.68,1.636,2.118,2.662,3.316,4.73,3.316,1.442,0,3.42-.594,6.22-1.872,2.881-1.316,4.47-2.58,4.722-3.754s-.8-2.363-1.915-3.634l-.091-.106c-.35-.4-.672-.787-.979-1.156C447.464,298.308,446.519,297.174,445.167,297.174Z" transform="translate(-432.927 -295.974)"/>
          </g>
          <g id="Group_21" data-name="Group 21" transform="translate(131.111 197.114)">
            <path id="Path_26" data-name="Path 26" d="M432.708,300.97c-2.758,0-4.178-1.836-5.682-3.781-1.752-2.269-2.466-4.181-2.122-5.682a3.268,3.268,0,0,1,1.843-2.195,63.635,63.635,0,0,1,9.017-3.767,4.527,4.527,0,0,1,1.295-.2c1.915,0,3.066,1.382,4.524,3.134.3.362.619.743.962,1.136l.091.1c1.26,1.44,2.562,2.928,2.185,4.679-.346,1.609-2.06,3.068-5.4,4.592C436.422,300.359,434.35,300.97,432.708,300.97Zm4.351-14.425a3.365,3.365,0,0,0-.955.151,62.521,62.521,0,0,0-8.82,3.69,2.059,2.059,0,0,0-1.211,1.388c-.257,1.118.4,2.737,1.9,4.68,1.637,2.118,2.664,3.316,4.733,3.316,1.442,0,3.419-.594,6.218-1.872,2.882-1.315,4.471-2.579,4.723-3.752s-.8-2.364-1.916-3.636l-.09-.1c-.352-.4-.676-.791-.983-1.159C439.356,287.678,438.411,286.545,437.059,286.545Z" transform="translate(-424.82 -285.345)"/>
          </g>
          <g id="Group_22" data-name="Group 22" transform="translate(121.382 184.36)">
            <path id="Path_27" data-name="Path 27" d="M424.6,290.341c-2.759,0-4.177-1.837-5.681-3.782-1.752-2.268-2.467-4.178-2.124-5.68a3.274,3.274,0,0,1,1.843-2.2,63.53,63.53,0,0,1,9.018-3.767,4.566,4.566,0,0,1,1.3-.2c1.915,0,3.068,1.385,4.526,3.139.3.36.616.74.958,1.132l.091.1c1.26,1.44,2.563,2.928,2.188,4.679-.346,1.61-2.062,3.068-5.4,4.592C428.315,289.73,426.242,290.341,424.6,290.341Zm4.352-14.425a3.374,3.374,0,0,0-.958.151,63.5,63.5,0,0,0-8.819,3.69,2.054,2.054,0,0,0-1.21,1.388c-.257,1.12.4,2.737,1.9,4.68,1.637,2.117,2.663,3.316,4.732,3.316,1.442,0,3.419-.6,6.218-1.873,2.881-1.315,4.471-2.578,4.723-3.752s-.8-2.363-1.916-3.635l-.091-.1c-.349-.4-.672-.788-.978-1.156C431.25,277.05,430.306,275.916,428.953,275.916Z" transform="translate(-416.712 -274.716)"/>
          </g>
          <g id="Group_23" data-name="Group 23" transform="translate(160.079 201.33)">
            <path id="Path_28" data-name="Path 28" d="M456.849,304.484c-2.759,0-4.178-1.837-5.681-3.784-1.752-2.267-2.467-4.178-2.125-5.678a3.277,3.277,0,0,1,1.844-2.2,63.5,63.5,0,0,1,9.018-3.767,4.565,4.565,0,0,1,1.3-.2c1.915,0,3.068,1.386,4.528,3.14.3.359.614.74.956,1.132l.09.1c1.26,1.439,2.563,2.927,2.188,4.679-.346,1.61-2.06,3.07-5.4,4.592C460.564,303.872,458.492,304.484,456.849,304.484Zm4.352-14.426a3.375,3.375,0,0,0-.958.151,63.473,63.473,0,0,0-8.819,3.69,2.062,2.062,0,0,0-1.212,1.39c-.256,1.118.4,2.736,1.9,4.678,1.637,2.119,2.663,3.318,4.732,3.318,1.442,0,3.419-.6,6.218-1.876,2.881-1.314,4.47-2.576,4.722-3.751s-.8-2.363-1.918-3.636l-.089-.1c-.349-.4-.672-.787-.978-1.156C463.5,291.193,462.554,290.058,461.2,290.058Z" transform="translate(-448.96 -288.858)"/>
          </g>
          <g id="Group_24" data-name="Group 24" transform="translate(150.352 188.574)">
            <path id="Path_29" data-name="Path 29" d="M448.743,293.854c-2.759,0-4.18-1.837-5.683-3.782-1.752-2.267-2.466-4.177-2.123-5.68a3.275,3.275,0,0,1,1.843-2.2,63.487,63.487,0,0,1,9.018-3.766,4.519,4.519,0,0,1,1.295-.2c1.915,0,3.067,1.386,4.526,3.14.3.361.617.742.959,1.133l.088.1c1.261,1.439,2.566,2.927,2.19,4.68-.346,1.609-2.06,3.068-5.4,4.592C452.456,293.244,450.386,293.854,448.743,293.854Zm4.35-14.426a3.416,3.416,0,0,0-.956.151,62.411,62.411,0,0,0-8.82,3.69,2.066,2.066,0,0,0-1.211,1.391c-.254,1.12.4,2.736,1.9,4.678,1.638,2.119,2.665,3.317,4.734,3.317,1.442,0,3.418-.6,6.217-1.873,2.882-1.315,4.47-2.578,4.722-3.754s-.8-2.363-1.919-3.636l-.088-.1c-.35-.4-.673-.788-.979-1.157C455.39,280.563,454.447,279.428,453.093,279.428Z" transform="translate(-440.853 -278.228)"/>
          </g>
          <g id="Group_25" data-name="Group 25" transform="translate(140.622 175.82)">
            <path id="Path_30" data-name="Path 30" d="M440.635,283.226c-2.759,0-4.177-1.837-5.681-3.782-1.753-2.269-2.468-4.181-2.125-5.682a3.272,3.272,0,0,1,1.844-2.194,63.386,63.386,0,0,1,9.016-3.768,4.542,4.542,0,0,1,1.3-.2c1.916,0,3.07,1.385,4.529,3.139.3.361.617.742.96,1.133l.09.1c1.26,1.439,2.561,2.927,2.185,4.678-.346,1.609-2.062,3.07-5.4,4.594C444.35,282.614,442.278,283.226,440.635,283.226Zm4.35-14.426a3.374,3.374,0,0,0-.956.151,63.208,63.208,0,0,0-8.818,3.691A2.057,2.057,0,0,0,434,274.03c-.257,1.12.4,2.737,1.9,4.68,1.637,2.118,2.664,3.317,4.732,3.317,1.444,0,3.42-.6,6.218-1.874,2.881-1.314,4.47-2.578,4.722-3.752s-.8-2.363-1.914-3.635l-.09-.1c-.35-.4-.673-.787-.98-1.156C447.283,269.935,446.339,268.8,444.985,268.8Z" transform="translate(-432.745 -267.6)"/>
          </g>
          <g id="Group_26" data-name="Group 26" transform="translate(179.32 192.79)">
            <path id="Path_31" data-name="Path 31" d="M472.882,297.367c-2.758,0-4.177-1.837-5.68-3.782-1.753-2.267-2.468-4.177-2.125-5.68a3.27,3.27,0,0,1,1.844-2.195,63.467,63.467,0,0,1,9.016-3.769,4.584,4.584,0,0,1,1.3-.2c1.915,0,3.067,1.384,4.524,3.134.3.362.619.745.964,1.139l.088.1c1.261,1.439,2.566,2.927,2.189,4.679-.346,1.61-2.06,3.071-5.4,4.594C476.6,296.757,474.525,297.367,472.882,297.367Zm4.351-14.426a3.39,3.39,0,0,0-.958.151,63.558,63.558,0,0,0-8.818,3.691,2.058,2.058,0,0,0-1.211,1.39c-.256,1.118.4,2.737,1.9,4.679,1.636,2.118,2.663,3.316,4.73,3.316,1.442,0,3.419-.594,6.218-1.873,2.882-1.316,4.472-2.578,4.723-3.754s-.8-2.364-1.918-3.636l-.088-.1c-.352-.4-.677-.791-.984-1.16C479.529,284.074,478.585,282.941,477.233,282.941Z" transform="translate(-464.993 -281.741)"/>
          </g>
          <g id="Group_27" data-name="Group 27" transform="translate(169.592 180.036)">
            <path id="Path_32" data-name="Path 32" d="M464.775,286.739c-2.758,0-4.178-1.838-5.68-3.784-1.752-2.266-2.467-4.177-2.124-5.68a3.271,3.271,0,0,1,1.843-2.2,63.716,63.716,0,0,1,9.017-3.767,4.582,4.582,0,0,1,1.3-.2c1.914,0,3.065,1.384,4.52,3.134.3.361.619.744.964,1.138l.089.1c1.261,1.439,2.566,2.927,2.19,4.678-.347,1.61-2.062,3.07-5.4,4.591C468.49,286.127,466.417,286.739,464.775,286.739Zm4.354-14.426a3.39,3.39,0,0,0-.959.151,63.406,63.406,0,0,0-8.819,3.69,2.057,2.057,0,0,0-1.21,1.39c-.256,1.118.4,2.737,1.9,4.679,1.637,2.118,2.663,3.317,4.73,3.317,1.442,0,3.42-.6,6.22-1.876,2.881-1.314,4.47-2.576,4.723-3.751s-.8-2.363-1.919-3.636l-.089-.1c-.352-.4-.676-.791-.983-1.16C471.423,273.447,470.479,272.313,469.128,272.313Z" transform="translate(-456.887 -271.113)"/>
          </g>
          <g id="Group_28" data-name="Group 28" transform="translate(159.863 167.28)">
            <path id="Path_33" data-name="Path 33" d="M456.668,276.111c-2.758,0-4.177-1.837-5.681-3.784-1.752-2.266-2.467-4.176-2.124-5.678a3.277,3.277,0,0,1,1.844-2.2,63.786,63.786,0,0,1,9.016-3.768,4.585,4.585,0,0,1,1.3-.2c1.914,0,3.065,1.382,4.521,3.133.3.362.62.745.965,1.139l.089.1c1.261,1.439,2.564,2.927,2.188,4.679-.346,1.61-2.062,3.071-5.4,4.594C460.382,275.5,458.312,276.111,456.668,276.111Zm4.352-14.428a3.381,3.381,0,0,0-.958.151,63.65,63.65,0,0,0-8.819,3.691,2.063,2.063,0,0,0-1.211,1.391c-.256,1.118.4,2.736,1.9,4.678,1.637,2.119,2.664,3.317,4.732,3.317,1.444,0,3.419-.6,6.218-1.874,2.882-1.315,4.472-2.578,4.724-3.754s-.8-2.364-1.919-3.636l-.088-.1c-.352-.4-.677-.791-.985-1.162C463.315,262.816,462.371,261.683,461.02,261.683Z" transform="translate(-448.779 -260.483)"/>
          </g>
          <g id="Group_29" data-name="Group 29" transform="translate(198.561 184.25)">
            <path id="Path_34" data-name="Path 34" d="M488.916,290.251c-2.758,0-4.177-1.836-5.681-3.781-1.752-2.268-2.467-4.178-2.123-5.68a3.267,3.267,0,0,1,1.844-2.2,63.437,63.437,0,0,1,9.014-3.769,4.58,4.58,0,0,1,1.3-.2c1.915,0,3.067,1.385,4.526,3.139.3.361.618.742.961,1.134l.091.1c1.26,1.439,2.562,2.926,2.185,4.675-.347,1.61-2.062,3.068-5.4,4.591C492.63,289.641,490.558,290.251,488.916,290.251Zm4.351-14.426a3.366,3.366,0,0,0-.956.151,63.557,63.557,0,0,0-8.818,3.691,2.062,2.062,0,0,0-1.212,1.39c-.256,1.12.4,2.737,1.9,4.68,1.637,2.117,2.664,3.314,4.732,3.314,1.442,0,3.419-.6,6.22-1.874,2.881-1.315,4.47-2.576,4.722-3.751s-.8-2.362-1.914-3.632l-.091-.1c-.35-.4-.674-.788-.982-1.157C495.565,276.96,494.619,275.825,493.267,275.825Z" transform="translate(-481.028 -274.625)"/>
          </g>
          <g id="Group_30" data-name="Group 30" transform="translate(206.776 197.222)">
            <path id="Path_35" data-name="Path 35" d="M495.761,301.061c-2.759,0-4.177-1.837-5.681-3.782-1.751-2.268-2.466-4.18-2.123-5.681a3.272,3.272,0,0,1,1.842-2.2,63.53,63.53,0,0,1,9.018-3.766,4.486,4.486,0,0,1,1.3-.2c1.915,0,3.066,1.385,4.524,3.137.3.362.618.744.961,1.136l.09.1c1.26,1.439,2.563,2.927,2.189,4.678-.346,1.609-2.062,3.07-5.4,4.594C499.476,300.451,497.4,301.061,495.761,301.061Zm4.352-14.426a3.425,3.425,0,0,0-.958.151,62.423,62.423,0,0,0-8.819,3.69,2.056,2.056,0,0,0-1.21,1.39c-.256,1.12.4,2.737,1.9,4.679,1.637,2.119,2.664,3.317,4.732,3.317,1.442,0,3.419-.6,6.218-1.873,2.882-1.316,4.471-2.579,4.724-3.754s-.8-2.363-1.918-3.635l-.089-.1c-.352-.4-.676-.79-.983-1.158C502.409,287.769,501.465,286.635,500.113,286.635Z" transform="translate(-487.873 -285.435)"/>
          </g>
          <g id="Group_31" data-name="Group 31" transform="translate(227.316 188.79)">
            <path id="Path_36" data-name="Path 36" d="M512.878,294.034c-2.758,0-4.177-1.837-5.681-3.782-1.752-2.268-2.467-4.18-2.123-5.681a3.265,3.265,0,0,1,1.843-2.2,63.832,63.832,0,0,1,9.016-3.767,4.587,4.587,0,0,1,1.3-.2c1.915,0,3.067,1.384,4.525,3.138.3.361.618.743.96,1.135l.089.1c1.261,1.438,2.566,2.926,2.189,4.676-.346,1.61-2.06,3.071-5.4,4.594C516.593,293.424,514.522,294.034,512.878,294.034Zm4.352-14.426a3.382,3.382,0,0,0-.958.151,62.772,62.772,0,0,0-8.819,3.689,2.065,2.065,0,0,0-1.211,1.391c-.255,1.118.4,2.737,1.9,4.68,1.637,2.118,2.664,3.316,4.732,3.316,1.444,0,3.419-.6,6.218-1.874,2.882-1.315,4.472-2.578,4.724-3.754s-.8-2.362-1.919-3.634l-.089-.1c-.35-.4-.674-.788-.98-1.158C519.526,280.742,518.582,279.608,517.23,279.608Z" transform="translate(-504.99 -278.408)"/>
          </g>
          <g id="Group_32" data-name="Group 32" transform="translate(188.832 171.497)">
            <path id="Path_37" data-name="Path 37" d="M480.81,279.623c-2.758,0-4.178-1.837-5.682-3.782-1.753-2.267-2.467-4.178-2.124-5.681a3.271,3.271,0,0,1,1.844-2.195,63.428,63.428,0,0,1,9.018-3.768,4.557,4.557,0,0,1,1.295-.2c1.914,0,3.066,1.382,4.524,3.134.3.362.618.744.961,1.138l.092.1c1.259,1.439,2.561,2.926,2.185,4.675-.347,1.61-2.062,3.071-5.4,4.594C484.524,279.013,482.453,279.623,480.81,279.623Zm4.351-14.426a3.374,3.374,0,0,0-.956.151,62.285,62.285,0,0,0-8.819,3.69,2.054,2.054,0,0,0-1.212,1.39c-.256,1.118.4,2.737,1.9,4.68,1.638,2.118,2.664,3.316,4.733,3.316,1.442,0,3.419-.6,6.218-1.873,2.88-1.316,4.469-2.578,4.721-3.754s-.8-2.362-1.913-3.632l-.092-.106c-.352-.4-.674-.79-.982-1.159C487.456,266.33,486.512,265.2,485.161,265.2Z" transform="translate(-472.92 -263.997)"/>
          </g>
          <g id="Group_33" data-name="Group 33" transform="translate(179.105 158.742)">
            <path id="Path_38" data-name="Path 38" d="M472.7,268.994c-2.755,0-4.176-1.837-5.68-3.782-1.752-2.268-2.466-4.18-2.123-5.68a3.268,3.268,0,0,1,1.843-2.2,63.6,63.6,0,0,1,9.018-3.768,4.552,4.552,0,0,1,1.295-.2c1.913,0,3.065,1.385,4.524,3.136.3.361.618.744.961,1.136l.091.1c1.26,1.439,2.562,2.927,2.185,4.678-.346,1.609-2.06,3.068-5.4,4.59C476.414,268.382,474.343,268.994,472.7,268.994Zm4.354-14.426a3.373,3.373,0,0,0-.956.151,62.578,62.578,0,0,0-8.82,3.69,2.068,2.068,0,0,0-1.211,1.391c-.256,1.117.4,2.736,1.9,4.679,1.638,2.118,2.664,3.316,4.73,3.316,1.442,0,3.419-.6,6.22-1.876,2.882-1.314,4.471-2.575,4.723-3.751s-.8-2.363-1.916-3.634l-.09-.1c-.35-.4-.676-.788-.98-1.158C479.35,255.7,478.405,254.568,477.054,254.568Z" transform="translate(-464.814 -253.368)"/>
          </g>
          <g id="Group_34" data-name="Group 34" transform="translate(217.8 175.712)">
            <path id="Path_39" data-name="Path 39" d="M504.95,283.135c-2.759,0-4.178-1.836-5.681-3.781-1.753-2.268-2.467-4.178-2.125-5.68a3.276,3.276,0,0,1,1.844-2.2,63.519,63.519,0,0,1,9.018-3.767,4.519,4.519,0,0,1,1.3-.2c1.914,0,3.066,1.385,4.525,3.138.3.361.618.742.96,1.134l.09.1c1.26,1.439,2.563,2.927,2.186,4.678-.346,1.609-2.06,3.067-5.4,4.591C508.664,282.524,506.593,283.135,504.95,283.135ZM509.3,268.71a3.387,3.387,0,0,0-.958.152,63.5,63.5,0,0,0-8.82,3.69,2.066,2.066,0,0,0-1.211,1.39c-.254,1.118.4,2.736,1.9,4.679,1.637,2.117,2.663,3.314,4.732,3.314,1.442,0,3.418-.6,6.217-1.873,2.882-1.315,4.471-2.578,4.724-3.752s-.8-2.362-1.916-3.634l-.09-.1c-.35-.4-.674-.788-.979-1.156C511.6,269.845,510.655,268.71,509.3,268.71Z" transform="translate(-497.061 -267.51)"/>
          </g>
          <g id="Group_35" data-name="Group 35" transform="translate(208.072 162.956)">
            <path id="Path_40" data-name="Path 40" d="M496.84,272.508c-2.758,0-4.176-1.837-5.677-3.782-1.753-2.269-2.468-4.178-2.126-5.68a3.267,3.267,0,0,1,1.844-2.2,63.715,63.715,0,0,1,9.016-3.769,4.576,4.576,0,0,1,1.295-.2c1.918,0,3.071,1.386,4.53,3.142.3.36.616.74.959,1.132l.09.1c1.26,1.44,2.562,2.928,2.186,4.679-.347,1.61-2.062,3.068-5.4,4.591C500.556,271.9,498.483,272.508,496.84,272.508Zm4.351-14.428a3.416,3.416,0,0,0-.956.151,62.713,62.713,0,0,0-8.818,3.691,2.057,2.057,0,0,0-1.21,1.39c-.256,1.118.4,2.737,1.9,4.68,1.634,2.117,2.662,3.316,4.728,3.316,1.444,0,3.42-.6,6.22-1.874,2.881-1.315,4.471-2.578,4.723-3.751s-.8-2.364-1.915-3.636l-.09-.1c-.349-.4-.673-.788-.979-1.156C503.491,259.216,502.546,258.08,501.192,258.08Z" transform="translate(-488.954 -256.88)"/>
          </g>
          <g id="Group_36" data-name="Group 36" transform="translate(198.344 150.203)">
            <path id="Path_41" data-name="Path 41" d="M488.736,261.878c-2.759,0-4.18-1.838-5.682-3.784-1.751-2.267-2.466-4.177-2.124-5.678a3.276,3.276,0,0,1,1.844-2.2,63.336,63.336,0,0,1,9.017-3.768,4.522,4.522,0,0,1,1.295-.2c1.916,0,3.068,1.385,4.528,3.138.3.361.618.742.961,1.135l.092.1c1.258,1.438,2.56,2.924,2.183,4.674-.347,1.61-2.06,3.07-5.4,4.592C492.45,261.268,490.379,261.878,488.736,261.878Zm4.35-14.426a3.373,3.373,0,0,0-.956.151,63.441,63.441,0,0,0-8.819,3.69,2.062,2.062,0,0,0-1.21,1.39c-.256,1.12.4,2.737,1.9,4.679,1.638,2.118,2.664,3.317,4.733,3.317,1.442,0,3.418-.6,6.217-1.874,2.882-1.315,4.471-2.578,4.723-3.752s-.8-2.362-1.913-3.631l-.091-.106c-.35-.4-.673-.788-.98-1.157C495.384,248.587,494.439,247.452,493.086,247.452Z" transform="translate(-480.847 -246.252)"/>
          </g>
          <path id="Path_42" data-name="Path 42" d="M346.708,172.643c-6.971,2.681-15.133,5.836-13.619,13.836,2.018,10.669,9.942,40.86,14.483,59.669s11.674,43.019,13.187,48.858,2.378,12.752,10.592,9.3S492.2,252.63,501.931,247.66s12.756-5.62,10.811-13.4S499.77,163.346,496.527,148s-4.975-19.457-18.161-15.565S360.759,167.236,346.708,172.643Z" transform="translate(-312.091 -119.088)" fill="#afd1df"/>
          <path id="Path_43" data-name="Path 43" d="M459.829,242.638c-1.662.97-8.794,4.278-18.07,8.456-1.283.583-2.608,1.166-3.956,1.776-5.033,2.258-10.518,4.67-15.995,7.069-8.623,3.775-17.251,7.5-24.138,10.378-5.6,2.348-10.052,4.139-12.426,4.956-11.233,3.892-15.125.648-18.368-9.937S349.366,204.8,347.2,196.149s2.4-11.622,11.676-15.126c8-3.035,56.206-18.16,71.342-23.14s15.137,1.945,17.082,8.431c.208.674.521,1.777.922,3.229,2.519,9.08,8.522,31.65,12.557,46.541q.427,1.557.817,3c.131.505.259.983.39,1.452.024.091.052.181.076.272.235.842.442,1.621.636,2.374.624,2.192,1.116,3.97,1.466,5.189C466.964,238.1,465.017,239.6,459.829,242.638Z" transform="translate(-309.339 -114.062)" fill="#fff"/>
          <path id="Path_44" data-name="Path 44" d="M427.969,238.8c-1.283.583-2.608,1.166-3.956,1.776-1.894-3.58-6.083-14.89-7.964-19.457-.156-.4-.3-.766-.428-1.049l3.4-2.429s.364.884.947,2.3C421.885,224.574,426.167,234.885,427.969,238.8Z" transform="translate(-295.548 -101.771)" fill="#ffe7b8"/>
          <g id="Group_37" data-name="Group 37" transform="translate(100.775 54.883)">
            <path id="Path_45" data-name="Path 45" d="M451.31,218.308c-3.464,2.946-43.942,17.621-44.576,15.558-.65-2.113-5.508-40.049-6.324-46.055s-.648-6.641,4.058-8.262c4.645-1.609,23.725-9.546,33.078-12.232" transform="translate(-399.44 -166.719)" fill="#fff"/>
            <path id="Path_46" data-name="Path 46" d="M407.386,234.752a1.962,1.962,0,0,1-.52-.055.836.836,0,0,1-.606-.554c-.481-1.56-2.982-20.5-5.29-38.123-.492-3.762-.875-6.688-1.056-8.027-.841-6.158-.626-7.159,4.457-8.911,1.462-.506,4.339-1.634,7.981-3.062,7.9-3.1,18.713-7.337,25.127-9.178a.6.6,0,0,1,.331,1.153c-6.359,1.825-17.146,6.054-25.02,9.142-3.655,1.433-6.542,2.566-8.026,3.079-4.321,1.489-4.458,1.774-3.662,7.615.182,1.34.565,4.268,1.058,8.033,1.609,12.3,4.56,34.849,5.191,37.71,3.58.362,40.159-12.638,43.667-15.623a.6.6,0,0,1,.779.913C448.587,221.6,413.165,234.752,407.386,234.752Z" transform="translate(-399.539 -166.818)"/>
          </g>
          <path id="Path_47" data-name="Path 47" d="M414.333,245.7c-8.623,3.775-17.251,7.5-24.138,10.378-2.244-5.759-5.828-17.306-6.152-22.6,7.783-5.67,19.889-6.1,19.889-6.1S412.167,238.1,414.333,245.7Z" transform="translate(-301.864 -99.825)"/>
          <path id="Path_48" data-name="Path 48" d="M372.083,232.565c-.648,3.73-5.677,8.755-3.245,11.675s6-1.3,6.649-5.189c-.325,6.972,3.73,2.918,1.946-5.027A4.439,4.439,0,0,0,372.083,232.565Z" transform="translate(-305.037 -98.86)" fill="#ffa66b"/>
          <path id="Path_49" data-name="Path 49" d="M405.075,198.167c.325-4.865,1.784-7.621,3.731-7.135s-.487,3.082-.487,3.082c3.892-1.948,7.135-4.054,7.783-1.46s-4.864,6.485-6.323,7.458S405.075,198.167,405.075,198.167Z" transform="translate(-297.657 -107.104)" fill="#ffa66b"/>
          <path id="Path_50" data-name="Path 50" d="M368.641,241c-.216,1.081,7.891,1.946,9.512,2.272s3.35-13.35,3.674-15.456c1.19,10.051,2.218,14.7,3.352,14.7s24.1-8.215,23.941-10-6.485-14.27-6.485-14.27c6.647,2.6,14.917,1.135,15.89-18.646-3.244-2.107-6.486-3.083-6.973-2.756S409.77,209,406.527,209.166s-10.7-6-18.972-3.242S370.586,215.166,368.641,241Z" transform="translate(-304.945 -105.943)" fill="#99bb4e"/>
          <path id="Path_51" data-name="Path 51" d="M382.726,210.86c-.647-2.755-.647-5.351-1.944-5.512s-8.23-1.7-9.041-10.134,11.148-12.568,14.066-8.675,5.189,10.538,2.27,15.241c-2.27,2.918-.487,4.054,0,6.809S383.536,212.644,382.726,210.86Z" transform="translate(-304.332 -108.286)" fill="#ffa66b"/>
          <path id="Path_52" data-name="Path 52" d="M415.751,180.782c1.944,2.431,4.054,3.566,4.054,5.189.162,3.566-11.189,17.185,4.538,21.4,12,3.218,13.944-7.62,13.621-13.782s-12.486-8.269-11.838-9.406c.974-6,1.3-6.809.163-6.809S416.236,179.483,415.751,180.782Z" transform="translate(-295.522 -109.824)" fill="#ffe7b8"/>
          <path id="Path_53" data-name="Path 53" d="M413.183,209.987c4.7-2.756,15.727-14.916,18.16-16.375s5.513,10.213-1.458,16.213S414.48,213.717,413.183,209.987Z" transform="translate(-296.036 -106.602)" fill="#ff8f46"/>
          <path id="Path_54" data-name="Path 54" d="M434.471,156.6c2.918-.972,18.05-5.945,19.242-6.378s1.619,3.461,1.943,5.946.218,2.812-2.918,3.892-13.726,4.542-15.348,4.866-1.946-.652-2.378-2.489S433.391,157.141,434.471,156.6Z" transform="translate(-291.867 -115.262)" fill="#ffe7b8"/>
          <path id="Path_55" data-name="Path 55" d="M466.069,150.64c.768-4.37-8.106-6.593-9.4,0S464.989,156.8,466.069,150.64Z" transform="translate(-287.363 -116.002)" fill="#d5f0fd"/>
          <g id="Group_38" data-name="Group 38" transform="translate(147.536 46.365)">
            <path id="Path_56" data-name="Path 56" d="M439.087,172.913a14.6,14.6,0,0,0,6.433-1.619c2.978-1.343,5.908-2.726,8.926-3.992a91.513,91.513,0,0,1,9.248-3.607c2.936-.872,5.885-1.405,8.611-2.861.683-.365.077-1.4-.6-1.037-2.617,1.4-5.486,1.974-8.326,2.741a58,58,0,0,0-7.322,2.792c-2.591,1.094-5.246,2.074-7.792,3.27-2.972,1.4-5.772,3.19-9.174,3.113a.6.6,0,0,0,0,1.2Z" transform="translate(-438.507 -159.72)"/>
          </g>
          <g id="Group_39" data-name="Group 39" transform="translate(150.419 58.821)">
            <path id="Path_57" data-name="Path 57" d="M441.828,178.376c6.22-2.8,12.83-4.537,19.152-7.074.709-.284.4-1.445-.319-1.157-6.419,2.575-13.123,4.352-19.438,7.2-.706.317-.095,1.351.6,1.036Z" transform="translate(-440.91 -170.1)"/>
          </g>
          <g id="Group_40" data-name="Group 40" transform="translate(173.63 55.258)">
            <path id="Path_58" data-name="Path 58" d="M461,170.924a65.593,65.593,0,0,0,8.918-2.6c.715-.271.4-1.432-.319-1.156a65.887,65.887,0,0,1-8.918,2.594c-.755.169-.434,1.326.319,1.157Z" transform="translate(-460.252 -167.131)"/>
          </g>
          <g id="Group_41" data-name="Group 41" transform="translate(152.724 70.058)">
            <path id="Path_59" data-name="Path 59" d="M443.713,184.124c3.068-1.994,6.908-2.107,10.214-3.566.707-.312.1-1.345-.6-1.036-3.318,1.464-7.123,1.556-10.214,3.565-.647.42-.046,1.459.6,1.037Z" transform="translate(-442.831 -179.464)"/>
          </g>
          <g id="Group_42" data-name="Group 42" transform="translate(155.628 72.455)">
            <path id="Path_60" data-name="Path 60" d="M446,192.378c5.075-.869,9.8-2.837,14.587-4.662,5.258-2.006,10.7-3.372,16.058-5.066.734-.233.421-1.392-.319-1.157-5.023,1.588-10.142,2.845-15.079,4.7-5.117,1.922-10.148,4.1-15.566,5.027-.762.131-.438,1.286.319,1.157Z" transform="translate(-445.251 -181.462)"/>
          </g>
          <g id="Group_43" data-name="Group 43" transform="translate(156.256 82.184)">
            <path id="Path_61" data-name="Path 61" d="M446.692,197.831c3.052-1.355,6.324-2.018,9.46-3.131,3.388-1.2,6.572-2.862,10.016-3.943.737-.23.422-1.39-.318-1.157-3.449,1.082-6.672,2.6-10.018,3.942-3.188,1.279-6.592,1.853-9.745,3.253-.707.313-.095,1.346.6,1.036Z" transform="translate(-445.773 -189.569)"/>
          </g>
          <g id="Group_44" data-name="Group 44" transform="translate(159.002 91.408)">
            <path id="Path_62" data-name="Path 62" d="M449.112,204.307c2.08-1.741,5.064-1.963,7.573-2.771,2.784-.9,5.515-1.954,8.215-3.076.7-.292.4-1.453-.319-1.157a88.609,88.609,0,0,1-9.977,3.612c-2.285.64-4.476.982-6.341,2.543-.594.5.259,1.342.848.848Z" transform="translate(-448.062 -197.256)"/>
          </g>
          <g id="Group_45" data-name="Group 45" transform="translate(160.349 91.748)">
            <path id="Path_63" data-name="Path 63" d="M450.063,210.829c2.333-1.549,5.054-2.058,7.7-2.839,2.731-.8,5.347-1.834,8.022-2.788a73.983,73.983,0,0,0,14.435-6.533c.656-.407.054-1.446-.6-1.036-5.064,3.151-10.624,4.876-16.079,7.159-4.532,1.9-9.953,2.258-14.078,5-.641.426-.041,1.466.6,1.036Z" transform="translate(-449.185 -197.54)"/>
          </g>
          <g id="Group_46" data-name="Group 46" transform="translate(161.94 108.149)">
            <path id="Path_64" data-name="Path 64" d="M451.419,219.285c5.246-2.694,10.939-4.342,16.214-6.973.692-.346.086-1.381-.6-1.036-5.276,2.63-10.968,4.279-16.214,6.972-.69.354-.083,1.388.6,1.037Z" transform="translate(-450.511 -211.207)"/>
          </g>
          <g id="Group_47" data-name="Group 47" transform="translate(191.404 239.423)">
            <path id="Path_65" data-name="Path 65" d="M478.454,336.552a3.017,3.017,0,0,1-1.621-.419c-1.3-.8-1.645-2.606-1.769-5.071l1.2-.06c.092,1.8.3,3.552,1.2,4.109.776.484,2.23.239,4.446-.738,5-2.2,10.475-4.69,13.094-6.434,2.437-1.625,3.389-2.732,2.977-7.228l1.2-.109c.445,4.867-.668,6.444-3.508,8.335-2.688,1.79-7.969,4.2-13.277,6.535A10.339,10.339,0,0,1,478.454,336.552Z" transform="translate(-475.064 -320.602)"/>
          </g>
          <path id="Path_66" data-name="Path 66" d="M387.4,185.758c-.163-3.892-9.768-3.434-15.4,3.283a4.525,4.525,0,0,0-.56,4.452,3.812,3.812,0,0,0-1.183,2.6c-.283,4.3,2.728,10.175,7.7,8.554a9.783,9.783,0,0,0-1.256-2.676c-3.893.77-3.893-4.985-.689-3.079,1.964.426-1.4-4.764,1.174-7.134C381.4,187.867,387.562,189.65,387.4,185.758Z" transform="translate(-304.626 -108.64)"/>
        </g>
        <path id="Path_67" data-name="Path 67" d="M503.817,215.352c-2.269,6.671-1.808,17.4,9.762,22.343S563.5,241.228,572.8,233c7.261-6.422,4.867-16.555.452-24.7C565.764,194.459,510.973,194.73,503.817,215.352Z" transform="translate(-237.534 -34.446)" fill="#ffe7b8"/>
        <g id="Group_49" data-name="Group 49" transform="translate(240.672 291.486)">
          <path id="Path_68" data-name="Path 68" d="M625.466,358.935c4.573-5.51,17.566-23.886,6.731-43.932-12.539-2.594-19.241-9.079-21.4-9.728s-9.332,6.224-19.24,7.784c-31.565,4.97-34.217,20.039-34.307,20.1-7.524-3.113-18.737-3.328-36.172,6.71-28.536,16.429-33.509,19.889-36.967,22.7.482.772,1.357,2.071,2.509,3.731-1.721,1.252-4.018,1.69-3.806,2.755.206,1.032,21.334,34.825,28.112,41.213a40.846,40.846,0,0,0,3.017,3.754c4.541,4.757,48.859-10.811,64.64-18.16s51.235-24.646,49.29-30.265C627.182,363.6,626.357,361.231,625.466,358.935Z" transform="translate(-482.194 -304.636)" fill="#fff"/>
          <path id="Path_69" data-name="Path 69" d="M517.624,415.6h0c-2.011,0-3.325-.35-4.014-1.073a41.133,41.133,0,0,1-3.067-3.814c-6.833-6.424-27.982-40.277-28.218-41.448-.222-1.124.923-1.687,2.136-2.282.452-.221.95-.466,1.418-.752-1-1.445-1.746-2.562-2.177-3.253a.6.6,0,0,1,.13-.782c3.41-2.77,8.3-6.205,37.048-22.754,10.007-5.761,18.952-8.682,26.586-8.682a26.484,26.484,0,0,1,9.505,1.7c1.249-3.647,7.356-15.6,34.592-19.892,5.8-.913,10.6-3.658,14.114-5.663,2.562-1.464,4.295-2.426,5.39-2.1a14.331,14.331,0,0,1,2.926,1.684,50.458,50.458,0,0,0,18.427,8.034.591.591,0,0,1,.406.3c10.876,20.118-1.968,38.688-6.571,44.328.836,2.183,1.616,4.415,2.286,6.35,1.948,5.627-25.9,19.966-49.6,31C564.524,403.211,529.546,415.6,517.624,415.6ZM485,362.793c.5.77,1.253,1.882,2.209,3.259a.6.6,0,0,1-.142.827,13.745,13.745,0,0,1-2.084,1.184c-.534.263-1.53.752-1.487.97.521,1.39,21.185,34.532,27.936,40.892a42.508,42.508,0,0,0,3.04,3.776c.25.262.991.7,3.148.7,11.564,0,46.842-12.488,60.805-18.99,30.968-14.423,50.192-26.011,48.977-29.526-.7-2.022-1.52-4.369-2.4-6.636a.6.6,0,0,1,.1-.6c4.25-5.123,17.257-23.317,6.794-43.02a52.325,52.325,0,0,1-18.568-8.147,15.143,15.143,0,0,0-2.611-1.537.557.557,0,0,0-.148-.018c-.776,0-2.411.935-4.3,2.015-3.59,2.051-8.508,4.86-14.522,5.807-28.259,4.45-33.1,17.072-33.788,19.556a.931.931,0,0,1-.29.454.6.6,0,0,1-.552.048,25.093,25.093,0,0,0-9.654-1.847c-7.422,0-16.165,2.868-25.988,8.522C493.965,356.324,488.385,360.1,485,362.793Z" transform="translate(-482.295 -304.735)"/>
        </g>
        <g id="Group_50" data-name="Group 50" transform="translate(244.498 352.547)">
          <path id="Path_70" data-name="Path 70" d="M485.563,356.52c3.028,5.478,7.477,10.265,11.156,15.3,4.577,6.266,9.03,12.649,13.14,19.232.409.655,1.447.054,1.036-.6-3.912-6.268-8.135-12.356-12.479-18.329C494.53,366.78,489.8,361.7,486.6,355.915c-.373-.677-1.411-.072-1.036.6Z" transform="translate(-485.483 -355.619)"/>
        </g>
        <g id="Group_51" data-name="Group 51" transform="translate(315.121 319.406)">
          <path id="Path_71" data-name="Path 71" d="M544.515,329.024c5.737,5.639,10.994,11.7,16.14,17.879,5.207,6.247,11.05,12.365,15.479,19.193.42.647,1.459.046,1.036-.6-4.3-6.631-9.929-12.523-14.966-18.6a247.913,247.913,0,0,0-16.84-18.719c-.552-.542-1.4.306-.848.848Z" transform="translate(-544.335 -328.002)"/>
        </g>
        <g id="Group_52" data-name="Group 52" transform="translate(2.77 289.376)">
          <path id="Path_72" data-name="Path 72" d="M284.608,303.4c-1.309,4.878-.128,10.07,1.334,14.773,2.25,7.238,5.888,14.054,9.728,20.555,8.91,15.071,20.255,28.808,30.667,42.858,8.879,11.981,17.719,24.022,27.157,35.572,6.683,8.177,13.822,16,20.924,23.808,8.292,9.119,16.684,18.152,25.255,27.008,5.232,5.4,10.459,11.273,16.853,15.346,20.581,13.108,46.444-2.266,65.485-11.189q34.376-16.11,68.522-32.717c.7-.337.088-1.373-.6-1.036q-23.951,11.6-47.989,23.017c-11.711,5.567-23.435,11.1-35.215,16.523-12.286,5.651-26.425,11.309-40.184,8.286-7.639-1.676-13.476-6.569-18.912-11.893-7.895-7.736-15.434-15.848-22.951-23.95-8.195-8.832-16.309-17.748-24.216-26.839-8.274-9.512-15.9-19.546-23.467-29.624-11.294-15.049-22.883-30-33.63-45.448a142.312,142.312,0,0,1-13.936-24.39c-2.633-6.059-5.453-13.681-3.665-20.341a.6.6,0,0,0-1.157-.319Z" transform="translate(-284.043 -302.977)"/>
        </g>
        <g id="Group_53" data-name="Group 53" transform="translate(458.567 284.577)">
          <path id="Path_73" data-name="Path 73" d="M664.454,340.33c6.113.07,12.4-2.656,17.964-4.872,8.844-3.523,17.425-7.716,25.9-12.046,13.823-7.067,28.086-14.333,40.813-23.288.628-.442.029-1.483-.6-1.037-12.348,8.688-26.159,15.724-39.541,22.634-8.431,4.354-16.982,8.522-25.764,12.126-5.752,2.36-12.414,5.354-18.764,5.282a.6.6,0,0,0,0,1.2Z" transform="translate(-663.874 -298.978)"/>
        </g>
        <g id="Group_65" data-name="Group 65" transform="translate(263.734 167.82)">
          <path id="Path_74" data-name="Path 74" d="M594.037,340.642c-5.19-.433-16.864,3.024-22.267.863s1.3-6.485,8-5.836,12.54-3.026,4.757-4.974-22.051.216-14.916-6.7c1.729-3.89,6.053-5.189,8-4.756,2.81-7.782,23.35,3.461,31.132,2.81C614.576,332.21,614.575,339.128,594.037,340.642Z" transform="translate(-488.282 -178.72)" fill="#ff8f46"/>
          <path id="Path_75" data-name="Path 75" d="M595.428,215.194c-9.818,5.2-17.513,19.442-18.863,27.527s-.856,11.029-3.26,11.2c-3.636.264-6.83-.1-7.7,2.113-1.579,4.026,4.988,4.392,4.794,9.4s-4.234,22.907-.576,34.454,10.4,17.326,20.02,19.057,14.244-3.852,15.205,6.352,3.08,30.222,3.08,30.222l39.074-9.24L639.7,313.943S657.41,207.88,595.428,215.194Z" transform="translate(-488.743 -199.05)" fill="#ffa66b"/>
          <g id="Group_54" data-name="Group 54" transform="translate(117.411 141.21)">
            <path id="Path_76" data-name="Path 76" d="M599.356,319.934c.361,6.368,1.51,12.971.757,19.34-.09.768,1.111.76,1.2,0,.752-6.37-.4-12.972-.757-19.34-.043-.769-1.243-.774-1.2,0Z" transform="translate(-599.355 -319.356)"/>
          </g>
          <path id="Path_77" data-name="Path 77" d="M588.663,219.1c2.887,0,10,2.2,10.381,7.008-4.234,9.43-2.309,17.323,5.2,22.519s11.935,10.01,2.7,18.288-9.432,18.671,1.732,25.984,13.86,9.818,9.238,19.444-11,18.455-1.651,29.674c9.084-6.677,18.017-7.345,26.291-6.575s13.476,0,18.481-9.817,15.592-5.582,23.867-3.079,12.512-.578,16.554-10.2,11.743-8.086,17.324-9.433,7.508-15.974,12.511-18.094c-7.7-6.353-11.5-1.1-15.928-6.106s1.351-15.583-4.808-22.7-15.571,1.442-17.88-4.525,10.321-12.284-2.77-27.107-23.1-3.275-31.759-14.437S608.492,196.383,588.663,219.1Z" transform="translate(-484.083 -201.681)"/>
          <g id="Group_55" data-name="Group 55" transform="translate(96.929 32.74)">
            <path id="Path_78" data-name="Path 78" d="M582.8,230.033c3.518-.034,6.481,2.99,7.567,6.154.223.648,1.255.37,1.031-.283-1.24-3.612-4.586-6.977-8.6-6.94a.535.535,0,0,0,0,1.069Z" transform="translate(-582.287 -228.964)"/>
          </g>
          <g id="Group_56" data-name="Group 56" transform="translate(82.039 75.455)">
            <path id="Path_79" data-name="Path 79" d="M570.054,267.421a8.111,8.111,0,0,0,6.451,2.1c2.768-.464,4.628-2.3,6.689-4.067.523-.448-.235-1.2-.756-.756-3.491,2.99-7.349,5.64-11.628,1.97-.52-.448-1.278.3-.756.755Z" transform="translate(-569.879 -264.56)"/>
          </g>
          <path id="Path_80" data-name="Path 80" d="M585.136,247.849c-.353,2.286-1.747,3.966-3.112,3.756s-2.186-2.234-1.834-4.518,1.746-3.967,3.11-3.757S585.487,245.566,585.136,247.849Z" transform="translate(-485.794 -193.354)"/>
          <path id="Path_81" data-name="Path 81" d="M563.073,370.328c-1.5.857-6.486-.648-11.676-3.034-.062-.091-.155-.2-.259-.326-3.839-4.409-33.193-33.632-38.861-41.831a.9.9,0,0,1-.078-.156c-3.373-6.214,10.482-12.348,13.906-8.923,3.463,3.461,31.78,40.43,33.944,42.6a6.344,6.344,0,0,1,.935,1.284C562.813,363.129,564.369,369.589,563.073,370.328Z" transform="translate(-499.481 -179.002)"/>
          <path id="Path_82" data-name="Path 82" d="M512.2,324.981c-3.373-6.214,10.482-12.348,13.906-8.923C528.387,320.623,516.947,329.96,512.2,324.981Z" transform="translate(-499.481 -179.002)" fill="#ffe7b8"/>
          <path id="Path_83" data-name="Path 83" d="M556.5,362.851c-1.5.857-6.486-.648-11.676-3.034-.062-.091-.155-.2-.259-.326a8.743,8.743,0,0,0,9.846-7.03C556.236,355.652,557.792,362.111,556.5,362.851Z" transform="translate(-492.903 -171.525)" fill="#ffe7b8"/>
          <path id="Path_84" data-name="Path 84" d="M517.039,366.55c.216-8.431,3.6-24.168,11.166-27.193,3.167,3.235,5.215,5.444,5.215,5.444-1.728,5.4,3.294,9.21,7.616,7.048s6.049-7.783,11.024-8.434,2.812,4.542-.648,10.594-8.213,12.758-14.7,14.272C529.794,369.793,517.9,370.009,517.039,366.55Z" transform="translate(-498.408 -174.145)" fill="#ffa66b"/>
          <path id="Path_85" data-name="Path 85" d="M544.357,400.6a123.7,123.7,0,0,0-2.378-29.4c-1.3-5.188-11.244-11.672-23.132-.648s-24.43,73.072-12.539,89.5,35.35,15.406,49.619,2.2c20.6-19.062,41.864-39.42,43.811-40.5s-3.486,57.106.19,65.1c27.023,7.134,142.619-10.59,144.782-13.4s5.177-24.848-14.064-70.25c17.082-1.55,26.419-12.773,12.682-39.752-11.134-21.865-27.37-33.6-51.8-40.248-33.8-9.2-62.855-1.729-90.528,20.322S548.03,395.2,544.357,400.6Z" transform="translate(-501.513 -178.146)" fill="#99bb4e"/>
          <g id="Group_57" data-name="Group 57" transform="translate(81.231 144.137)">
            <path id="Path_86" data-name="Path 86" d="M570.122,323.769c2.892-1.325,6.19-.7,9.181-.17a23.771,23.771,0,0,1,8.663,2.878c.658.412,1.26-.626.6-1.036-3.259-2.038-7.043-2.677-10.777-3.316a14.134,14.134,0,0,0-8.276.608c-.7.323-.093,1.356.6,1.036Z" transform="translate(-569.205 -321.795)"/>
          </g>
          <g id="Group_58" data-name="Group 58" transform="translate(85.596 140.107)">
            <path id="Path_87" data-name="Path 87" d="M573.6,320.236a21.2,21.2,0,0,1,10.476.274,37.307,37.307,0,0,1,8.52,3.4.6.6,0,0,0,.6-1.036,41.41,41.41,0,0,0-9.851-3.81c-3.527-.983-6.538-.67-10.069.019-.76.148-.437,1.3.319,1.157Z" transform="translate(-572.843 -318.437)"/>
          </g>
          <g id="Group_59" data-name="Group 59" transform="translate(22.036 215.126)">
            <path id="Path_88" data-name="Path 88" d="M520.988,412.526c3.235-6.108,8.774-10.7,13.111-16.007,1.973-2.416,3.875-4.86,6.016-7.133,2.39-2.538,5.124-4.705,7.369-7.385.493-.588-.35-1.442-.848-.848-2.242,2.676-4.932,4.9-7.369,7.385s-4.508,5.286-6.7,7.97c-4.2,5.143-9.472,9.479-12.614,15.413-.361.683.674,1.289,1.037.6Z" transform="translate(-519.876 -380.952)"/>
          </g>
          <g id="Group_60" data-name="Group 60" transform="translate(213.82 188.803)">
            <path id="Path_89" data-name="Path 89" d="M679.8,359.892c4.218,6.193,6.654,14.318,9.456,21.29,2.383,5.934,5.506,12.128,6.9,18.4.168.756,1.325.436,1.158-.318-1.435-6.474-4.674-12.868-7.135-18.994-2.773-6.9-5.158-14.845-9.338-20.982-.432-.636-1.472-.036-1.036.6Z" transform="translate(-679.697 -359.016)"/>
          </g>
          <path id="Path_90" data-name="Path 90" d="M515.018,321.341c1.459,2.918,8.107-.811,6.322-3.244S513.233,319.558,515.018,321.341Z" transform="translate(-498.875 -178.553)"/>
          <path id="Path_91" data-name="Path 91" d="M555.091,356.35c-.862,2.286-2.876,4.954-4.687,5.288,2.3.671,4.117.893,4.924.434S555.844,359.026,555.091,356.35Z" transform="translate(-491.735 -170.747)"/>
          <g id="Group_61" data-name="Group 61" transform="translate(84.151 179.728)">
            <path id="Path_92" data-name="Path 92" d="M572.381,353.33c10.005-2.858,17.68,3.907,23.376,11.4,6.253,8.221,7.884,18.22,6.448,28.28-.108.756,1.049,1.082,1.158.319,1.546-10.838-.317-21.4-7.247-30.094-6.044-7.588-13.862-13.973-24.054-11.063a.6.6,0,0,0,.319,1.158Z" transform="translate(-571.638 -351.454)"/>
          </g>
          <g id="Group_62" data-name="Group 62" transform="translate(102.79 155.341)">
            <path id="Path_93" data-name="Path 93" d="M588.375,353.456c1.82-4.55,6.187-8,9.366-11.632a79.626,79.626,0,0,1,10.879-9.7c.606-.481-.25-1.324-.848-.848a93.187,93.187,0,0,0-12.2,11.2c-2.994,3.367-6.643,6.391-8.354,10.664-.287.718.872,1.027,1.158.318Z" transform="translate(-587.171 -331.132)"/>
          </g>
          <g id="Group_63" data-name="Group 63" transform="translate(95.887 232.21)">
            <path id="Path_94" data-name="Path 94" d="M582.429,408.249a51.946,51.946,0,0,1,6.344-5.482c2.654-2.111,5.13-4.435,7.754-6.583.6-.491-.256-1.336-.848-.85-2.386,1.954-4.715,3.986-7.046,6-2.359,2.04-4.943,3.744-7.052,6.065-.52.571.326,1.423.848.848Z" transform="translate(-581.418 -395.189)"/>
          </g>
          <g id="Group_64" data-name="Group 64" transform="translate(110.481 246.627)">
            <path id="Path_95" data-name="Path 95" d="M593.612,407.783c0,7.865-.085,15.736.022,23.6.1,7.741.842,15.457.878,23.2a.6.6,0,0,0,1.2,0c-.036-7.744-.713-15.462-.878-23.2-.169-7.86-.022-15.738-.022-23.6a.6.6,0,0,0-1.2,0Z" transform="translate(-593.58 -407.203)"/>
          </g>
        </g>
        <g id="Group_66" data-name="Group 66" transform="translate(264.03 74.915)">
          <path id="Path_96" data-name="Path 96" d="M538.787,226.486c-5.339-17.135-11.587-34.044-17.587-50.956-5.738-16.175-12.436-32.262-16.783-48.881a14.331,14.331,0,0,1-.329-1.519c-.226-1.526-2.538-.875-2.314.638a57.778,57.778,0,0,0,2.629,9.092c1.675,5.162,3.45,10.295,5.236,15.42,2.736,7.854,5.576,15.668,8.392,23.492,6.205,17.248,12.266,34.577,18,51.986.149.454.3.908.439,1.364.458,1.472,2.777.844,2.314-.638Z" transform="translate(-501.759 -124.26)"/>
        </g>
        <path id="Path_97" data-name="Path 97" d="M490.339,105.789c4.105-2.594,9.944-4.108,13.835-1.946s11.459,11.456,8.646,20.97-12.322,6.486-16.214,4.108S484.717,110.545,490.339,105.789Z" transform="translate(-240.402 -53.635)" fill="#99bb4e"/>
        <g id="Group_67" data-name="Group 67" transform="translate(260.185 6.795)">
          <path id="Path_98" data-name="Path 98" d="M500.613,115.431c3.127-3.048,7.062-5.482,10.571-8.051q10.026-7.34,20.152-14.544c10.774-7.711,21.6-15.352,32.378-23.05,1.248-.89.052-2.974-1.211-2.071-10.961,7.824-21.961,15.592-32.911,23.43q-10.044,7.189-20.03,14.464c-3.535,2.588-7.5,5.053-10.645,8.125-1.109,1.082.589,2.778,1.7,1.7Z" transform="translate(-498.555 -67.493)"/>
        </g>
        <path id="Path_99" data-name="Path 99" d="M574.3,93.08C567.477,93.9,556.786,96.106,557,108s1.08,12.538-3.244,15.348-21.186,18.593-17.725,35.022,30.7,24,55.991,17.513,31.349-17.513,29.62-27.24-9.083-25.512-19.242-28.753c-9.511-3.029-8.431-3.676-9.728-12.756S586.838,91.566,574.3,93.08Z" transform="translate(-230.968 -55.625)" fill="#afd1df"/>
        <g id="Group_68" data-name="Group 68" transform="translate(332.394 9.262)">
          <path id="Path_100" data-name="Path 100" d="M558.779,71.035c3,10.708,8.02,20.89,10.376,31.78.326,1.513,2.64.872,2.314-.637-2.357-10.891-7.376-21.073-10.376-31.78a1.2,1.2,0,0,0-2.314.637Z" transform="translate(-558.729 -69.549)"/>
        </g>
        <g id="Group_69" data-name="Group 69" transform="translate(249.79 52.843)">
          <path id="Path_101" data-name="Path 101" d="M490.471,107.075c3.962-.227,7.082,5.154,8.609,8.174,1.187,2.352,4.358,11.717-.12,12.7-.756.166-.434,1.322.319,1.157,4.694-1.03,2.887-8.627,1.964-11.659-1.292-4.254-5.473-11.873-10.772-11.57-.769.044-.774,1.244,0,1.2Z" transform="translate(-489.893 -105.867)"/>
        </g>
        <g id="Group_70" data-name="Group 70" transform="translate(267.985 178.458)">
          <path id="Path_102" data-name="Path 102" d="M505.063,214.825c2.245,15.04,23.112,14.663,34.636,14.135,8.38-.385,17.4-1.408,25.28-4.409,5.783-2.2,8.344-7.543,8.636-13.427.04-.774-1.16-.769-1.2,0-.362,7.3-4.221,11.411-11.087,13.314a102.25,102.25,0,0,1-22.681,3.37c-6.925.317-13.529.2-20.239-1.691a22.422,22.422,0,0,1-9.121-4.572c-2.048-1.85-2.677-4.436-3.066-7.038-.113-.764-1.27-.438-1.158.318Z" transform="translate(-505.056 -210.546)"/>
        </g>
        <path id="Path_103" data-name="Path 103" d="M552.187,66.858c1.222,6.115,4.322,9.294,9.511,6.917s2.16-7.568-.216-10.378S551.105,61.453,552.187,66.858Z" transform="translate(-227.664 -61.831)" fill="#ffe7b8"/>
        <g id="Group_71" data-name="Group 71" transform="translate(324.986 1.162)">
          <path id="Path_104" data-name="Path 104" d="M553.475,64.154c3.211-1.4,8.5,4.889,6.191,7.706-.486.593.358,1.447.848.848,3.229-3.938-3.137-11.561-7.644-9.59-.708.308-.1,1.343.6,1.036Z" transform="translate(-552.556 -62.799)"/>
        </g>
        <g id="Group_72" data-name="Group 72" transform="translate(329.883 43.779)">
          <path id="Path_105" data-name="Path 105" d="M556.749,98.747c-1.076,5.814,5.862,7.067,10.206,7.319,6.026.349,14.526-.828,18.131-6.21.432-.646-.608-1.246-1.037-.606-3.046,4.548-9.846,5.4-14.891,5.633-3.661.164-12.268-.325-11.251-5.818.139-.756-1.016-1.079-1.158-.318Z" transform="translate(-556.637 -98.313)"/>
        </g>
        <g id="Group_73" data-name="Group 73" transform="translate(326.084 66.275)">
          <path id="Path_106" data-name="Path 106" d="M553.471,117.64c.143,7.026,7.9,8.682,13.462,8.972,7.971.419,16.085-.761,20.948-7.8.442-.638-.6-1.238-1.036-.606-4.1,5.93-11,7.463-17.81,7.3-5.233-.124-14.219-.666-14.364-7.864a.6.6,0,0,0-1.2,0Z" transform="translate(-553.471 -117.06)"/>
        </g>
      </g>
    </g>
  </g>
</svg>
