<svg id="Group_76" data-name="Group 76" xmlns="http://www.w3.org/2000/svg" xmlns:xlink="http://www.w3.org/1999/xlink" width="1170" height="720" viewBox="0 0 1170 720">
  <defs>
    <clipPath id="clip-path">
      <rect id="Rectangle_4" data-name="Rectangle 4" width="1170" height="720" fill="none"/>
    </clipPath>
  </defs>
  <g id="Group_75" data-name="Group 75" clip-path="url(#clip-path)">
    <g id="Group_74" data-name="Group 74" transform="translate(417.12 21.295)">
      <path id="Path_1" data-name="Path 1" d="M301.57,358.594c1.3,29.835,3.245,172.521,3.89,177.707s29.187,1.3,29.187,1.3l-4.538-148.522Z" transform="translate(-265.866 175.58)" fill="#ba9066"/>
      <g id="Group_1" data-name="Group 1" transform="translate(0 192.086)">
        <path id="Path_2" data-name="Path 2" d="M413.024,346.147c-47.743,17.3-105.714,44.1-119.336,55.775s-15.57,55.121-3.245,77.179,94.691,131.656,112.853,153.713,51.237,68.1,58.37,75.881,42.16,33.728,103.772,0,492.907-242.568,529.875-271.105c19.458-16.861,24-34.369-5.835-71.989S966.893,205.408,944.843,185.949s-46.692-23.346-88.2-5.186S502.525,313.718,413.024,346.147Z" transform="translate(-281.332 -168.145)" fill="#fff"/>
        <path id="Path_3" data-name="Path 3" d="M507.979,726.869h0c-29.974,0-44.964-15.41-46.573-17.167-3.4-3.706-12.569-15.937-23.189-30.1C426.2,663.579,412.581,645.417,403,633.787,385.543,612.58,302.484,502.17,290.059,479.94c-12.5-22.379-10.571-66.285,3.445-78.3,13.333-11.425,70.346-38.084,119.617-55.937,98.087-35.539,402.95-147.6,443.563-165.362,18.137-7.936,33.381-11.794,46.6-11.794,15.791,0,29.317,5.443,42.559,17.129,16.819,14.846,75.445,90.529,114.239,140.609,12.526,16.169,23.344,30.136,30.5,39.161,30.6,38.588,24.876,56.628,5.719,73.228-23.931,18.475-209.412,110.7-358.45,184.8-80.32,39.937-149.686,74.426-171.581,86.411C545.687,721.154,526.071,726.869,507.979,726.869ZM903.284,170.345c-12.965,0-27.972,3.809-45.878,11.642-40.649,17.78-345.571,129.861-443.671,165.4-49.111,17.795-105.858,44.3-119.059,55.615-13.237,11.345-14.974,54.706-3.046,76.055,12.391,22.169,95.324,132.4,112.763,153.581,9.6,11.66,23.238,29.84,35.266,45.88,10.591,14.125,19.737,26.323,23.074,29.963,1.555,1.7,16.042,16.583,45.247,16.583,17.789,0,37.111-5.639,57.429-16.763,21.926-12,91.307-46.5,171.643-86.443,148.968-74.068,334.363-166.25,358.115-184.583,18.787-16.283,23.848-33.089-5.992-70.718-7.164-9.032-17.986-23-30.516-39.177-38.75-50.026-97.315-125.627-114.008-140.36C931.757,175.646,918.613,170.345,903.284,170.345Z" transform="translate(-281.734 -168.545)"/>
      </g>
      <g id="Group_8" data-name="Group 8" transform="translate(97.494 493.001)">
        <path id="Path_4" data-name="Path 4" d="M425.965,344.882c-17.2-6.248-26.969-12.028-31.8-7.6s-34.5,40.619-45.292,55.589-16.209,23.186-10.933,28.546,54.6,31.6,74.677,42.314,51.026,22.541,58.437,24.48,9.374,4.052,19.571-16.637,21.186-47.421,21.186-47.421Z" transform="translate(-335.898 -335.72)" fill="#ffa66b"/>
        <path id="Path_5" data-name="Path 5" d="M419.185,338.569c-14.083,4.012-44.271,14.335-46.624,15.251s-12.586,18.311-11.961,22.561,17.7,87.073,19.944,93.51,9.567,12.782,20.1,9.236,99.351-27.889,105.971-30.9.65-23.958-5.027-42.05S443.461,335.848,419.185,338.569Z" transform="translate(-316.158 -333.523)" fill="#ffe7b8"/>
        <g id="Group_2" data-name="Group 2" transform="translate(43.551 19.411)">
          <path id="Path_6" data-name="Path 6" d="M361.223,370.822c3.85-.7,20.572-1.436,20.5-7.933-.067-6.278-6.683-10.021-7.913-15.737-.243-1.136-1.978-.653-1.735.479.877,4.079,4.777,7.781,6.712,11.426a6.84,6.84,0,0,1,1.073,4.153c-.306,1.795-4.451,2.858-5.749,3.263-4.313,1.337-8.939,1.805-13.369,2.612-1.141.209-.657,1.942.479,1.737Z" transform="translate(-360.093 -346.504)"/>
        </g>
        <g id="Group_3" data-name="Group 3" transform="translate(70.087 36.573)">
          <path id="Path_7" data-name="Path 7" d="M375.965,370.2a59.969,59.969,0,0,0,8.546-2.66c3.442-1.168,7.038-1.933,10.5-3.08,7.135-2.365,14.263-5.2,21.649-6.662,1.139-.227.655-1.962-.477-1.737-6.928,1.375-13.433,4.136-20.174,6.165s-13.619,5-20.522,6.237c-1.141.207-.657,1.942.479,1.737Z" transform="translate(-374.835 -356.039)"/>
        </g>
        <g id="Group_4" data-name="Group 4" transform="translate(62.826 43.592)">
          <path id="Path_8" data-name="Path 8" d="M372.106,379.677c4.082-2.916,8.915-2.185,13.572-3.035,5.827-1.066,11.412-3.692,16.924-5.769,5.618-2.117,11.236-4.189,17.019-5.816,5.668-1.595,11.542-2.113,17.284-3.359,1.134-.247.655-1.982-.477-1.737-5.751,1.249-11.587,1.861-17.287,3.361a191.044,191.044,0,0,0-18.535,6.386c-5.587,2.108-11.752,5.3-17.827,5.5-4.028.128-8.215.515-11.581,2.92-.936.668-.038,2.23.909,1.553Z" transform="translate(-370.801 -359.938)"/>
        </g>
        <g id="Group_5" data-name="Group 5" transform="translate(73.947 72.98)">
          <path id="Path_9" data-name="Path 9" d="M378.3,389.29c5.771-3.755,12.775-4.135,19.264-5.906,3.474-.95,6.79-2.27,10.181-3.467,2.257-.8,4.581-.8,6.732-1.98,1.019-.558.112-2.113-.905-1.553-2.774,1.526-6.232,1.744-9.2,2.846a86.379,86.379,0,0,1-9.841,3.074c-5.9,1.429-11.939,2.048-17.138,5.432-.97.63-.068,2.187.907,1.553Z" transform="translate(-376.98 -376.264)"/>
        </g>
        <g id="Group_6" data-name="Group 6" transform="translate(73.966 73.719)">
          <path id="Path_10" data-name="Path 10" d="M377.859,398.6c12.3-.682,23.906-5.362,35.613-8.816,6.629-1.955,13.262-3.9,19.822-6.086,5.288-1.757,10.822-2.711,15.773-5.355,1.024-.547.117-2.1-.907-1.555-4.819,2.574-10.217,3.431-15.343,5.175-6,2.043-12.089,3.809-18.167,5.6-12.051,3.544-24.136,8.536-36.79,9.238-1.156.065-1.161,1.867,0,1.8Z" transform="translate(-376.99 -376.675)"/>
        </g>
        <g id="Group_7" data-name="Group 7" transform="translate(80.024 101.382)">
          <path id="Path_11" data-name="Path 11" d="M381.478,401.345c5.191-1.21,10.31-2.54,15.4-4.126,2.979-.929,6.538-1.519,9.077-3.445.913-.691.018-2.255-.907-1.553-2.653,2.011-6.541,2.606-9.675,3.584-4.743,1.478-9.533,2.677-14.369,3.8-1.13.265-.652,2,.477,1.737Z" transform="translate(-380.355 -392.044)"/>
        </g>
      </g>
      <g id="Group_48" data-name="Group 48" transform="translate(60.887 106.654)">
        <path id="Path_12" data-name="Path 12" d="M338.3,191.035c-10.049,3.58-25.292,13.622-22.374,31.619s29.669,122.092,41.83,160.52,11.677,43.29,29.187,63.722,60.318,87.07,80.746,102.634,20.918,16.54,51.563,6.323,159.545-75.395,184.84-87.07,45.238-20.916,37.94-36.967-19.942-29.673-41.346-51.563-63.234-62.262-66.64-66.638c-3.892-29.673-16.537-80.26-19.458-99.716s-11.671-63.236-15.079-76.37-11.185-21.4-39.4-13.135S367,180.82,338.3,191.035Z" transform="translate(-315.56 -121.083)" fill="#d5f0fd"/>
        <g id="Group_9" data-name="Group 9" transform="translate(12.489 71.513)">
          <path id="Path_13" data-name="Path 13" d="M328.709,161.047c-8.6,7.526-6.332,18.277-4.52,28.49,2.6,14.618,6.305,29.034,10.017,43.4,8.512,32.945,17.584,65.747,26.546,98.573,2.943,10.775,5.935,21.541,8.73,32.357,2.432,9.412,5.972,18.351,11.464,25.722,17.525,23.521,35.068,47.034,52.979,70.258,11.4,14.783,23.461,28.908,37.058,41.735,3.231,3.047,6.548,6.874,10.589,8.89s8.865,1.3,13.1.365c14.643-3.218,28.629-10.669,42.212-16.9,15.2-6.971,30.332-14.081,45.452-21.215q41.413-19.54,82.627-39.5c12.6-6.118,25.157-12.308,37.768-18.4,8.4-4.059,17.273-8.1,24.44-14.179,3.569-3.028,6.161-7.249,3.762-11.774-.544-1.028-2.1-.119-1.553.907,4.459,8.411-12.476,15.8-17.811,18.619-10.586,5.585-21.537,10.48-32.258,15.8-11.916,5.915-23.906,11.675-35.894,17.44q-48.773,23.458-97.837,46.312c-13.624,6.313-27.248,12.915-41.357,18.081-6,2.2-13.448,5.085-19.942,3.526-4.266-1.024-7.646-5.179-10.708-8.023-26.343-24.462-47.128-54.239-68.634-82.867Q393.693,403.7,382.5,388.681c-5.877-7.889-9.022-16.576-11.479-26.046-7.2-27.763-15.055-55.364-22.547-83.054-5.789-21.388-11.6-42.781-16.873-64.3-2.783-11.354-5.54-22.846-6.941-34.461-.893-7.393-.475-13.421,5.321-18.5.877-.765-.4-2.034-1.273-1.273Z" transform="translate(-322.499 -160.813)"/>
        </g>
        <g id="Group_10" data-name="Group 10" transform="translate(176.522 424.172)">
          <path id="Path_14" data-name="Path 14" d="M413.628,357.6v13.619a.9.9,0,0,0,1.8,0V357.6a.9.9,0,0,0-1.8,0Z" transform="translate(-413.628 -356.734)"/>
        </g>
        <g id="Group_11" data-name="Group 11" transform="translate(62.235 191.577)">
          <path id="Path_15" data-name="Path 15" d="M351.793,343.232a54.311,54.311,0,0,1,4.511-6.838c1.723-2.47,3.263-2.214,6.059-2.981,5.96-1.636,11.358-5.031,17.048-7.364,12.146-4.977,24.71-8.717,36.794-13.928,26.824-11.569,53.271-23.985,80.316-35.041,29.34-12,58.6-23.926,87.421-37.166,5.062-2.324,10.111-4.675,15.082-7.182,1.843-.931,5.164-2.032,6.347-3.89.625-.981-.934-1.883-1.555-.907-1.237,1.942-6.282,3.544-8.347,4.559-6.012,2.954-12.11,5.733-18.209,8.5q-22.3,10.12-44.852,19.685c-16.3,6.957-32.913,13.106-49.226,20.029-26.768,11.365-52.931,24.331-80,34.969-10.255,4.03-20.941,6.869-30.9,11.626-2.552,1.22-5.1,2.423-7.735,3.465s-5.253,1.165-7.935,1.9c-.954.263-1.411,2.081-1.859,2.813-1.44,2.358-3.28,4.34-4.513,6.84-.511,1.037,1.04,1.949,1.555.907Z" transform="translate(-350.135 -227.515)"/>
        </g>
        <path id="Path_16" data-name="Path 16" d="M375.409,326.182c17.37-8.687,177.057-73.447,193.6-80.258s22.374-9.729,32.589.484,48.157,50.1,54.968,58.37,24.322,17.512.484,32.591-157.6,74.912-174.625,82.694-29.185,18.482-43.778,2.432-51.561-68.1-61.776-80.26S369.572,329.1,375.409,326.182Z" transform="translate(-271.923 -26.15)" fill="#afd1df"/>
        <g id="Group_12" data-name="Group 12" transform="translate(195.109 309.906)">
          <path id="Path_17" data-name="Path 17" d="M440.206,355.144a8.277,8.277,0,0,1-5.936-2.162c-.887-.842-1.751-1.651-2.578-2.426-4.869-4.558-8.086-7.567-7.708-10.177a3.356,3.356,0,0,1,2.07-2.471c6.82-3.409,22.8-10.49,38.25-17.334,14.171-6.282,27.558-12.211,33.419-15.1,21.323-10.492,28.991-14.135,33.322-11.293l.175.113c6.988,4.583,11.2,7.349,11.113,10.55-.056,1.874-1.55,3.559-4.847,5.461-7.274,4.2-34.718,16.87-52.88,25.256l-7.182,3.319c-4.435,2.052-8.869,4.419-13.154,6.707C455.061,350.5,446.367,355.144,440.206,355.144Zm87.455-60.068c-4.514,0-13.1,4.12-29.142,12.013-5.895,2.9-19.3,8.842-33.485,15.129-15.433,6.838-31.392,13.909-38.174,17.3-1,.5-1.071.965-1.093,1.118-.245,1.679,3.35,5.044,7.155,8.606.83.778,1.7,1.591,2.588,2.441a6.467,6.467,0,0,0,4.7,1.661c5.711,0,14.213-4.54,23.215-9.342,4.309-2.3,8.766-4.678,13.246-6.754l7.184-3.317c18.133-8.374,45.531-21.026,52.735-25.182,2.623-1.512,3.913-2.806,3.947-3.955.063-2.2-4.284-5.047-10.3-8.993l-.175-.115A4.259,4.259,0,0,0,527.661,295.076Z" transform="translate(-423.954 -293.253)"/>
        </g>
        <g id="Group_13" data-name="Group 13" transform="translate(168.131 359.552)">
          <path id="Path_18" data-name="Path 18" d="M420.8,344.274c-4.136,0-6.266-2.758-8.521-5.675-2.628-3.4-3.7-6.266-3.186-8.518a4.9,4.9,0,0,1,2.767-3.294,99.82,99.82,0,0,1,13.525-5.652,6.858,6.858,0,0,1,1.944-.3c2.873,0,4.6,2.075,6.786,4.705.45.544.927,1.114,1.44,1.7l.133.149c1.892,2.16,3.848,4.392,3.285,7.018-.518,2.416-3.091,4.6-8.095,6.889C426.372,343.357,423.263,344.274,420.8,344.274Zm6.529-21.64a5.062,5.062,0,0,0-1.435.227,95.19,95.19,0,0,0-13.23,5.535,3.091,3.091,0,0,0-1.816,2.084c-.383,1.678.6,4.106,2.855,7.018,2.455,3.177,3.994,4.975,7.1,4.975,2.164,0,5.13-.895,9.329-2.812,4.322-1.973,6.7-3.865,7.083-5.629.374-1.742-1.206-3.546-2.876-5.452l-.135-.153c-.526-.6-1.01-1.183-1.471-1.737C430.771,324.335,429.356,322.634,427.328,322.634Z" transform="translate(-408.966 -320.834)"/>
        </g>
        <g id="Group_14" data-name="Group 14" transform="translate(153.538 340.42)">
          <path id="Path_19" data-name="Path 19" d="M412.694,333.645c-4.138,0-6.269-2.758-8.525-5.675-2.628-3.4-3.7-6.264-3.184-8.518a4.9,4.9,0,0,1,2.767-3.3,95.446,95.446,0,0,1,13.523-5.65,6.869,6.869,0,0,1,1.946-.3c2.871,0,4.6,2.075,6.784,4.7.452.544.931,1.118,1.445,1.708l.135.153c1.89,2.158,3.843,4.388,3.278,7.015-.518,2.416-3.092,4.6-8.095,6.889C418.263,332.728,415.158,333.645,412.694,333.645ZM419.221,312a5.053,5.053,0,0,0-1.435.227,95.489,95.489,0,0,0-13.23,5.533,3.1,3.1,0,0,0-1.818,2.088c-.383,1.678.6,4.106,2.855,7.016,2.455,3.177,4,4.975,7.1,4.975,2.164,0,5.126-.895,9.326-2.812,4.324-1.973,6.7-3.865,7.085-5.629.374-1.742-1.2-3.544-2.873-5.45l-.135-.155c-.527-.6-1.015-1.184-1.476-1.741C422.664,313.7,421.247,312,419.221,312Z" transform="translate(-400.859 -310.205)"/>
        </g>
        <g id="Group_15" data-name="Group 15" transform="translate(138.946 321.286)">
          <path id="Path_20" data-name="Path 20" d="M404.585,323.016c-4.136,0-6.264-2.758-8.519-5.675-2.63-3.4-3.7-6.268-3.188-8.519a4.9,4.9,0,0,1,2.765-3.29,95.258,95.258,0,0,1,13.525-5.656,6.859,6.859,0,0,1,1.944-.3c2.871,0,4.6,2.075,6.784,4.7.452.544.929,1.12,1.445,1.71l.14.158c1.886,2.156,3.838,4.388,3.274,7.013-.518,2.414-3.091,4.6-8.093,6.887C410.158,322.1,407.049,323.016,404.585,323.016Zm6.527-21.641a5.05,5.05,0,0,0-1.435.227,94.978,94.978,0,0,0-13.228,5.539,3.084,3.084,0,0,0-1.816,2.083c-.383,1.676.6,4.1,2.857,7.018,2.455,3.179,3.994,4.975,7.1,4.975,2.164,0,5.13-.893,9.329-2.812,4.32-1.973,6.7-3.865,7.081-5.629.374-1.741-1.2-3.542-2.867-5.449l-.142-.158c-.526-.6-1.012-1.186-1.474-1.742C414.553,303.076,413.138,301.375,411.112,301.375Z" transform="translate(-392.752 -299.575)"/>
        </g>
        <g id="Group_16" data-name="Group 16" transform="translate(124.353 302.154)">
          <path id="Path_21" data-name="Path 21" d="M396.478,312.389c-4.136,0-6.268-2.758-8.521-5.677-2.63-3.4-3.7-6.266-3.186-8.519a4.9,4.9,0,0,1,2.767-3.29,99.32,99.32,0,0,1,13.527-5.656,6.828,6.828,0,0,1,1.942-.3c2.869,0,4.6,2.077,6.784,4.705.452.542.929,1.114,1.444,1.7l.137.155c1.888,2.158,3.843,4.388,3.278,7.015-.52,2.416-3.091,4.6-8.095,6.889C402.049,311.471,398.942,312.389,396.478,312.389Zm6.529-21.643a5.041,5.041,0,0,0-1.435.227,94.776,94.776,0,0,0-13.23,5.539,3.094,3.094,0,0,0-1.818,2.084c-.382,1.676.6,4.1,2.857,7.016,2.457,3.179,3.994,4.977,7.1,4.977,2.164,0,5.128-.895,9.328-2.813,4.322-1.973,6.705-3.866,7.083-5.629.374-1.744-1.2-3.544-2.873-5.45l-.135-.157c-.527-.6-1.013-1.184-1.472-1.739C406.448,292.447,405.033,290.746,403.007,290.746Z" transform="translate(-384.645 -288.946)"/>
        </g>
        <g id="Group_17" data-name="Group 17" transform="translate(182.399 327.611)">
          <path id="Path_22" data-name="Path 22" d="M428.726,326.529c-4.136,0-6.266-2.756-8.521-5.674-2.63-3.4-3.7-6.268-3.186-8.521a4.9,4.9,0,0,1,2.765-3.292,95.556,95.556,0,0,1,13.525-5.65,6.8,6.8,0,0,1,1.946-.3c2.871,0,4.6,2.075,6.786,4.7.452.544.927,1.114,1.442,1.7l.133.153c1.892,2.16,3.847,4.392,3.281,7.02-.52,2.416-3.092,4.6-8.1,6.889C434.3,325.614,431.19,326.529,428.726,326.529Zm6.529-21.64a5.08,5.08,0,0,0-1.436.229,95.481,95.481,0,0,0-13.23,5.533,3.093,3.093,0,0,0-1.816,2.083c-.382,1.679.6,4.106,2.857,7.022,2.457,3.177,4,4.973,7.1,4.973,2.164,0,5.126-.893,9.324-2.81,4.325-1.973,6.709-3.868,7.087-5.629.376-1.744-1.2-3.548-2.875-5.456l-.133-.153c-.526-.6-1.01-1.184-1.471-1.737C438.7,306.59,437.283,304.889,435.255,304.889Z" transform="translate(-416.893 -303.089)"/>
        </g>
        <g id="Group_18" data-name="Group 18" transform="translate(167.805 308.479)">
          <path id="Path_23" data-name="Path 23" d="M420.62,315.9c-4.138,0-6.266-2.756-8.521-5.674-2.63-3.4-3.7-6.268-3.188-8.519a4.9,4.9,0,0,1,2.767-3.294,95.293,95.293,0,0,1,13.523-5.652,6.88,6.88,0,0,1,1.946-.3c2.873,0,4.6,2.074,6.786,4.7.452.544.927,1.116,1.444,1.706l.135.151c1.89,2.16,3.845,4.392,3.28,7.018-.518,2.416-3.092,4.6-8.095,6.89C426.191,314.985,423.084,315.9,420.62,315.9Zm6.527-21.64a5.085,5.085,0,0,0-1.438.227,95.786,95.786,0,0,0-13.226,5.535,3.087,3.087,0,0,0-1.816,2.084c-.383,1.678.6,4.106,2.857,7.02,2.455,3.177,4,4.973,7.1,4.973,2.164,0,5.128-.893,9.328-2.81,4.322-1.973,6.705-3.868,7.083-5.63.374-1.742-1.2-3.546-2.873-5.452l-.135-.155c-.527-.6-1.013-1.184-1.474-1.739C430.59,295.959,429.175,294.26,427.146,294.26Z" transform="translate(-408.785 -292.46)"/>
        </g>
        <g id="Group_19" data-name="Group 19" transform="translate(153.212 289.346)">
          <path id="Path_24" data-name="Path 24" d="M412.513,305.271c-4.138,0-6.268-2.756-8.521-5.674-2.63-3.4-3.7-6.268-3.188-8.519a4.906,4.906,0,0,1,2.765-3.294,95.823,95.823,0,0,1,13.525-5.652,6.871,6.871,0,0,1,1.946-.3c2.873,0,4.6,2.075,6.788,4.705.452.544.927,1.116,1.442,1.7l.135.153c1.89,2.158,3.843,4.39,3.28,7.015-.518,2.416-3.091,4.606-8.095,6.89C418.084,304.356,414.977,305.271,412.513,305.271Zm6.527-21.64a5.084,5.084,0,0,0-1.438.227,95.617,95.617,0,0,0-13.228,5.535,3.088,3.088,0,0,0-1.814,2.084c-.383,1.678.6,4.106,2.857,7.02,2.455,3.177,3.994,4.973,7.1,4.973,2.164,0,5.128-.893,9.328-2.81,4.322-1.973,6.705-3.866,7.083-5.63.374-1.742-1.2-3.544-2.875-5.45l-.133-.155c-.526-.6-1.01-1.183-1.471-1.737C422.485,285.332,421.068,283.631,419.04,283.631Z" transform="translate(-400.678 -281.831)"/>
        </g>
        <g id="Group_20" data-name="Group 20" transform="translate(211.26 314.804)">
          <path id="Path_25" data-name="Path 25" d="M444.758,319.412c-4.136,0-6.266-2.754-8.519-5.672-2.63-3.4-3.7-6.271-3.186-8.523a4.9,4.9,0,0,1,2.765-3.292,94.982,94.982,0,0,1,13.525-5.65,6.787,6.787,0,0,1,1.944-.3c2.873,0,4.6,2.075,6.788,4.707.452.542.927,1.111,1.44,1.7l.139.157c1.888,2.156,3.841,4.388,3.278,7.015-.518,2.412-3.091,4.6-8.095,6.89C450.331,318.5,447.222,319.412,444.758,319.412Zm6.529-21.638a5.064,5.064,0,0,0-1.436.227,93.286,93.286,0,0,0-13.228,5.535,3.086,3.086,0,0,0-1.814,2.083c-.383,1.679.6,4.106,2.855,7.02,2.453,3.177,3.992,4.973,7.1,4.973,2.164,0,5.13-.891,9.329-2.808,4.322-1.975,6.7-3.87,7.083-5.63.374-1.742-1.2-3.544-2.873-5.45l-.137-.158c-.526-.6-1.008-1.181-1.469-1.733C454.732,299.475,453.315,297.774,451.287,297.774Z" transform="translate(-432.927 -295.974)"/>
        </g>
        <g id="Group_21" data-name="Group 21" transform="translate(196.667 295.672)">
          <path id="Path_26" data-name="Path 26" d="M436.651,308.783c-4.136,0-6.268-2.754-8.523-5.672-2.628-3.4-3.7-6.271-3.182-8.523a4.9,4.9,0,0,1,2.765-3.292,95.45,95.45,0,0,1,13.525-5.65,6.792,6.792,0,0,1,1.942-.3c2.873,0,4.6,2.074,6.786,4.7.452.544.929,1.114,1.444,1.7l.137.155c1.89,2.16,3.843,4.392,3.278,7.018-.518,2.414-3.091,4.6-8.095,6.889C442.223,307.867,439.116,308.783,436.651,308.783Zm6.527-21.638a5.047,5.047,0,0,0-1.433.227,93.78,93.78,0,0,0-13.23,5.535,3.089,3.089,0,0,0-1.816,2.083c-.385,1.678.6,4.106,2.853,7.02,2.455,3.177,4,4.973,7.1,4.973,2.164,0,5.128-.891,9.328-2.808,4.324-1.973,6.707-3.868,7.085-5.629.374-1.744-1.2-3.546-2.875-5.454l-.135-.155c-.527-.6-1.013-1.186-1.474-1.739C446.624,288.844,445.207,287.145,443.178,287.145Z" transform="translate(-424.82 -285.345)"/>
        </g>
        <g id="Group_22" data-name="Group 22" transform="translate(182.074 276.54)">
          <path id="Path_27" data-name="Path 27" d="M428.545,298.154c-4.138,0-6.266-2.756-8.521-5.674-2.628-3.4-3.7-6.268-3.186-8.519a4.912,4.912,0,0,1,2.765-3.294,95.3,95.3,0,0,1,13.527-5.65,6.85,6.85,0,0,1,1.944-.3c2.873,0,4.6,2.077,6.79,4.709.45.54.923,1.111,1.436,1.7l.137.153c1.89,2.16,3.845,4.392,3.281,7.018-.518,2.416-3.092,4.6-8.1,6.889C434.116,297.238,431.007,298.154,428.545,298.154Zm6.529-21.638a5.062,5.062,0,0,0-1.436.227,95.243,95.243,0,0,0-13.228,5.535,3.082,3.082,0,0,0-1.814,2.083c-.385,1.679.6,4.106,2.853,7.02,2.455,3.175,3.994,4.973,7.1,4.973,2.164,0,5.128-.893,9.328-2.81,4.322-1.973,6.707-3.866,7.085-5.629.374-1.742-1.2-3.544-2.875-5.452l-.137-.155c-.524-.6-1.008-1.183-1.467-1.733C438.519,278.217,437.1,276.516,435.073,276.516Z" transform="translate(-416.712 -274.716)"/>
        </g>
        <g id="Group_23" data-name="Group 23" transform="translate(240.119 301.995)">
          <path id="Path_28" data-name="Path 28" d="M460.793,312.3c-4.138,0-6.268-2.756-8.521-5.675-2.628-3.4-3.7-6.268-3.188-8.518a4.915,4.915,0,0,1,2.767-3.3,95.256,95.256,0,0,1,13.527-5.65,6.849,6.849,0,0,1,1.944-.3c2.873,0,4.6,2.079,6.791,4.711.448.538.922,1.111,1.435,1.7l.135.151c1.89,2.158,3.845,4.39,3.281,7.018-.518,2.416-3.091,4.6-8.095,6.889C466.366,311.38,463.258,312.3,460.793,312.3Zm6.529-21.64a5.062,5.062,0,0,0-1.436.227,95.2,95.2,0,0,0-13.228,5.535,3.094,3.094,0,0,0-1.818,2.084c-.383,1.678.6,4.1,2.857,7.016,2.455,3.179,3.994,4.977,7.1,4.977,2.164,0,5.128-.893,9.328-2.813,4.322-1.971,6.705-3.865,7.083-5.627.374-1.742-1.2-3.544-2.876-5.454l-.133-.153c-.524-.6-1.008-1.181-1.467-1.733C470.767,292.361,469.351,290.658,467.322,290.658Z" transform="translate(-448.96 -288.858)"/>
        </g>
        <g id="Group_24" data-name="Group 24" transform="translate(225.527 282.861)">
          <path id="Path_29" data-name="Path 29" d="M452.688,301.668c-4.138,0-6.269-2.756-8.525-5.674-2.628-3.4-3.7-6.266-3.184-8.519a4.913,4.913,0,0,1,2.765-3.3,95.23,95.23,0,0,1,13.527-5.648,6.779,6.779,0,0,1,1.942-.3c2.873,0,4.6,2.079,6.79,4.711.45.542.925,1.112,1.438,1.7l.131.149c1.892,2.158,3.848,4.39,3.285,7.02-.518,2.414-3.091,4.6-8.095,6.889C458.257,300.751,455.152,301.668,452.688,301.668Zm6.525-21.64a5.124,5.124,0,0,0-1.435.227,93.614,93.614,0,0,0-13.23,5.535,3.1,3.1,0,0,0-1.816,2.086c-.382,1.679.6,4.1,2.855,7.016,2.457,3.179,4,4.975,7.1,4.975,2.164,0,5.126-.893,9.326-2.81,4.324-1.973,6.705-3.866,7.083-5.63.374-1.742-1.2-3.544-2.878-5.454l-.131-.151c-.526-.6-1.01-1.183-1.469-1.735C462.658,281.731,461.243,280.028,459.213,280.028Z" transform="translate(-440.853 -278.228)"/>
        </g>
        <g id="Group_25" data-name="Group 25" transform="translate(210.933 263.731)">
          <path id="Path_30" data-name="Path 30" d="M444.58,291.04c-4.138,0-6.266-2.756-8.521-5.674-2.63-3.4-3.7-6.271-3.188-8.523a4.908,4.908,0,0,1,2.767-3.29,95.074,95.074,0,0,1,13.523-5.652,6.812,6.812,0,0,1,1.944-.3c2.875,0,4.6,2.077,6.793,4.709.452.542.925,1.112,1.44,1.7l.135.153c1.89,2.158,3.841,4.39,3.278,7.016-.518,2.414-3.092,4.6-8.095,6.89C450.152,290.122,447.044,291.04,444.58,291.04ZM451.1,269.4a5.06,5.06,0,0,0-1.435.227,94.812,94.812,0,0,0-13.226,5.537,3.086,3.086,0,0,0-1.816,2.081c-.385,1.679.6,4.106,2.855,7.02,2.455,3.177,4,4.975,7.1,4.975,2.165,0,5.13-.893,9.328-2.812,4.322-1.971,6.7-3.866,7.083-5.629.374-1.742-1.2-3.544-2.871-5.452l-.135-.155c-.526-.6-1.01-1.181-1.471-1.733C454.552,271.1,453.135,269.4,451.1,269.4Z" transform="translate(-432.745 -267.6)"/>
        </g>
        <g id="Group_26" data-name="Group 26" transform="translate(268.979 289.184)">
          <path id="Path_31" data-name="Path 31" d="M476.826,305.181c-4.136,0-6.266-2.756-8.519-5.674-2.63-3.4-3.7-6.266-3.188-8.519a4.906,4.906,0,0,1,2.767-3.292,95.2,95.2,0,0,1,13.523-5.654,6.876,6.876,0,0,1,1.944-.3c2.873,0,4.6,2.075,6.786,4.7.452.544.929,1.118,1.445,1.708l.131.149c1.892,2.158,3.848,4.39,3.283,7.018-.518,2.416-3.091,4.606-8.1,6.89C482.4,304.264,479.29,305.181,476.826,305.181Zm6.527-21.64a5.084,5.084,0,0,0-1.436.227A95.339,95.339,0,0,0,468.69,289.3a3.087,3.087,0,0,0-1.816,2.084c-.383,1.678.6,4.106,2.857,7.018,2.453,3.177,3.994,4.973,7.1,4.973,2.164,0,5.128-.891,9.328-2.81,4.324-1.975,6.709-3.866,7.085-5.63.376-1.744-1.2-3.546-2.876-5.454l-.131-.151c-.527-.6-1.015-1.186-1.476-1.741C486.8,285.24,485.381,283.541,483.353,283.541Z" transform="translate(-464.993 -281.741)"/>
        </g>
        <g id="Group_27" data-name="Group 27" transform="translate(254.389 270.054)">
          <path id="Path_32" data-name="Path 32" d="M468.718,294.553c-4.136,0-6.268-2.758-8.519-5.675-2.628-3.4-3.7-6.266-3.186-8.519a4.906,4.906,0,0,1,2.765-3.294,95.578,95.578,0,0,1,13.525-5.65,6.872,6.872,0,0,1,1.946-.3c2.871,0,4.6,2.075,6.781,4.7.452.542.929,1.116,1.445,1.706l.133.153c1.892,2.158,3.848,4.39,3.285,7.016-.52,2.416-3.092,4.6-8.1,6.887C474.291,293.635,471.182,294.553,468.718,294.553Zm6.53-21.64a5.083,5.083,0,0,0-1.438.227,95.1,95.1,0,0,0-13.228,5.535,3.085,3.085,0,0,0-1.814,2.084c-.383,1.678.6,4.106,2.855,7.018,2.455,3.177,3.994,4.975,7.1,4.975,2.164,0,5.13-.893,9.329-2.813,4.322-1.971,6.705-3.865,7.085-5.627.374-1.742-1.206-3.544-2.878-5.454l-.133-.153c-.527-.6-1.013-1.186-1.474-1.741C478.69,274.614,477.275,272.913,475.249,272.913Z" transform="translate(-456.887 -271.113)"/>
        </g>
        <g id="Group_28" data-name="Group 28" transform="translate(239.794 250.92)">
          <path id="Path_33" data-name="Path 33" d="M460.612,283.924c-4.136,0-6.266-2.756-8.521-5.675-2.628-3.4-3.7-6.264-3.186-8.518a4.915,4.915,0,0,1,2.767-3.3,95.682,95.682,0,0,1,13.523-5.652,6.878,6.878,0,0,1,1.946-.3c2.871,0,4.6,2.074,6.782,4.7.452.544.931,1.118,1.447,1.708l.133.151c1.892,2.158,3.847,4.39,3.281,7.018-.518,2.416-3.092,4.606-8.1,6.89C466.183,283.008,463.078,283.924,460.612,283.924Zm6.529-21.641a5.072,5.072,0,0,0-1.436.227,95.474,95.474,0,0,0-13.228,5.537,3.094,3.094,0,0,0-1.816,2.086c-.383,1.678.6,4.1,2.855,7.016,2.455,3.179,4,4.975,7.1,4.975,2.165,0,5.128-.893,9.328-2.812,4.324-1.973,6.709-3.866,7.087-5.63.374-1.742-1.2-3.546-2.878-5.454l-.131-.153c-.527-.6-1.015-1.186-1.478-1.742C470.582,263.982,469.167,262.283,467.141,262.283Z" transform="translate(-448.779 -260.483)"/>
        </g>
        <g id="Group_29" data-name="Group 29" transform="translate(297.842 276.376)">
          <path id="Path_34" data-name="Path 34" d="M492.859,298.065c-4.136,0-6.266-2.754-8.521-5.672-2.628-3.4-3.7-6.268-3.184-8.519a4.9,4.9,0,0,1,2.767-3.294,95.156,95.156,0,0,1,13.522-5.654,6.869,6.869,0,0,1,1.944-.3c2.873,0,4.6,2.077,6.79,4.709.452.542.927,1.112,1.442,1.7l.137.157c1.89,2.158,3.843,4.388,3.278,7.013-.52,2.416-3.092,4.6-8.095,6.887C498.43,297.148,495.324,298.065,492.859,298.065Zm6.527-21.64a5.048,5.048,0,0,0-1.435.227,95.333,95.333,0,0,0-13.226,5.537,3.093,3.093,0,0,0-1.818,2.084c-.383,1.679.6,4.106,2.855,7.02,2.455,3.175,4,4.972,7.1,4.972,2.164,0,5.128-.893,9.329-2.812,4.322-1.973,6.705-3.865,7.083-5.627.374-1.742-1.2-3.542-2.871-5.449l-.137-.157c-.526-.6-1.012-1.183-1.472-1.735C502.833,278.128,501.415,276.425,499.386,276.425Z" transform="translate(-481.028 -274.625)"/>
        </g>
        <g id="Group_30" data-name="Group 30" transform="translate(310.163 295.834)">
          <path id="Path_35" data-name="Path 35" d="M499.7,308.875c-4.138,0-6.266-2.756-8.521-5.674-2.626-3.4-3.7-6.269-3.184-8.521a4.908,4.908,0,0,1,2.763-3.294,95.3,95.3,0,0,1,13.527-5.648,6.729,6.729,0,0,1,1.944-.3c2.873,0,4.6,2.077,6.786,4.705.452.544.927,1.116,1.442,1.7l.135.151c1.89,2.158,3.845,4.39,3.283,7.016-.518,2.414-3.092,4.6-8.1,6.89C505.277,307.958,502.168,308.875,499.7,308.875Zm6.529-21.64a5.138,5.138,0,0,0-1.436.227A93.633,93.633,0,0,0,491.568,293a3.085,3.085,0,0,0-1.814,2.084c-.383,1.679.6,4.106,2.853,7.018,2.455,3.179,4,4.975,7.1,4.975,2.164,0,5.128-.893,9.328-2.81,4.324-1.975,6.707-3.868,7.087-5.63.372-1.742-1.206-3.544-2.876-5.452l-.133-.153c-.527-.6-1.013-1.184-1.474-1.737C509.676,288.936,508.261,287.235,506.233,287.235Z" transform="translate(-487.873 -285.435)"/>
        </g>
        <g id="Group_31" data-name="Group 31" transform="translate(340.973 283.185)">
          <path id="Path_36" data-name="Path 36" d="M516.821,301.848c-4.136,0-6.266-2.756-8.521-5.674-2.628-3.4-3.7-6.269-3.184-8.521a4.9,4.9,0,0,1,2.765-3.294,95.744,95.744,0,0,1,13.523-5.65,6.88,6.88,0,0,1,1.946-.3c2.873,0,4.6,2.075,6.788,4.707.45.542.927,1.114,1.44,1.7l.133.151c1.892,2.156,3.849,4.388,3.283,7.015-.518,2.416-3.091,4.606-8.1,6.89C522.394,300.931,519.287,301.848,516.821,301.848Zm6.529-21.64a5.073,5.073,0,0,0-1.436.227,94.155,94.155,0,0,0-13.228,5.533,3.1,3.1,0,0,0-1.816,2.086c-.383,1.678.6,4.106,2.855,7.02,2.455,3.177,4,4.973,7.1,4.973,2.165,0,5.128-.893,9.328-2.812,4.324-1.973,6.709-3.866,7.087-5.63.374-1.742-1.206-3.542-2.878-5.45l-.133-.153c-.526-.6-1.011-1.183-1.47-1.737C526.793,281.909,525.379,280.208,523.35,280.208Z" transform="translate(-504.99 -278.408)"/>
        </g>
        <g id="Group_32" data-name="Group 32" transform="translate(283.248 257.245)">
          <path id="Path_37" data-name="Path 37" d="M484.755,287.437c-4.136,0-6.268-2.756-8.523-5.674-2.63-3.4-3.7-6.268-3.186-8.521a4.906,4.906,0,0,1,2.767-3.292,95.145,95.145,0,0,1,13.527-5.652,6.836,6.836,0,0,1,1.942-.3c2.871,0,4.6,2.074,6.786,4.7.452.544.927,1.116,1.442,1.706l.139.157c1.888,2.158,3.841,4.388,3.278,7.013-.52,2.416-3.092,4.606-8.095,6.89C490.326,286.52,487.219,287.437,484.755,287.437Zm6.527-21.64a5.061,5.061,0,0,0-1.435.227,93.428,93.428,0,0,0-13.228,5.535,3.082,3.082,0,0,0-1.818,2.084c-.383,1.678.6,4.106,2.855,7.02,2.457,3.177,4,4.973,7.1,4.973,2.164,0,5.128-.895,9.328-2.81,4.32-1.975,6.7-3.866,7.081-5.63.374-1.742-1.2-3.542-2.869-5.449l-.139-.158c-.527-.6-1.012-1.184-1.472-1.739C494.723,267.5,493.308,265.8,491.282,265.8Z" transform="translate(-472.92 -263.997)"/>
        </g>
        <g id="Group_33" data-name="Group 33" transform="translate(268.657 238.113)">
          <path id="Path_38" data-name="Path 38" d="M476.643,276.808c-4.133,0-6.264-2.756-8.519-5.674-2.628-3.4-3.7-6.269-3.184-8.519a4.9,4.9,0,0,1,2.765-3.294,95.392,95.392,0,0,1,13.527-5.652,6.828,6.828,0,0,1,1.942-.3c2.869,0,4.6,2.077,6.786,4.7.45.542.927,1.116,1.442,1.7l.137.155c1.89,2.158,3.843,4.39,3.278,7.016-.518,2.414-3.091,4.6-8.095,6.885C482.214,275.89,479.108,276.808,476.643,276.808Zm6.53-21.64a5.06,5.06,0,0,0-1.435.227,93.871,93.871,0,0,0-13.23,5.535,3.1,3.1,0,0,0-1.816,2.086c-.383,1.676.6,4.1,2.855,7.018,2.457,3.177,4,4.973,7.1,4.973,2.164,0,5.128-.893,9.329-2.813,4.324-1.971,6.707-3.863,7.085-5.627.374-1.742-1.2-3.544-2.875-5.45l-.135-.157c-.526-.6-1.013-1.183-1.471-1.737C486.617,256.869,485.2,255.168,483.174,255.168Z" transform="translate(-464.814 -253.368)"/>
        </g>
        <g id="Group_34" data-name="Group 34" transform="translate(326.701 263.569)">
          <path id="Path_39" data-name="Path 39" d="M508.894,290.948c-4.138,0-6.268-2.754-8.521-5.672-2.63-3.4-3.7-6.268-3.188-8.519a4.914,4.914,0,0,1,2.767-3.294,95.282,95.282,0,0,1,13.527-5.65,6.78,6.78,0,0,1,1.944-.3c2.871,0,4.6,2.077,6.788,4.707.45.542.927,1.112,1.44,1.7l.135.155c1.89,2.158,3.845,4.39,3.28,7.016-.518,2.414-3.091,4.6-8.1,6.887C514.465,290.032,511.359,290.948,508.894,290.948Zm6.529-21.638a5.079,5.079,0,0,0-1.436.229,95.254,95.254,0,0,0-13.23,5.535,3.1,3.1,0,0,0-1.816,2.084c-.382,1.678.6,4.1,2.857,7.018,2.455,3.175,3.994,4.972,7.1,4.972,2.164,0,5.126-.893,9.326-2.81,4.324-1.973,6.707-3.866,7.087-5.629.374-1.741-1.2-3.542-2.875-5.45l-.135-.157c-.526-.6-1.012-1.183-1.469-1.733C518.868,271.013,517.452,269.31,515.423,269.31Z" transform="translate(-497.061 -267.51)"/>
        </g>
        <g id="Group_35" data-name="Group 35" transform="translate(312.108 244.435)">
          <path id="Path_40" data-name="Path 40" d="M500.784,280.321c-4.136,0-6.264-2.756-8.516-5.674-2.63-3.4-3.7-6.268-3.19-8.519a4.9,4.9,0,0,1,2.767-3.294,95.57,95.57,0,0,1,13.523-5.654,6.864,6.864,0,0,1,1.942-.3c2.876,0,4.606,2.079,6.795,4.712.45.54.923,1.111,1.438,1.7l.135.153c1.89,2.16,3.843,4.392,3.28,7.018-.52,2.416-3.092,4.6-8.1,6.887C506.357,279.405,503.248,280.321,500.784,280.321Zm6.527-21.641a5.124,5.124,0,0,0-1.435.227,94.07,94.07,0,0,0-13.227,5.537,3.085,3.085,0,0,0-1.814,2.084c-.383,1.678.6,4.106,2.857,7.02,2.451,3.175,3.992,4.973,7.092,4.973,2.165,0,5.13-.895,9.329-2.812,4.322-1.973,6.707-3.866,7.085-5.627.374-1.742-1.2-3.546-2.873-5.454l-.135-.153c-.524-.6-1.01-1.183-1.469-1.733C510.759,260.385,509.343,258.68,507.311,258.68Z" transform="translate(-488.954 -256.88)"/>
        </g>
        <g id="Group_36" data-name="Group 36" transform="translate(297.516 225.304)">
          <path id="Path_41" data-name="Path 41" d="M492.68,269.692c-4.138,0-6.269-2.758-8.523-5.675-2.626-3.4-3.7-6.266-3.186-8.518a4.914,4.914,0,0,1,2.767-3.294,95,95,0,0,1,13.525-5.652,6.783,6.783,0,0,1,1.942-.3c2.875,0,4.6,2.077,6.791,4.707.452.542.927,1.112,1.442,1.7l.139.157c1.886,2.156,3.839,4.387,3.274,7.011-.52,2.416-3.091,4.6-8.095,6.889C498.251,268.775,495.145,269.692,492.68,269.692Zm6.525-21.64a5.06,5.06,0,0,0-1.435.227,95.159,95.159,0,0,0-13.228,5.535,3.092,3.092,0,0,0-1.814,2.084c-.383,1.679.6,4.106,2.853,7.018,2.457,3.177,4,4.975,7.1,4.975,2.164,0,5.126-.895,9.326-2.812,4.324-1.973,6.707-3.866,7.085-5.629.374-1.742-1.2-3.542-2.869-5.447l-.137-.158c-.526-.6-1.01-1.183-1.471-1.735C502.652,249.755,501.236,248.052,499.205,248.052Z" transform="translate(-480.847 -246.252)"/>
        </g>
        <path id="Path_42" data-name="Path 42" d="M353.609,193.437c-10.456,4.021-22.7,8.753-20.428,20.754,3.028,16,14.913,61.29,21.724,89.5s17.51,64.528,19.78,73.287,3.568,19.129,15.889,13.943,181.274-77.506,195.869-84.962,19.134-8.429,16.216-20.106S583.2,179.491,578.338,156.469s-7.463-29.185-27.241-23.348S374.686,185.326,353.609,193.437Z" transform="translate(-301.684 -113.105)" fill="#afd1df"/>
        <path id="Path_43" data-name="Path 43" d="M516.411,285.863c-2.493,1.454-13.19,6.417-27.1,12.685-1.924.875-3.911,1.75-5.935,2.664-7.549,3.388-15.777,7.006-23.992,10.6-12.935,5.663-25.877,11.246-36.207,15.566-8.406,3.523-15.079,6.208-18.639,7.434-16.85,5.837-22.687.972-27.553-14.906-4.864-15.894-26.266-90.8-29.518-103.781s3.6-17.433,17.514-22.689c12-4.552,84.308-27.239,107.014-34.709,22.705-7.454,22.705,2.918,25.623,12.647.311,1.012.781,2.666,1.382,4.844,3.778,13.621,12.784,47.475,18.835,69.811q.64,2.335,1.226,4.5c.2.758.389,1.474.585,2.178.036.137.077.272.113.409.353,1.264.662,2.432.954,3.56.936,3.289,1.674,5.954,2.2,7.783C527.112,279.052,524.192,281.309,516.411,285.863Z" transform="translate(-290.675 -92.998)" fill="#fff"/>
        <path id="Path_44" data-name="Path 44" d="M434.144,249.383c-1.924.875-3.911,1.75-5.935,2.664-2.84-5.369-9.124-22.334-11.947-29.185-.234-.6-.446-1.148-.643-1.573l5.1-3.643s.545,1.327,1.42,3.447C425.018,228.038,431.44,243.506,434.144,249.383Z" transform="translate(-235.513 -43.833)" fill="#ffe7b8"/>
        <g id="Group_37" data-name="Group 37" transform="translate(151.162 82.324)">
          <path id="Path_45" data-name="Path 45" d="M476.949,243.8c-5.2,4.419-65.912,26.431-66.865,23.337-.976-3.17-8.262-60.073-9.486-69.082-1.226-8.987-.972-9.961,6.088-12.393,6.968-2.414,35.588-14.319,49.617-18.347" transform="translate(-399.144 -166.419)" fill="#fff"/>
          <path id="Path_46" data-name="Path 46" d="M411.309,268.719a2.943,2.943,0,0,1-.779-.083,1.254,1.254,0,0,1-.909-.832c-.722-2.34-4.473-30.744-7.934-57.184-.738-5.643-1.312-10.031-1.584-12.04-1.262-9.238-.94-10.739,6.685-13.367,2.192-.76,6.509-2.452,11.972-4.594,11.846-4.644,28.069-11.005,37.69-13.766a.9.9,0,0,1,.5,1.73c-9.538,2.738-25.718,9.081-37.53,13.712-5.483,2.149-9.814,3.848-12.038,4.619-6.482,2.234-6.687,2.66-5.494,11.423.274,2.011.848,6.4,1.588,12.049,2.414,18.445,6.84,52.274,7.787,56.565,5.369.544,60.239-18.958,65.5-23.434a.9.9,0,0,1,1.168,1.37C473.11,248.984,419.978,268.719,411.309,268.719Z" transform="translate(-399.539 -166.818)"/>
        </g>
        <path id="Path_47" data-name="Path 47" d="M429.479,254.866c-12.935,5.663-25.877,11.246-36.207,15.566-3.366-8.638-8.743-25.96-9.229-33.9,11.675-8.505,29.833-9.153,29.833-9.153S426.23,243.467,429.479,254.866Z" transform="translate(-260.774 -36.049)"/>
        <path id="Path_48" data-name="Path 48" d="M374.035,232.747c-.972,5.594-8.516,13.133-4.867,17.512s9-1.948,9.974-7.783c-.488,10.458,5.594,4.378,2.92-7.54A6.659,6.659,0,0,0,374.035,232.747Z" transform="translate(-273.466 -32.189)" fill="#ffa66b"/>
        <path id="Path_49" data-name="Path 49" d="M405.075,201.763c.488-7.3,2.677-11.432,5.6-10.7s-.731,4.622-.731,4.622c5.837-2.921,10.7-6.08,11.675-2.191s-7.3,9.727-9.484,11.187S405.075,201.763,405.075,201.763Z" transform="translate(-243.949 -65.168)" fill="#ffa66b"/>
        <path id="Path_50" data-name="Path 50" d="M368.643,263.109c-.324,1.622,11.837,2.92,14.268,3.407s5.026-20.025,5.512-23.184c1.786,15.077,3.326,22.048,5.027,22.048s36.155-12.323,35.912-15-9.727-21.406-9.727-21.406c9.97,3.893,22.376,1.7,23.836-27.968-4.865-3.161-9.729-4.624-10.46-4.135s-2.675,18.241-7.538,18.484-16.052-9-28.458-4.864S371.561,224.358,368.643,263.109Z" transform="translate(-273.1 -60.524)" fill="#99bb4e"/>
        <path id="Path_51" data-name="Path 51" d="M388.238,223.757c-.97-4.133-.97-8.026-2.916-8.267s-12.344-2.552-13.561-15.2,16.722-18.851,21.1-13.012,7.783,15.808,3.406,22.862c-3.406,4.378-.731,6.08,0,10.213S389.453,226.434,388.238,223.757Z" transform="translate(-270.647 -69.897)" fill="#ffa66b"/>
        <path id="Path_52" data-name="Path 52" d="M415.751,182.484c2.916,3.647,6.08,5.35,6.08,7.783.243,5.35-16.783,25.778,6.808,32.1,18.007,4.828,20.916-11.43,20.432-20.673s-18.729-12.4-17.757-14.108c1.462-9,1.946-10.213.245-10.213S416.478,180.537,415.751,182.484Z" transform="translate(-235.408 -76.048)" fill="#ffe7b8"/>
        <path id="Path_53" data-name="Path 53" d="M413.183,218.237c7.054-4.135,23.591-22.374,27.239-24.563s8.269,15.32-2.187,24.32S415.129,223.832,413.183,218.237Z" transform="translate(-237.462 -63.16)" fill="#ff8f46"/>
        <path id="Path_54" data-name="Path 54" d="M434.691,159.806c4.378-1.458,27.076-8.917,28.863-9.567s2.428,5.191,2.914,8.919.328,4.217-4.378,5.837-20.588,6.813-23.022,7.3-2.92-.977-3.568-3.733S433.071,160.616,434.691,159.806Z" transform="translate(-220.785 -97.798)" fill="#ffe7b8"/>
        <path id="Path_55" data-name="Path 55" d="M470.831,152.716c1.152-6.556-12.159-9.889-14.1,0S469.211,161.959,470.831,152.716Z" transform="translate(-202.772 -100.759)" fill="#d5f0fd"/>
        <g id="Group_38" data-name="Group 38" transform="translate(221.304 69.547)">
          <path id="Path_56" data-name="Path 56" d="M439.376,179.509a21.906,21.906,0,0,0,9.65-2.428c4.468-2.014,8.861-4.09,13.388-5.989a137.263,137.263,0,0,1,13.873-5.411c4.4-1.309,8.827-2.108,12.917-4.291,1.024-.547.115-2.1-.907-1.555-3.926,2.1-8.23,2.961-12.488,4.111a87,87,0,0,0-10.984,4.189c-3.886,1.642-7.87,3.11-11.687,4.9-4.459,2.1-8.658,4.784-13.761,4.669a.9.9,0,0,0,0,1.8Z" transform="translate(-438.507 -159.72)"/>
        </g>
        <g id="Group_39" data-name="Group 39" transform="translate(225.629 88.231)">
          <path id="Path_57" data-name="Path 57" d="M442.287,182.515c9.329-4.2,19.246-6.806,28.728-10.611,1.064-.427.6-2.167-.479-1.735-9.628,3.863-19.685,6.529-29.156,10.793-1.058.475-.142,2.027.907,1.553Z" transform="translate(-440.91 -170.1)"/>
        </g>
        <g id="Group_40" data-name="Group 40" transform="translate(260.445 82.886)">
          <path id="Path_58" data-name="Path 58" d="M461.377,172.821a98.392,98.392,0,0,0,13.378-3.893c1.073-.407.607-2.147-.479-1.733a98.83,98.83,0,0,1-13.378,3.892c-1.132.254-.652,1.989.479,1.735Z" transform="translate(-460.252 -167.131)"/>
        </g>
        <g id="Group_41" data-name="Group 41" transform="translate(229.087 105.086)">
          <path id="Path_59" data-name="Path 59" d="M444.154,186.453c4.6-2.992,10.363-3.161,15.322-5.35,1.06-.468.144-2.018-.907-1.553-4.977,2.2-10.685,2.335-15.322,5.348-.97.63-.068,2.189.907,1.555Z" transform="translate(-442.831 -179.464)"/>
        </g>
        <g id="Group_42" data-name="Group 42" transform="translate(233.442 108.682)">
          <path id="Path_60" data-name="Path 60" d="M446.382,197.837c7.612-1.3,14.7-4.255,21.881-6.993,7.888-3.01,16.049-5.058,24.088-7.6,1.1-.349.632-2.088-.479-1.735-7.535,2.381-15.214,4.268-22.619,7.052-7.675,2.884-15.223,6.149-23.35,7.54-1.143.2-.657,1.93.479,1.735Z" transform="translate(-445.251 -181.462)"/>
        </g>
        <g id="Group_43" data-name="Group 43" transform="translate(234.384 123.276)">
          <path id="Path_61" data-name="Path 61" d="M447.151,201.962c4.577-2.032,9.486-3.028,14.189-4.7,5.081-1.8,9.859-4.293,15.025-5.915,1.105-.346.634-2.084-.477-1.735-5.173,1.624-10.008,3.9-15.026,5.913-4.783,1.919-9.887,2.779-14.618,4.88-1.06.47-.142,2.02.907,1.553Z" transform="translate(-445.773 -189.569)"/>
        </g>
        <g id="Group_44" data-name="Group 44" transform="translate(238.503 137.112)">
          <path id="Path_62" data-name="Path 62" d="M449.637,207.833c3.119-2.612,7.6-2.945,11.36-4.156,4.176-1.343,8.273-2.93,12.323-4.613,1.057-.437.594-2.18-.479-1.735a132.9,132.9,0,0,1-14.965,5.418c-3.427.959-6.714,1.472-9.511,3.814-.891.745.389,2.012,1.273,1.273Z" transform="translate(-448.062 -197.256)"/>
        </g>
        <g id="Group_45" data-name="Group 45" transform="translate(240.524 137.622)">
          <path id="Path_63" data-name="Path 63" d="M450.5,217.474c3.5-2.324,7.582-3.087,11.551-4.259,4.1-1.206,8.021-2.75,12.033-4.181,7.479-2.668,14.891-5.589,21.652-9.8.985-.61.081-2.169-.907-1.553-7.6,4.727-15.935,7.313-24.118,10.739-6.8,2.849-14.929,3.388-21.118,7.5-.961.639-.061,2.2.907,1.553Z" transform="translate(-449.185 -197.54)"/>
        </g>
        <g id="Group_46" data-name="Group 46" transform="translate(242.911 162.223)">
          <path id="Path_64" data-name="Path 64" d="M451.874,223.325c7.87-4.041,16.409-6.512,24.322-10.46,1.039-.518.13-2.072-.907-1.553-7.915,3.946-16.452,6.419-24.322,10.458-1.035.531-.124,2.083.907,1.555Z" transform="translate(-450.511 -211.207)"/>
        </g>
        <g id="Group_47" data-name="Group 47" transform="translate(287.107 359.134)">
          <path id="Path_65" data-name="Path 65" d="M480.149,344.528a4.525,4.525,0,0,1-2.432-.628c-1.946-1.2-2.468-3.91-2.653-7.607l1.8-.09c.139,2.707.448,5.328,1.8,6.163,1.165.725,3.344.358,6.669-1.107,7.506-3.3,15.712-7.034,19.642-9.652,3.656-2.437,5.083-4.1,4.466-10.841l1.793-.164c.668,7.3-1,9.666-5.261,12.5-4.032,2.686-11.954,6.3-19.915,9.8A15.508,15.508,0,0,1,480.149,344.528Z" transform="translate(-475.064 -320.602)"/>
        </g>
        <path id="Path_66" data-name="Path 66" d="M395.981,186.989c-.245-5.837-14.652-5.152-23.1,4.925a6.787,6.787,0,0,0-.841,6.678,5.717,5.717,0,0,0-1.775,3.9c-.425,6.448,4.091,15.262,11.554,12.83.079-.871-1.885-4.014-1.885-4.014-5.839,1.156-5.839-7.477-1.033-4.619,2.947.639-2.1-7.146,1.76-10.7C386.983,190.152,396.226,192.827,395.981,186.989Z" transform="translate(-271.822 -71.312)"/>
      </g>
      <path id="Path_67" data-name="Path 67" d="M504.358,223.651c-3.4,10.006-2.713,26.105,14.643,33.514s74.882,5.3,88.828-7.043c10.892-9.634,7.3-24.833.679-37.057C597.277,192.311,515.091,192.718,504.358,223.651Z" transform="translate(-104.933 47.709)" fill="#ffe7b8"/>
      <g id="Group_49" data-name="Group 49" transform="translate(361.009 437.229)">
        <path id="Path_68" data-name="Path 68" d="M696.8,385.786c6.86-8.266,26.348-35.829,10.1-65.9-18.808-3.892-28.861-13.619-32.1-14.593s-14,9.337-28.859,11.677c-47.347,7.456-51.325,30.058-51.46,30.145-11.286-4.669-28.105-4.991-54.257,10.066-42.8,24.644-50.263,29.833-55.451,34.049.724,1.157,2.036,3.107,3.764,5.6-2.581,1.877-6.026,2.534-5.71,4.133.31,1.548,32,52.238,42.169,61.819a61.255,61.255,0,0,0,4.525,5.63c6.811,7.135,73.289-16.216,96.961-27.239s76.853-36.968,73.935-45.4C699.374,392.785,698.136,389.231,696.8,385.786Z" transform="translate(-481.893 -304.338)" fill="#fff"/>
        <path id="Path_69" data-name="Path 69" d="M535.289,471.037h0c-3.017,0-4.988-.526-6.021-1.609a61.705,61.705,0,0,1-4.6-5.72c-10.249-9.635-41.972-60.415-42.327-62.172-.333-1.687,1.384-2.531,3.2-3.424.679-.331,1.426-.7,2.128-1.129-1.5-2.167-2.619-3.843-3.265-4.88a.9.9,0,0,1,.194-1.174c5.116-4.154,12.456-9.308,55.571-34.132,15.01-8.642,28.427-13.023,39.879-13.023a39.726,39.726,0,0,1,14.258,2.543c1.874-5.47,11.034-23.405,51.888-29.839,8.7-1.37,15.907-5.486,21.172-8.494,3.843-2.2,6.442-3.64,8.086-3.157a21.5,21.5,0,0,1,4.388,2.525c5.265,3.456,14.076,9.243,27.641,12.051a.886.886,0,0,1,.608.454c16.313,30.177-2.952,58.032-9.857,66.492,1.254,3.274,2.424,6.622,3.429,9.526,2.921,8.44-38.849,29.948-74.407,46.507C605.638,452.448,553.172,471.037,535.289,471.037Zm-48.931-79.214c.749,1.156,1.879,2.822,3.314,4.889a.9.9,0,0,1-.212,1.24,20.616,20.616,0,0,1-3.127,1.777c-.8.394-2.295,1.129-2.23,1.454.781,2.084,31.777,51.8,41.9,61.339a63.772,63.772,0,0,0,4.559,5.665c.374.392,1.487,1.051,4.721,1.051,17.347,0,70.263-18.733,91.208-28.485,46.453-21.634,75.289-39.017,73.465-44.289-1.049-3.033-2.281-6.554-3.594-9.954a.893.893,0,0,1,.146-.9c6.376-7.684,25.886-34.976,10.192-64.53a78.487,78.487,0,0,1-27.851-12.22,22.71,22.71,0,0,0-3.917-2.306.834.834,0,0,0-.222-.027c-1.164,0-3.616,1.4-6.455,3.022-5.385,3.076-12.762,7.29-21.784,8.71-42.388,6.674-49.657,25.609-50.683,29.335a1.4,1.4,0,0,1-.436.68.9.9,0,0,1-.828.072,37.64,37.64,0,0,0-14.481-2.77c-11.133,0-24.248,4.3-38.983,12.784C499.8,382.119,491.43,387.778,486.358,391.822Z" transform="translate(-482.295 -304.735)"/>
      </g>
      <g id="Group_50" data-name="Group 50" transform="translate(366.747 528.82)">
        <path id="Path_70" data-name="Path 70" d="M485.6,356.971c4.541,8.217,11.216,15.4,16.735,22.952,6.865,9.4,13.545,18.974,19.71,28.849.614.983,2.171.081,1.553-.905-5.868-9.4-12.2-18.535-18.718-27.493-5.83-8.012-12.927-15.633-17.726-24.309-.56-1.015-2.117-.108-1.553.907Z" transform="translate(-485.483 -355.619)"/>
      </g>
      <g id="Group_51" data-name="Group 51" transform="translate(472.681 479.108)">
        <path id="Path_71" data-name="Path 71" d="M544.6,329.536c8.606,8.458,16.492,17.555,24.21,26.818,7.81,9.371,16.574,18.547,23.218,28.789.63.97,2.189.068,1.553-.907-6.451-9.947-14.893-18.785-22.45-27.895a371.881,371.881,0,0,0-25.259-28.078c-.828-.814-2.1.459-1.273,1.273Z" transform="translate(-544.335 -328.002)"/>
      </g>
      <g id="Group_52" data-name="Group 52" transform="translate(4.155 434.064)">
        <path id="Path_72" data-name="Path 72" d="M284.891,303.616c-1.964,7.317-.193,15.106,2,22.16,3.375,10.858,8.833,21.082,14.593,30.832,13.365,22.606,30.382,43.213,46,64.287,13.318,17.971,26.579,36.032,40.736,53.357,10.024,12.265,20.732,24,31.387,35.712,12.438,13.678,25.025,27.229,37.883,40.513,7.848,8.107,15.689,16.909,25.279,23.018,30.872,19.661,69.665-3.4,98.228-16.783q51.565-24.165,102.784-49.075c1.046-.506.131-2.059-.907-1.553q-35.926,17.4-71.984,34.526c-17.566,8.35-35.152,16.657-52.823,24.784-18.428,8.476-39.638,16.963-60.277,12.429-11.459-2.515-20.214-9.853-28.368-17.84-11.842-11.6-23.152-23.773-34.427-35.924C422.7,510.81,410.533,497.436,398.673,483.8c-12.411-14.269-23.852-29.318-35.2-44.437-16.942-22.574-34.324-45-50.445-68.171a213.468,213.468,0,0,1-20.9-36.585c-3.949-9.088-8.179-20.522-5.5-30.512a.9.9,0,0,0-1.735-.479Z" transform="translate(-284.043 -302.977)"/>
      </g>
      <g id="Group_53" data-name="Group 53" transform="translate(687.85 426.866)">
        <path id="Path_73" data-name="Path 73" d="M664.744,361.006c9.169.1,18.6-3.983,26.946-7.308,13.266-5.285,26.138-11.574,38.846-18.068,20.734-10.6,42.129-21.5,61.22-34.933.941-.662.043-2.225-.907-1.555-18.522,13.032-39.238,23.585-59.312,33.952-12.647,6.53-25.474,12.784-38.646,18.189-8.627,3.541-18.621,8.031-28.147,7.924a.9.9,0,0,0,0,1.8Z" transform="translate(-663.874 -298.978)"/>
      </g>
      <g id="Group_65" data-name="Group 65" transform="translate(395.601 251.73)">
        <path id="Path_74" data-name="Path 74" d="M607.221,352.722c-7.785-.65-25.3,4.536-33.4,1.294s1.944-9.727,12-8.753,18.81-4.54,7.135-7.461-33.077.324-22.374-10.051c2.594-5.836,9.079-7.783,12-7.133,4.216-11.673,35.024,5.191,46.7,4.216C638.03,340.073,638.028,350.45,607.221,352.722Z" transform="translate(-448.589 -109.838)" fill="#ff8f46"/>
        <path id="Path_75" data-name="Path 75" d="M610.46,215.375c-14.728,7.794-26.269,29.164-28.294,41.29s-1.283,16.544-4.891,16.8c-5.454.4-10.246-.151-11.543,3.17-2.369,6.039,7.483,6.588,7.191,14.1s-6.35,34.36-.864,51.682S587.652,368.406,602.088,371s21.366-5.778,22.808,9.527,4.621,45.333,4.621,45.333L688.128,412l-11.259-48.5S703.433,204.4,610.46,215.375Z" transform="translate(-450.432 -191.159)" fill="#ffa66b"/>
        <g id="Group_54" data-name="Group 54" transform="translate(176.116 211.815)">
          <path id="Path_76" data-name="Path 76" d="M599.357,320.224c.542,9.553,2.264,19.456,1.136,29.011-.135,1.152,1.667,1.139,1.8,0,1.129-9.554-.594-19.458-1.136-29.011-.065-1.154-1.865-1.161-1.8,0Z" transform="translate(-599.355 -319.356)"/>
        </g>
        <path id="Path_77" data-name="Path 77" d="M588.663,227.8c4.331,0,14.994,3.294,15.572,10.512-6.35,14.144-3.463,25.985,7.8,33.779s17.9,15.016,4.045,27.432-14.148,28.006,2.6,38.975,20.79,14.728,13.857,29.165-16.5,27.682-2.477,44.51c13.626-10.015,27.025-11.018,39.436-9.862s20.214,0,27.722-14.726,23.387-8.374,35.8-4.619,18.769-.868,24.831-15.3,17.615-12.128,25.987-14.15,11.262-23.962,18.767-27.14c-11.549-9.529-17.249-1.649-23.891-9.158s2.027-23.375-7.213-34.056-23.357,2.164-26.82-6.788,15.482-18.427-4.154-40.66-34.646-4.912-47.639-21.656S618.406,193.734,588.663,227.8Z" transform="translate(-431.793 -201.681)"/>
        <g id="Group_55" data-name="Group 55" transform="translate(145.394 49.11)">
          <path id="Path_78" data-name="Path 78" d="M583.062,230.568c5.278-.05,9.722,4.486,11.351,9.23.335.972,1.883.554,1.546-.425-1.859-5.418-6.88-10.465-12.9-10.409a.8.8,0,0,0,0,1.6Z" transform="translate(-582.287 -228.964)"/>
        </g>
        <g id="Group_56" data-name="Group 56" transform="translate(123.058 113.182)">
          <path id="Path_79" data-name="Path 79" d="M570.142,268.851c2.614,2.241,6.163,3.739,9.677,3.146,4.153-.7,6.943-3.454,10.033-6.1.785-.671-.353-1.8-1.134-1.134-5.236,4.486-11.023,8.46-17.442,2.956-.779-.671-1.917.457-1.134,1.132Z" transform="translate(-569.879 -264.56)"/>
        </g>
        <path id="Path_80" data-name="Path 80" d="M587.649,250.118c-.529,3.429-2.621,5.949-4.667,5.634s-3.28-3.352-2.75-6.777,2.619-5.951,4.666-5.636S588.177,246.692,587.649,250.118Z" transform="translate(-438.636 -168.375)"/>
        <path id="Path_81" data-name="Path 81" d="M588.773,397.955c-2.257,1.285-9.729-.972-17.514-4.55-.094-.137-.232-.3-.389-.49-5.758-6.613-49.79-50.449-58.291-62.746a1.35,1.35,0,0,1-.117-.234c-5.06-9.32,15.723-18.522,20.858-13.385,5.195,5.191,47.669,60.646,50.917,63.895a9.517,9.517,0,0,1,1.4,1.926C588.382,387.157,590.717,396.846,588.773,397.955Z" transform="translate(-493.384 -110.966)"/>
        <path id="Path_82" data-name="Path 82" d="M512.462,329.935c-5.06-9.32,15.723-18.522,20.858-13.385C536.744,323.4,519.583,337.4,512.462,329.935Z" transform="translate(-493.384 -110.966)" fill="#ffe7b8"/>
        <path id="Path_83" data-name="Path 83" d="M562.464,368.045c-2.257,1.285-9.729-.972-17.514-4.55-.094-.137-.232-.3-.389-.49a13.115,13.115,0,0,0,14.769-10.544C562.073,357.247,564.408,366.937,562.464,368.045Z" transform="translate(-467.074 -81.056)" fill="#ffe7b8"/>
        <path id="Path_84" data-name="Path 84" d="M517.039,380.147c.324-12.647,5.4-36.252,16.749-40.79,4.75,4.853,7.823,8.167,7.823,8.167-2.592,8.1,4.941,13.815,11.425,10.571s9.074-11.675,16.537-12.65,4.217,6.813-.972,15.89-12.319,19.138-22.048,21.407C536.171,385.01,518.337,385.334,517.039,380.147Z" transform="translate(-489.092 -91.54)" fill="#ffa66b"/>
        <path id="Path_85" data-name="Path 85" d="M565.778,441.226c.974-14.918-1.625-36.322-3.568-44.1s-16.866-17.509-34.7-.972S490.868,505.758,508.7,530.4s53.024,23.108,74.428,3.3c30.9-28.593,62.8-59.13,65.716-60.754s-5.229,85.658.284,97.657c40.534,10.7,213.928-15.885,217.174-20.1s7.765-37.273-21.1-105.376c25.623-2.326,39.629-19.159,19.022-59.629-16.7-32.8-41.054-50.4-77.7-60.372-50.693-13.8-94.282-2.594-135.792,30.483S571.288,433.122,565.778,441.226Z" transform="translate(-501.513 -107.543)" fill="#99bb4e"/>
        <g id="Group_57" data-name="Group 57" transform="translate(121.846 216.205)">
          <path id="Path_86" data-name="Path 86" d="M570.58,324.756c4.338-1.987,9.284-1.044,13.772-.256,4.538.8,9.045,1.85,12.994,4.316.986.617,1.89-.94.907-1.553-4.889-3.056-10.564-4.016-16.166-4.973-4.115-.7-8.536-.866-12.414.913-1.055.484-.139,2.034.907,1.553Z" transform="translate(-569.205 -321.795)"/>
        </g>
        <g id="Group_58" data-name="Group 58" transform="translate(128.394 210.161)">
          <path id="Path_87" data-name="Path 87" d="M573.972,321.136a31.806,31.806,0,0,1,15.714.41,55.961,55.961,0,0,1,12.78,5.094.9.9,0,0,0,.907-1.553c-4.419-2.63-9.842-4.336-14.776-5.715-5.29-1.474-9.806-1-15.1.029-1.139.221-.655,1.957.479,1.735Z" transform="translate(-572.843 -318.437)"/>
        </g>
        <g id="Group_59" data-name="Group 59" transform="translate(33.054 322.689)">
          <path id="Path_88" data-name="Path 88" d="M521.544,428.313c4.853-9.162,13.162-16.047,19.667-24.01,2.959-3.623,5.812-7.29,9.023-10.7,3.586-3.807,7.686-7.058,11.054-11.077.74-.882-.526-2.164-1.273-1.273-3.362,4.014-7.4,7.346-11.054,11.077s-6.762,7.929-10.051,11.956c-6.3,7.715-14.208,14.218-18.922,23.119-.542,1.024,1.011,1.933,1.555.907Z" transform="translate(-519.876 -380.952)"/>
        </g>
        <g id="Group_60" data-name="Group 60" transform="translate(320.73 283.204)">
          <path id="Path_89" data-name="Path 89" d="M679.854,360.33c6.327,9.29,9.981,21.478,14.184,31.936,3.575,8.9,8.258,18.193,10.343,27.6.252,1.134,1.987.653,1.737-.477-2.153-9.711-7.011-19.3-10.7-28.49-4.16-10.348-7.736-22.268-14.008-31.473-.648-.954-2.209-.054-1.553.907Z" transform="translate(-679.697 -359.016)"/>
        </g>
        <path id="Path_90" data-name="Path 90" d="M515.176,323.351c2.189,4.378,12.161-1.217,9.482-4.865S512.5,320.676,515.176,323.351Z" transform="translate(-490.96 -109.169)"/>
        <path id="Path_91" data-name="Path 91" d="M557.435,356.35c-1.293,3.429-4.315,7.43-7.031,7.933,3.454,1.006,6.176,1.339,7.385.652C558.979,364.257,558.563,360.364,557.435,356.35Z" transform="translate(-462.4 -77.945)"/>
        <g id="Group_61" data-name="Group 61" transform="translate(126.226 269.591)">
          <path id="Path_92" data-name="Path 92" d="M572.752,354.268c15.008-4.288,26.519,5.861,35.064,17.1,9.38,12.332,11.826,27.329,9.671,42.421-.162,1.134,1.573,1.624,1.737.479,2.318-16.258-.475-32.094-10.87-45.14-9.067-11.381-20.794-20.959-36.081-16.594a.9.9,0,0,0,.479,1.737Z" transform="translate(-571.638 -351.454)"/>
        </g>
        <g id="Group_62" data-name="Group 62" transform="translate(154.185 233.012)">
          <path id="Path_93" data-name="Path 93" d="M588.976,364.617c2.731-6.826,9.281-12.006,14.049-17.447,4.936-5.629,10.492-9.923,16.319-14.555.909-.722-.374-1.985-1.273-1.273a139.777,139.777,0,0,0-18.3,16.8c-4.491,5.051-9.965,9.587-12.532,16-.43,1.076,1.309,1.541,1.737.477Z" transform="translate(-587.171 -331.132)"/>
        </g>
        <g id="Group_63" data-name="Group 63" transform="translate(143.83 348.314)">
          <path id="Path_94" data-name="Path 94" d="M582.935,414.779a77.914,77.914,0,0,1,9.517-8.222c3.982-3.166,7.7-6.653,11.632-9.875.9-.736-.383-2-1.273-1.274-3.578,2.93-7.072,5.98-10.569,9-3.539,3.06-7.414,5.616-10.579,9.1-.78.857.49,2.135,1.272,1.273Z" transform="translate(-581.418 -395.189)"/>
        </g>
        <g id="Group_64" data-name="Group 64" transform="translate(165.721 369.94)">
          <path id="Path_95" data-name="Path 95" d="M593.628,408.072c0,11.8-.128,23.6.032,35.4.156,11.612,1.264,23.186,1.318,34.8a.9.9,0,0,0,1.8,0c-.054-11.615-1.069-23.193-1.318-34.8-.254-11.79-.032-23.607-.032-35.4a.9.9,0,0,0-1.8,0Z" transform="translate(-593.58 -407.203)"/>
        </g>
      </g>
      <g id="Group_66" data-name="Group 66" transform="translate(396.044 112.372)">
        <path id="Path_96" data-name="Path 96" d="M557.3,277.6c-8.008-25.7-17.381-51.066-26.381-76.433-8.608-24.262-18.653-48.393-25.175-73.321a21.491,21.491,0,0,1-.493-2.279c-.338-2.29-3.807-1.312-3.47.958.686,4.624,2.507,9.214,3.944,13.639,2.513,7.744,5.175,15.442,7.853,23.13,4.1,11.781,8.365,23.5,12.587,35.239,9.308,25.871,18.4,51.865,27.005,77.98.223.68.445,1.363.659,2.047.688,2.209,4.165,1.265,3.47-.958Z" transform="translate(-501.759 -124.26)"/>
      </g>
      <path id="Path_97" data-name="Path 97" d="M491.309,107.279c6.158-3.892,14.917-6.161,20.752-2.92s17.188,17.185,12.969,31.455-18.482,9.729-24.322,6.161S482.876,114.412,491.309,107.279Z" transform="translate(-116.403 -29.047)" fill="#99bb4e"/>
      <g id="Group_67" data-name="Group 67" transform="translate(390.277 10.192)">
        <path id="Path_98" data-name="Path 98" d="M501.642,139.4c4.691-4.572,10.593-8.222,15.856-12.076q15.039-11.011,30.227-21.816c16.16-11.567,32.395-23.027,48.568-34.574,1.872-1.336.077-4.46-1.816-3.107-16.441,11.736-32.942,23.387-49.367,35.145q-15.066,10.784-30.046,21.7c-5.3,3.883-11.243,7.58-15.968,12.188-1.663,1.624.884,4.167,2.545,2.545Z" transform="translate(-498.555 -67.493)"/>
      </g>
      <path id="Path_99" data-name="Path 99" d="M593.662,93.189c-10.231,1.235-26.267,4.54-25.943,22.376s1.62,18.806-4.865,23.022-31.779,27.889-26.588,52.533,46.046,36,83.986,26.269,47.023-26.269,44.429-40.86-13.624-38.268-28.863-43.13c-14.267-4.543-12.647-5.513-14.593-19.134S612.473,90.92,593.662,93.189Z" transform="translate(-78.667 -37.007)" fill="#afd1df"/>
      <g id="Group_68" data-name="Group 68" transform="translate(498.59 13.893)">
        <path id="Path_100" data-name="Path 100" d="M558.8,71.777c4.5,16.061,12.029,31.334,15.565,47.669.49,2.27,3.96,1.309,3.47-.956-3.535-16.337-11.065-31.61-15.565-47.669a1.8,1.8,0,0,0-3.47.956Z" transform="translate(-558.729 -69.549)"/>
      </g>
      <g id="Group_69" data-name="Group 69" transform="translate(374.685 79.265)">
        <path id="Path_101" data-name="Path 101" d="M490.761,107.68c5.944-.34,10.624,7.731,12.913,12.262,1.78,3.528,6.538,17.575-.18,19.048-1.134.248-.652,1.984.479,1.735,7.042-1.544,4.331-12.94,2.947-17.489-1.939-6.381-8.21-17.809-16.159-17.356-1.154.067-1.161,1.867,0,1.8Z" transform="translate(-489.893 -105.867)"/>
      </g>
      <g id="Group_70" data-name="Group 70" transform="translate(401.978 267.687)">
        <path id="Path_102" data-name="Path 102" d="M505.067,216.965c3.368,22.559,34.668,21.994,51.953,21.2,12.57-.578,26.1-2.111,37.921-6.613,8.674-3.3,12.515-11.315,12.955-20.14.059-1.161-1.741-1.154-1.8,0-.544,10.944-6.331,17.116-16.63,19.971a153.378,153.378,0,0,1-34.022,5.054c-10.388.475-20.293.3-30.359-2.536-4.939-1.393-9.837-3.382-13.682-6.858-3.073-2.776-4.016-6.655-4.6-10.557-.169-1.147-1.9-.657-1.737.477Z" transform="translate(-505.056 -210.546)"/>
      </g>
      <path id="Path_103" data-name="Path 103" d="M552.237,69.372c1.832,9.173,6.484,13.941,14.267,10.375s3.24-11.353-.324-15.566S550.615,61.264,552.237,69.372Z" transform="translate(-65.453 -61.831)" fill="#ffe7b8"/>
      <g id="Group_71" data-name="Group 71" transform="translate(487.478 1.742)">
        <path id="Path_104" data-name="Path 104" d="M553.935,64.832c4.817-2.106,12.751,7.333,9.286,11.56-.729.889.536,2.171,1.273,1.273,4.844-5.908-4.705-17.341-11.466-14.386-1.062.463-.144,2.014.907,1.553Z" transform="translate(-552.556 -62.799)"/>
      </g>
      <g id="Group_72" data-name="Group 72" transform="translate(494.824 65.668)">
        <path id="Path_105" data-name="Path 105" d="M556.8,98.965c-1.615,8.721,8.793,10.6,15.309,10.978,9.04.524,21.789-1.242,27.2-9.315.648-.968-.913-1.868-1.555-.909-4.568,6.822-14.769,8.107-22.336,8.449-5.492.247-18.4-.488-16.877-8.726.209-1.134-1.524-1.618-1.737-.477Z" transform="translate(-556.637 -98.313)"/>
      </g>
      <g id="Group_73" data-name="Group 73" transform="translate(489.125 99.412)">
        <path id="Path_106" data-name="Path 106" d="M553.471,117.93c.214,10.539,11.849,13.023,20.192,13.459,11.957.628,24.127-1.141,31.423-11.707.662-.958-.9-1.858-1.553-.909-6.143,8.9-16.5,11.194-26.716,10.953-7.85-.185-21.328-1-21.546-11.8a.9.9,0,0,0-1.8,0Z" transform="translate(-553.471 -117.06)"/>
      </g>
    </g>
  </g>
</svg>
